<?xml version="1.0" encoding="UTF-8" standalone="no"?>
<!-- Created with Inkscape (http://www.inkscape.org/) -->

<svg
   xmlns:dc="http://purl.org/dc/elements/1.1/"
   xmlns:cc="http://creativecommons.org/ns#"
   xmlns:rdf="http://www.w3.org/1999/02/22-rdf-syntax-ns#"
   xmlns:svg="http://www.w3.org/2000/svg"
   xmlns="http://www.w3.org/2000/svg"
   xmlns:sodipodi="http://sodipodi.sourceforge.net/DTD/sodipodi-0.dtd"
   xmlns:inkscape="http://www.inkscape.org/namespaces/inkscape"
   width="377.95276"
   height="377.95276"
   viewBox="0 0 100 99.999997"
   version="1.1"
   id="svg6913"
   inkscape:version="0.92.3 (2405546, 2018-03-11)"
   sodipodi:docname="Categories_News.svg">
  <defs
     id="defs6907" />
  <sodipodi:namedview
     id="base"
     pagecolor="#ffffff"
     bordercolor="#666666"
     borderopacity="1.0"
     inkscape:pageopacity="0.0"
     inkscape:pageshadow="2"
     inkscape:zoom="1.8101934"
     inkscape:cx="219.81204"
     inkscape:cy="177.06682"
     inkscape:document-units="mm"
     inkscape:current-layer="layer1"
     showgrid="true"
     units="px"
     showguides="true"
     inkscape:guide-bbox="true"
     inkscape:window-width="1920"
     inkscape:window-height="1017"
     inkscape:window-x="-8"
     inkscape:window-y="-8"
     inkscape:window-maximized="1">
    <sodipodi:guide
       position="49.979401,32.874151"
       orientation="1,0"
       id="guide7481"
       inkscape:locked="false" />
    <sodipodi:guide
       position="84.666665,94.880679"
       orientation="0,1"
       id="guide7483"
       inkscape:locked="false" />
    <sodipodi:guide
       position="80.448127,94.880679"
       orientation="0,1"
       id="guide7485"
       inkscape:locked="false" />
    <sodipodi:guide
       position="95.415221,49.979399"
       orientation="1,0"
       id="guide7487"
       inkscape:locked="false" />
    <sodipodi:guide
       position="14.165285,4.8108513"
       orientation="0,1"
       id="guide7489"
       inkscape:locked="false" />
    <sodipodi:guide
       position="5.3453905,57.462946"
       orientation="1,0"
       id="guide7491"
       inkscape:locked="false" />
    <inkscape:grid
       type="xygrid"
       id="grid7493" />
  </sodipodi:namedview>
  <metadata
     id="metadata6910">
    <rdf:RDF>
      <cc:Work
         rdf:about="">
        <dc:format>image/svg+xml</dc:format>
        <dc:type
           rdf:resource="http://purl.org/dc/dcmitype/StillImage" />
        <dc:title></dc:title>
      </cc:Work>
    </rdf:RDF>
  </metadata>
  <g
     inkscape:label="Layer 1"
     inkscape:groupmode="layer"
     id="layer1"
     transform="translate(0,-197.00002)">
    <g
       id="g5204"
       transform="matrix(0.13751349,0,0,0.14713967,20.118938,212.8788)"
       style="fill:#ffffff;stroke:none;stroke-width:1.86005139;stroke-opacity:0.80392157">
      <g
         id="g5146"
         style="fill:#ffffff;stroke:none;stroke-width:1.86005139;stroke-opacity:0.80392157">
        <g
           id="g5144"
           style="fill:#ffffff;stroke:none;stroke-width:1.86005139;stroke-opacity:0.80392157" />
      </g>
      <g
         id="g5148"
         style="fill:#ffffff;stroke:none;stroke-width:1.86005139;stroke-opacity:0.80392157" />
      <g
         id="g5150"
         style="fill:#ffffff;stroke:none;stroke-width:1.86005139;stroke-opacity:0.80392157" />
      <g
         id="g5152"
         style="fill:#ffffff;stroke:none;stroke-width:1.86005139;stroke-opacity:0.80392157" />
      <g
         id="g5154"
         style="fill:#ffffff;stroke:none;stroke-width:1.86005139;stroke-opacity:0.80392157" />
      <g
         id="g5156"
         style="fill:#ffffff;stroke:none;stroke-width:1.86005139;stroke-opacity:0.80392157" />
      <g
         id="g5158"
         style="fill:#ffffff;stroke:none;stroke-width:1.86005139;stroke-opacity:0.80392157" />
      <g
         id="g5160"
         style="fill:#ffffff;stroke:none;stroke-width:1.86005139;stroke-opacity:0.80392157" />
      <g
         id="g5162"
         style="fill:#ffffff;stroke:none;stroke-width:1.86005139;stroke-opacity:0.80392157" />
      <g
         id="g5164"
         style="fill:#ffffff;stroke:none;stroke-width:1.86005139;stroke-opacity:0.80392157" />
      <g
         id="g5166"
         style="fill:#ffffff;stroke:none;stroke-width:1.86005139;stroke-opacity:0.80392157" />
      <g
         id="g5168"
         style="fill:#ffffff;stroke:none;stroke-width:1.86005139;stroke-opacity:0.80392157" />
      <g
         id="g5170"
         style="fill:#ffffff;stroke:none;stroke-width:1.86005139;stroke-opacity:0.80392157" />
      <g
         id="g5172"
         style="fill:#ffffff;stroke:none;stroke-width:1.86005139;stroke-opacity:0.80392157" />
      <g
         id="g5174"
         style="fill:#ffffff;stroke:none;stroke-width:1.86005139;stroke-opacity:0.80392157" />
      <g
         id="g5176"
         style="fill:#ffffff;stroke:none;stroke-width:1.86005139;stroke-opacity:0.80392157" />
    </g>
    <g
       transform="matrix(1.8729143,0,0,1.8729143,5.9812618,202.20446)"
       id="g1468">
      <g
         id="g1412">
        <path
           inkscape:connector-curvature="0"
           d="m 31.021,15.221 h -1.09 c -0.037,-0.114 -0.082,-0.227 -0.137,-0.334 l 0.771,-0.77 c 0.39,-0.392 0.39,-1.026 0,-1.42 -0.396,-0.392 -1.03,-0.392 -1.422,0 l -0.771,0.77 c -0.109,-0.054 -0.219,-0.099 -0.334,-0.139 v -1.089 c 0,-0.554 -0.447,-1.004 -1.004,-1.004 -0.557,0 -1.004,0.45 -1.004,1.004 v 1.089 c -0.115,0.04 -0.229,0.085 -0.336,0.139 l -0.77,-0.77 c -0.394,-0.392 -1.028,-0.392 -1.423,0 -0.391,0.394 -0.391,1.028 0,1.42 l 0.771,0.769 c -0.051,0.108 -0.096,0.221 -0.135,0.335 h -1.089 c -0.554,0 -1.005,0.451 -1.005,1.005 0,0.554 0.451,1.004 1.005,1.004 h 1.089 c 0.039,0.115 0.084,0.227 0.135,0.335 l -0.771,0.768 c -0.391,0.394 -0.391,1.028 0,1.42 0.197,0.196 0.455,0.295 0.711,0.295 0.261,0 0.517,-0.1 0.712,-0.295 l 0.77,-0.77 c 0.105,0.054 0.221,0.099 0.336,0.138 v 1.089 c 0,0.554 0.447,1.005 1.004,1.005 0.557,0 1.004,-0.451 1.004,-1.005 v -1.09 c 0.115,-0.038 0.225,-0.083 0.334,-0.137 l 0.771,0.769 c 0.194,0.196 0.451,0.296 0.709,0.296 0.259,0 0.515,-0.1 0.713,-0.296 0.39,-0.392 0.39,-1.026 0,-1.419 l -0.771,-0.768 c 0.055,-0.109 0.1,-0.221 0.137,-0.336 h 1.09 c 0.556,0 1.004,-0.45 1.004,-1.004 0,-0.556 -0.448,-1.004 -1.004,-1.004 z m -3.983,2.073 c -0.59,0 -1.071,-0.479 -1.071,-1.069 0,-0.59 0.481,-1.07 1.071,-1.07 0.59,0 1.069,0.479 1.069,1.07 0,0.589 -0.48,1.069 -1.069,1.069 z M 47.059,29.287 C 46.281,27.433 44.461,26.224 42.451,26.224 H 39.897 V 8.629 c 0,-2.761 -2.237,-5 -5,-5 H 5 c -2.762,0 -5,2.239 -5,5 v 30.125 c 0,0.1 0.023,0.191 0.029,0.289 0.008,0.184 0.026,0.365 0.055,0.548 0.017,0.091 0.029,0.181 0.049,0.271 0.064,0.303 0.146,0.604 0.271,0.896 C 1.183,42.611 3,43.82 5.012,43.82 h 30 c 1.344,0 2.633,-0.541 3.571,-1.502 l 7.44,-7.595 c 1.407,-1.438 1.815,-3.58 1.036,-5.436 z M 34.896,8.631 v 17.594 h -6.34 C 28.544,25.13 27.657,24.246 26.558,24.246 H 16.496 c -1.099,0 -1.986,0.885 -1.998,1.979 h -2.049 c -1.345,0 -2.633,0.541 -3.572,1.501 L 5,31.684 V 8.63 Z"
           id="path1410" />
      </g>
      <g
         id="g1414" />
      <g
         id="g1416" />
      <g
         id="g1418" />
      <g
         id="g1420" />
      <g
         id="g1422" />
      <g
         id="g1424" />
      <g
         id="g1426" />
      <g
         id="g1428" />
      <g
         id="g1430" />
      <g
         id="g1432" />
      <g
         id="g1434" />
      <g
         id="g1436" />
      <g
         id="g1438" />
      <g
         id="g1440" />
      <g
         id="g1442" />
    </g>
  </g>
</svg>
