<?xml version="1.0" encoding="UTF-8" standalone="no"?>
<!-- Created with Inkscape (http://www.inkscape.org/) -->

<svg
   xmlns:dc="http://purl.org/dc/elements/1.1/"
   xmlns:cc="http://creativecommons.org/ns#"
   xmlns:rdf="http://www.w3.org/1999/02/22-rdf-syntax-ns#"
   xmlns:svg="http://www.w3.org/2000/svg"
   xmlns="http://www.w3.org/2000/svg"
   xmlns:sodipodi="http://sodipodi.sourceforge.net/DTD/sodipodi-0.dtd"
   xmlns:inkscape="http://www.inkscape.org/namespaces/inkscape"
   width="377.95276"
   height="377.95276"
   viewBox="0 0 100 99.999997"
   version="1.1"
   id="svg6913"
   inkscape:version="0.92.3 (2405546, 2018-03-11)"
   sodipodi:docname="EXCEL.svg">
  <defs
     id="defs6907" />
  <sodipodi:namedview
     id="base"
     pagecolor="#ffffff"
     bordercolor="#666666"
     borderopacity="1.0"
     inkscape:pageopacity="0.0"
     inkscape:pageshadow="2"
     inkscape:zoom="1.8101934"
     inkscape:cx="248.14513"
     inkscape:cy="215.77723"
     inkscape:document-units="mm"
     inkscape:current-layer="layer1"
     showgrid="true"
     units="px"
     showguides="true"
     inkscape:guide-bbox="true"
     inkscape:window-width="1920"
     inkscape:window-height="1017"
     inkscape:window-x="-8"
     inkscape:window-y="-8"
     inkscape:window-maximized="1">
    <sodipodi:guide
       position="49.979401,32.874151"
       orientation="1,0"
       id="guide7481"
       inkscape:locked="false" />
    <sodipodi:guide
       position="84.666665,94.880679"
       orientation="0,1"
       id="guide7483"
       inkscape:locked="false" />
    <sodipodi:guide
       position="80.448127,94.880679"
       orientation="0,1"
       id="guide7485"
       inkscape:locked="false" />
    <sodipodi:guide
       position="95.415221,49.979399"
       orientation="1,0"
       id="guide7487"
       inkscape:locked="false" />
    <sodipodi:guide
       position="14.165285,4.8108513"
       orientation="0,1"
       id="guide7489"
       inkscape:locked="false" />
    <sodipodi:guide
       position="5.3453905,57.462946"
       orientation="1,0"
       id="guide7491"
       inkscape:locked="false" />
    <inkscape:grid
       type="xygrid"
       id="grid7493" />
  </sodipodi:namedview>
  <metadata
     id="metadata6910">
    <rdf:RDF>
      <cc:Work
         rdf:about="">
        <dc:format>image/svg+xml</dc:format>
        <dc:type
           rdf:resource="http://purl.org/dc/dcmitype/StillImage" />
        <dc:title></dc:title>
      </cc:Work>
    </rdf:RDF>
  </metadata>
  <g
     inkscape:label="Layer 1"
     inkscape:groupmode="layer"
     id="layer1"
     transform="translate(0,-197.00002)">
    <g
       id="g5204"
       transform="matrix(0.13751349,0,0,0.14713967,20.118938,212.8788)"
       style="fill:#ffffff;stroke:none;stroke-width:1.86005139;stroke-opacity:0.80392157">
      <g
         id="g5146"
         style="fill:#ffffff;stroke:none;stroke-width:1.86005139;stroke-opacity:0.80392157">
        <g
           id="g5144"
           style="fill:#ffffff;stroke:none;stroke-width:1.86005139;stroke-opacity:0.80392157" />
      </g>
      <g
         id="g5148"
         style="fill:#ffffff;stroke:none;stroke-width:1.86005139;stroke-opacity:0.80392157" />
      <g
         id="g5150"
         style="fill:#ffffff;stroke:none;stroke-width:1.86005139;stroke-opacity:0.80392157" />
      <g
         id="g5152"
         style="fill:#ffffff;stroke:none;stroke-width:1.86005139;stroke-opacity:0.80392157" />
      <g
         id="g5154"
         style="fill:#ffffff;stroke:none;stroke-width:1.86005139;stroke-opacity:0.80392157" />
      <g
         id="g5156"
         style="fill:#ffffff;stroke:none;stroke-width:1.86005139;stroke-opacity:0.80392157" />
      <g
         id="g5158"
         style="fill:#ffffff;stroke:none;stroke-width:1.86005139;stroke-opacity:0.80392157" />
      <g
         id="g5160"
         style="fill:#ffffff;stroke:none;stroke-width:1.86005139;stroke-opacity:0.80392157" />
      <g
         id="g5162"
         style="fill:#ffffff;stroke:none;stroke-width:1.86005139;stroke-opacity:0.80392157" />
      <g
         id="g5164"
         style="fill:#ffffff;stroke:none;stroke-width:1.86005139;stroke-opacity:0.80392157" />
      <g
         id="g5166"
         style="fill:#ffffff;stroke:none;stroke-width:1.86005139;stroke-opacity:0.80392157" />
      <g
         id="g5168"
         style="fill:#ffffff;stroke:none;stroke-width:1.86005139;stroke-opacity:0.80392157" />
      <g
         id="g5170"
         style="fill:#ffffff;stroke:none;stroke-width:1.86005139;stroke-opacity:0.80392157" />
      <g
         id="g5172"
         style="fill:#ffffff;stroke:none;stroke-width:1.86005139;stroke-opacity:0.80392157" />
      <g
         id="g5174"
         style="fill:#ffffff;stroke:none;stroke-width:1.86005139;stroke-opacity:0.80392157" />
      <g
         id="g5176"
         style="fill:#ffffff;stroke:none;stroke-width:1.86005139;stroke-opacity:0.80392157" />
    </g>
    <g
       style="fill:#9db63a;fill-opacity:1;stroke-width:3.23228002"
       id="g5393"
       transform="matrix(0.12751407,0,0,0.12751407,13.482186,213.57289)">
      <path
         id="path5305"
         d="M 496,432.011 H 272 c -8.832,0 -16,-7.168 -16,-16 0,-8.832 0,-311.168 0,-320 0,-8.832 7.168,-16 16,-16 h 224 c 8.832,0 16,7.168 16,16 v 320 c 0,8.832 -7.168,16 -16,16 z"
         style="fill:#eceff1"
         inkscape:connector-curvature="0" />
      <g
         id="g5323">
        <path
           id="path5307"
           d="m 336,176.011 h -64 c -8.832,0 -16,-7.168 -16,-16 0,-8.832 7.168,-16 16,-16 h 64 c 8.832,0 16,7.168 16,16 0,8.832 -7.168,16 -16,16 z"
           style="fill:#388e3c"
           inkscape:connector-curvature="0" />
        <path
           id="path5309"
           d="m 336,240.011 h -64 c -8.832,0 -16,-7.168 -16,-16 0,-8.832 7.168,-16 16,-16 h 64 c 8.832,0 16,7.168 16,16 0,8.832 -7.168,16 -16,16 z"
           style="fill:#388e3c"
           inkscape:connector-curvature="0" />
        <path
           id="path5311"
           d="m 336,304.011 h -64 c -8.832,0 -16,-7.168 -16,-16 0,-8.832 7.168,-16 16,-16 h 64 c 8.832,0 16,7.168 16,16 0,8.832 -7.168,16 -16,16 z"
           style="fill:#388e3c"
           inkscape:connector-curvature="0" />
        <path
           id="path5313"
           d="m 336,368.011 h -64 c -8.832,0 -16,-7.168 -16,-16 0,-8.832 7.168,-16 16,-16 h 64 c 8.832,0 16,7.168 16,16 0,8.832 -7.168,16 -16,16 z"
           style="fill:#388e3c"
           inkscape:connector-curvature="0" />
        <path
           id="path5315"
           d="m 432,176.011 h -32 c -8.832,0 -16,-7.168 -16,-16 0,-8.832 7.168,-16 16,-16 h 32 c 8.832,0 16,7.168 16,16 0,8.832 -7.168,16 -16,16 z"
           style="fill:#388e3c"
           inkscape:connector-curvature="0" />
        <path
           id="path5317"
           d="m 432,240.011 h -32 c -8.832,0 -16,-7.168 -16,-16 0,-8.832 7.168,-16 16,-16 h 32 c 8.832,0 16,7.168 16,16 0,8.832 -7.168,16 -16,16 z"
           style="fill:#388e3c"
           inkscape:connector-curvature="0" />
        <path
           id="path5319"
           d="m 432,304.011 h -32 c -8.832,0 -16,-7.168 -16,-16 0,-8.832 7.168,-16 16,-16 h 32 c 8.832,0 16,7.168 16,16 0,8.832 -7.168,16 -16,16 z"
           style="fill:#388e3c"
           inkscape:connector-curvature="0" />
        <path
           id="path5321"
           d="m 432,368.011 h -32 c -8.832,0 -16,-7.168 -16,-16 0,-8.832 7.168,-16 16,-16 h 32 c 8.832,0 16,7.168 16,16 0,8.832 -7.168,16 -16,16 z"
           style="fill:#388e3c"
           inkscape:connector-curvature="0" />
      </g>
      <path
         id="path5325"
         d="m 282.208,19.691 c -3.648,-3.04 -8.544,-4.352 -13.152,-3.392 l -256,48 C 5.472,65.707 0,72.299 0,80.011 v 352 c 0,7.68 5.472,14.304 13.056,15.712 l 256,48 c 0.96,0.192 1.952,0.288 2.944,0.288 3.712,0 7.328,-1.28 10.208,-3.68 3.68,-3.04 5.792,-7.584 5.792,-12.32 v -448 c 0,-4.768 -2.112,-9.28 -5.792,-12.32 z"
         style="fill:#2e7d32"
         inkscape:connector-curvature="0" />
      <path
         id="path5327"
         d="m 220.032,309.483 -50.592,-57.824 51.168,-65.792 c 5.44,-6.976 4.16,-17.024 -2.784,-22.464 -6.944,-5.44 -16.992,-4.16 -22.464,2.784 l -47.392,60.928 -39.936,-45.632 c -5.856,-6.72 -15.968,-7.328 -22.56,-1.504 -6.656,5.824 -7.328,15.936 -1.504,22.56 l 44,50.304 -44.608,57.344 c -5.44,6.976 -4.16,17.024 2.784,22.464 2.944,2.272 6.432,3.36 9.856,3.36 4.768,0 9.472,-2.112 12.64,-6.176 l 40.8,-52.48 46.528,53.152 c 3.168,3.648 7.584,5.504 12.032,5.504 3.744,0 7.488,-1.312 10.528,-3.968 6.656,-5.824 7.328,-15.936 1.504,-22.56 z"
         style="fill:#fafafa"
         inkscape:connector-curvature="0" />
      <g
         id="g5329" />
      <g
         id="g5331" />
      <g
         id="g5333" />
      <g
         id="g5335" />
      <g
         id="g5337" />
      <g
         id="g5339" />
      <g
         id="g5341" />
      <g
         id="g5343" />
      <g
         id="g5345" />
      <g
         id="g5347" />
      <g
         id="g5349" />
      <g
         id="g5351" />
      <g
         id="g5353" />
      <g
         id="g5355" />
      <g
         id="g5357" />
    </g>
  </g>
</svg>
