<?xml version="1.0" encoding="UTF-8" standalone="no"?>
<!-- Created with Inkscape (http://www.inkscape.org/) -->

<svg
   xmlns:dc="http://purl.org/dc/elements/1.1/"
   xmlns:cc="http://creativecommons.org/ns#"
   xmlns:rdf="http://www.w3.org/1999/02/22-rdf-syntax-ns#"
   xmlns:svg="http://www.w3.org/2000/svg"
   xmlns="http://www.w3.org/2000/svg"
   xmlns:sodipodi="http://sodipodi.sourceforge.net/DTD/sodipodi-0.dtd"
   xmlns:inkscape="http://www.inkscape.org/namespaces/inkscape"
   width="30mm"
   height="38mm"
   viewBox="0 0 30 38"
   version="1.1"
   id="svg4556"
   inkscape:version="0.92.1 r15371"
   sodipodi:docname="lms3.svg">
  <defs
     id="defs4550" />
  <sodipodi:namedview
     id="base"
     pagecolor="#ffffff"
     bordercolor="#666666"
     borderopacity="1.0"
     inkscape:pageopacity="0.0"
     inkscape:pageshadow="2"
     inkscape:zoom="1.979899"
     inkscape:cx="108.20205"
     inkscape:cy="90.950559"
     inkscape:document-units="mm"
     inkscape:current-layer="layer1"
     showgrid="false"
     inkscape:window-width="1920"
     inkscape:window-height="1027"
     inkscape:window-x="-8"
     inkscape:window-y="-8"
     inkscape:window-maximized="1" />
  <metadata
     id="metadata4553">
    <rdf:RDF>
      <cc:Work
         rdf:about="">
        <dc:format>image/svg+xml</dc:format>
        <dc:type
           rdf:resource="http://purl.org/dc/dcmitype/StillImage" />
        <dc:title></dc:title>
      </cc:Work>
    </rdf:RDF>
  </metadata>
  <g
     inkscape:label="Layer 1"
     inkscape:groupmode="layer"
     id="layer1"
     transform="translate(0,-259)">
    <path
       style="fill:#9db63a;fill-opacity:1;stroke-width:0.06088181"
       d="m 85.618415,299.58587 c -0.311897,-0.19697 -0.557268,-0.49642 -0.738579,-0.90137 -0.08776,-0.19599 -0.332005,-1.49573 -0.779069,-4.14565 -0.358175,-2.12308 -0.712706,-4.04541 -0.787851,-4.27182 -0.102227,-0.30804 -0.187596,-0.45034 -0.339073,-0.56527 -0.358083,-2.63763 -2.147568,-10.49183 -1.245928,-12.32252 0.334965,-0.67527 0.867759,-1.18779 1.594708,-1.53399 0.31406,-0.14956 0.816587,-0.3462 1.11672,-0.43695 0.545647,-0.16498 0.545964,-0.16501 2.802715,-0.18665 2.462929,-0.0236 2.838752,0.009 3.73434,0.32719 1.117356,0.39658 1.812023,0.93766 2.234254,1.74027 0.460752,0.87581 0.445037,0.70328 0.445037,4.88517 0,3.3652 0.474034,4.49439 0.375469,4.9829 0.123547,1.39671 -0.320941,1.30435 -0.533859,1.7726 -0.241904,0.532 -1.310491,0.68846 -1.484634,0.76737 -0.157929,0.0716 -0.336665,0.48059 -0.480315,1.09914 -0.04665,0.20073 -0.359395,2.00326 -0.695059,4.00569 -0.664827,3.966 -0.687445,4.05451 -1.155495,4.52008 -0.430024,0.42778 -0.462121,0.43403 -2.223208,0.43403 h -1.570605 z"
       id="path7546"
       inkscape:connector-curvature="0"
       sodipodi:nodetypes="cccccccccccsccccccscc" />
    <circle
       style="opacity:1;vector-effect:none;fill:#9db63a;fill-opacity:1;fill-rule:nonzero;stroke:none;stroke-width:0.26499999;stroke-linecap:butt;stroke-linejoin:miter;stroke-miterlimit:4;stroke-dasharray:none;stroke-dashoffset:0;stroke-opacity:1;paint-order:markers fill stroke"
       id="path6526"
       cx="87.306686"
       cy="269.46747"
       r="4.8773055" />
    <path
       style="opacity:1;vector-effect:none;fill:#4d4d4d;fill-opacity:1;fill-rule:nonzero;stroke:none;stroke-width:0.26499999;stroke-linecap:butt;stroke-linejoin:miter;stroke-miterlimit:4;stroke-dasharray:none;stroke-dashoffset:0;stroke-opacity:1;paint-order:markers fill stroke"
       d="m 96.37887,298.4359 a 0.7810418,0.7810418 0 0 0 -0.780929,0.78109 0.7810418,0.7810418 0 0 0 0.780929,0.78092 0.7810418,0.7810418 0 0 0 0.781089,-0.78092 0.7810418,0.7810418 0 0 0 -0.781089,-0.78109 z m 0,0.37777 a 0.40328302,0.40328302 0 0 1 0.403338,0.40332 0.40328302,0.40328302 0 0 1 -0.403338,0.40318 0.40328302,0.40328302 0 0 1 -0.403176,-0.40318 0.40328302,0.40328302 0 0 1 0.403176,-0.40332 z"
       id="path6545"
       inkscape:connector-curvature="0" />
    <rect
       transform="matrix(0.84738504,-0.5309789,0.29634252,0.95508173,0,0)"
       ry="0.22451198"
       y="303.37726"
       x="4.2223649"
       height="2.6415956"
       width="0.66440952"
       id="rect6550"
       style="opacity:1;vector-effect:none;fill:#4d4d4d;fill-opacity:1;fill-rule:nonzero;stroke:none;stroke-width:0.26952925;stroke-linecap:butt;stroke-linejoin:miter;stroke-miterlimit:4;stroke-dasharray:none;stroke-dashoffset:0;stroke-opacity:1;paint-order:markers fill stroke" />
    <path
       style="opacity:1;vector-effect:none;fill:#4d4d4d;fill-opacity:1;fill-rule:nonzero;stroke:none;stroke-width:0.26499999;stroke-linecap:butt;stroke-linejoin:miter;stroke-miterlimit:4;stroke-dasharray:none;stroke-dashoffset:0;stroke-opacity:1;paint-order:markers fill stroke"
       d="m 101.85367,289.27817 c -0.0736,-0.27475 -0.35406,-0.43725 -0.62885,-0.36359 l -0.82215,0.22031 c -0.27475,0.0736 -0.43643,0.35455 -0.36281,0.62929 0.0736,0.27474 0.35392,0.4366 0.62867,0.36298 l 0.82216,-0.22029 c 0.27474,-0.0736 0.43659,-0.35394 0.36298,-0.6287 z m 1.48058,5.52559 c -0.0736,-0.27475 -0.35392,-0.4366 -0.6287,-0.36296 l -0.82215,0.22029 c -0.27474,0.0736 -0.43659,0.35395 -0.36298,0.6287 0.0736,0.27474 0.35405,0.43724 0.62886,0.36356 l 0.82216,-0.22028 c 0.27475,-0.0736 0.43642,-0.35456 0.36281,-0.62931 z m -2.7309,-6.75306 c -0.0736,-0.27474 -0.35406,-0.43724 -0.628846,-0.36358 l -5.821633,1.5599 c -0.274753,0.0736 -0.43643,0.35455 -0.362819,0.62929 l 1.132457,4.22639 1.132455,4.22638 c 0.07361,0.27474 0.353921,0.4366 0.628696,0.36296 l 5.82163,-1.5599 c 0.27475,-0.0736 0.43659,-0.35395 0.36298,-0.62869 l -0.17423,-0.65021 -0.58119,0.15573 c -0.44216,0.11849 -0.89328,-0.14192 -1.01175,-0.58412 -0.11846,-0.44217 0.14181,-0.89386 0.58397,-1.01234 l 0.5812,-0.15573 -0.53046,-1.97971 -0.53063,-1.9803 -0.58119,0.15574 c -0.44215,0.1185 -0.893278,-0.14192 -1.011733,-0.58413 -0.118462,-0.44217 0.141958,-0.89327 0.584133,-1.01175 l 0.58119,-0.15573 z m -1.549755,3.02375 0.170169,0.63507 0.17,0.63448 -0.475851,0.12749 -0.476461,0.12767 -0.170004,-0.63446 -0.170169,-0.63508 0.476448,-0.12766 z m 0.510346,1.90462 0.170003,0.63448 0.170169,0.63508 -0.475855,0.12748 -0.476451,0.12768 -0.170173,-0.63508 -0.170009,-0.63447 0.476462,-0.12766 z m 0.510179,1.90401 0.17017,0.63508 0.17,0.63448 -0.475852,0.1275 -0.476462,0.12768 -0.169996,-0.63449 -0.17017,-0.63507 0.476442,-0.12766 z m -2.800253,-5.37248 0.17,0.63447 0.170171,0.63508 -0.476464,0.12767 -0.475841,0.1275 -0.170157,-0.63508 -0.170013,-0.63448 0.475852,-0.12751 z m 0.510175,1.90402 0.170169,0.63507 0.170009,0.63448 -0.476454,0.12767 -0.475848,0.12749 -0.170016,-0.63446 -0.17016,-0.63508 0.475851,-0.12751 z m 0.510349,1.90462 0.17,0.63448 0.170172,0.63507 -0.476461,0.12767 -0.475852,0.12751 -0.170159,-0.63507 -0.170013,-0.63448 0.475842,-0.1275 z m 0.510175,1.90403 0.170169,0.63508 0.170013,0.63445 -0.47646,0.12767 -0.475852,0.12751 -0.170007,-0.63447 -0.170169,-0.63508 0.475845,-0.1275 z m -2.800256,-5.37249 0.170012,0.63446 0.170171,0.63508 -0.476453,0.12767 -0.475863,0.12751 -0.17017,-0.63509 -0.170003,-0.63446 0.475858,-0.12751 z m 0.510182,1.90402 0.170173,0.63508 0.170006,0.63446 -0.476452,0.12766 -0.475858,0.12751 -0.170002,-0.63447 -0.170171,-0.63508 0.475856,-0.1275 z m 0.510348,1.90462 0.170007,0.63447 0.170172,0.63507 -0.476461,0.12767 -0.475854,0.12751 -0.170173,-0.63507 -0.169999,-0.63448 0.475857,-0.12751 z m 0.510179,1.90402 0.170173,0.63507 0.169999,0.63448 -0.47645,0.12767 -0.475856,0.12749 -0.169999,-0.63447 -0.170172,-0.63506 0.475854,-0.12751 z"
       id="rect6512"
       inkscape:connector-curvature="0" />
    <path
       style="fill:#9db63a;stroke-width:1;fill-opacity:1"
       d="m 11.373599,296.42435 c -0.284082,-0.11304 -0.676849,-0.48946 -0.843373,-0.80845 -0.168329,-0.32244 -0.170812,-1.00171 -0.0049,-1.33431 0.07024,-0.14074 0.907784,-1.22933 1.861186,-2.41892 l 1.733466,-2.16288 0.509189,-1.75982 c 0.280051,-0.96788 0.53581,-1.7598 0.56835,-1.7598 0.07438,0 2.34647,4.64875 2.345692,4.79933 -9.86e-4,0.21695 -0.35473,0.63629 -2.47893,2.93983 -2.263759,2.45488 -2.45039,2.60879 -3.149289,2.59691 -0.17828,-0.002 -0.421899,-0.0443 -0.541391,-0.0919 z m 10.449356,-0.086 c -0.203595,-0.10073 -0.441676,-0.28652 -0.529049,-0.41273 -0.266541,-0.38503 -6.093692,-11.97766 -6.332535,-12.59802 -0.342491,-0.88962 -0.315499,-1.60023 0.138684,-3.65094 0.204681,-0.92418 0.359196,-1.69275 0.343365,-1.70791 -0.01584,-0.0144 -0.96735,0.83354 -2.11448,1.88603 -1.147131,1.05248 -2.257208,2.06529 -2.466835,2.25067 l -0.381141,0.33707 c -0.6693124,0.0471 -0.8676588,-0.0416 -1.2860029,-0.48926 l -0.1787924,-0.36138 c -0.1396489,-0.28223 -0.1650676,-0.44272 -0.1161382,-0.73288 0.073117,-0.43359 0.1903427,-0.55984 5.2892655,-5.69651 3.723108,-3.75068 3.674267,-3.71414 4.962221,-3.71129 0.650761,0.001 0.855122,0.0373 1.216654,0.2141 0.791231,0.38669 1.113683,0.82661 2.586312,3.52839 l 1.369654,2.51286 1.923032,0.90849 c 2.032265,0.96011 2.175804,1.06654 2.296084,1.7027 0.0685,0.36235 -0.1831,0.95482 -0.501899,1.18182 -0.544374,0.38764 -0.780222,0.34234 -3.241079,-0.6224 -1.242727,-0.48718 -2.350301,-0.96938 -2.461273,-1.07154 -0.110969,-0.10217 -0.384721,-0.50844 -0.608325,-0.90285 -0.223611,-0.39441 -0.426511,-0.71736 -0.450896,-0.71767 -0.04085,-6.6e-4 -1.396509,5.77956 -1.391707,5.93375 0.0013,0.0376 0.936044,2.38396 2.077501,5.21424 1.141457,2.83025 2.100683,5.25494 2.13162,5.38817 0.131197,0.56501 -0.366534,1.43226 -0.96567,1.68259 -0.404098,0.16885 -0.88296,0.14464 -1.30856,-0.0661 z m -1.028379,-25.62511 c -1.51018,-0.31926 -2.48238,-1.51827 -2.48238,-3.06148 0,-0.54313 0.04431,-0.77206 0.22648,-1.16996 0.326086,-0.71228 0.740554,-1.17359 1.342768,-1.49458 1.291552,-0.68837 2.694965,-0.47462 3.716125,0.56601 0.835586,0.85153 1.084927,2.13714 0.637878,3.28892 -0.506581,1.30517 -2.077365,2.15933 -3.440871,1.87109 z"
       id="path7801"
       inkscape:connector-curvature="0"
       sodipodi:nodetypes="ccccccscscccccccccccccccccscccccccccccccccsccccc" />
    <path
       inkscape:connector-curvature="0"
       id="path7803"
       d="m 4.529117,296.35355 c -0.736496,-0.46248 -0.833727,-1.37907 -0.215076,-2.02754 0.923209,-0.9677 2.545034,0.11899 2.06266,1.38202 -0.187225,0.49024 -0.554335,0.74902 -1.121869,0.79079 -0.336017,0.0248 -0.510633,-0.0102 -0.725715,-0.14525 z m 5.951847,-13.91103 -1.365633,6.32264 -1.365636,6.32265 -0.317196,0.0269 c -0.272523,0.0232 -0.317194,10e-4 -0.317194,-0.15489 0,-0.28016 -0.244528,-0.80129 -0.504307,-1.07478 -0.952194,-1.00245 -2.579254,-0.74683 -3.189826,0.50113 -0.130314,0.26637 -0.277049,0.48431 -0.326065,0.48431 -0.04901,0 -0.274351,-0.18587 -0.500744,-0.41281 -0.334012,-0.33496 -0.432493,-0.50655 -0.522303,-0.91009 -0.123545,-0.55513 -0.173315,-0.29001 0.841307,-4.48188 0.541812,-2.23848 0.706768,-2.60339 1.399248,-3.09535 0.684393,-0.48622 1.044115,-0.56479 2.603807,-0.56879 l 1.408841,-0.004 0.08578,-0.32591 c 0.04716,-0.1793 0.242854,-0.95419 0.434846,-1.72215 l 0.349078,-1.39624 c 0.06998,-0.33521 1.204483,-1.08271 1.285997,0.48926 z"
       style="fill:#4d4d4d;stroke-width:1;fill-opacity:1"
       sodipodi:nodetypes="ccccccccccsscsccsccccccc" />
  </g>
</svg>
