<?xml version="1.0" encoding="UTF-8" standalone="no"?>
<!-- Created with Inkscape (http://www.inkscape.org/) -->

<svg
   xmlns:dc="http://purl.org/dc/elements/1.1/"
   xmlns:cc="http://creativecommons.org/ns#"
   xmlns:rdf="http://www.w3.org/1999/02/22-rdf-syntax-ns#"
   xmlns:svg="http://www.w3.org/2000/svg"
   xmlns="http://www.w3.org/2000/svg"
   xmlns:sodipodi="http://sodipodi.sourceforge.net/DTD/sodipodi-0.dtd"
   xmlns:inkscape="http://www.inkscape.org/namespaces/inkscape"
   width="83.969002mm"
   height="25.902mm"
   viewBox="0 0 83.969002 25.902"
   version="1.1"
   id="svg23291"
   inkscape:version="0.92.1 r15371"
   sodipodi:docname="meriytics-logo-vector.svg">
  <defs
     id="defs23285" />
  <sodipodi:namedview
     id="base"
     pagecolor="#ffffff"
     bordercolor="#666666"
     borderopacity="1.0"
     inkscape:pageopacity="0.0"
     inkscape:pageshadow="2"
     inkscape:zoom="0.49497475"
     inkscape:cx="188.14006"
     inkscape:cy="445.95002"
     inkscape:document-units="mm"
     inkscape:current-layer="layer1"
     showgrid="false"
     inkscape:window-width="1920"
     inkscape:window-height="1017"
     inkscape:window-x="-8"
     inkscape:window-y="-8"
     inkscape:window-maximized="1" />
  <metadata
     id="metadata23288">
    <rdf:RDF>
      <cc:Work
         rdf:about="">
        <dc:format>image/svg+xml</dc:format>
        <dc:type
           rdf:resource="http://purl.org/dc/dcmitype/StillImage" />
        <dc:title></dc:title>
      </cc:Work>
    </rdf:RDF>
  </metadata>
  <g
     inkscape:label="Layer 1"
     inkscape:groupmode="layer"
     id="layer1"
     transform="translate(0,-271.098)">
    <g
       transform="matrix(0.41123394,0,0,0.41123394,-159.98045,238.67477)"
       id="g23886">
      <g
         aria-label="merilytics"
         style="font-style:normal;font-variant:normal;font-weight:normal;font-stretch:normal;font-size:41.71671677px;line-height:1.25;font-family:Bahamas;-inkscape-font-specification:'Bahamas, Normal';font-variant-ligatures:normal;font-variant-caps:normal;font-variant-numeric:normal;font-feature-settings:normal;text-align:start;letter-spacing:0px;word-spacing:0px;writing-mode:lr-tb;text-anchor:start;fill:#3b3386;fill-opacity:1;stroke:none;stroke-width:1.73819649"
         id="g23884">
        <path
           inkscape:connector-curvature="0"
           d="m 409.23241,120.5564 v -13.76978 q 0.0407,-1.73141 0.95737,-3.27949 0.937,-1.54808 2.64803,-2.46471 1.71104,-0.93699 3.91095,-0.93699 1.99621,0.0611 3.32022,0.89626 1.32402,0.81478 2.17954,1.95547 0.85552,-1.24254 2.4036,-2.03695 1.56845,-0.81478 3.64614,-0.81478 1.87399,0 3.48318,0.91662 1.60919,0.89626 2.56656,2.44434 0.95736,1.54809 0.95736,3.32023 v 13.76978 h -3.66651 v -12.64946 q 0,-0.9981 -0.34628,-1.9351 -0.32591,-0.95736 -1.14069,-1.62956 -0.81478,-0.69256 -2.09806,-0.71293 -2.11842,0 -3.03505,1.26291 -0.89626,1.24254 -0.89626,3.01468 v 12.64946 h -3.74798 v -12.38465 q 0,-1.32402 -0.40739,-2.36286 -0.40739,-1.05922 -1.24254,-1.60919 -0.83515,-0.57035 -2.05732,-0.57035 -2.24065,0.0611 -2.99432,1.38513 -0.75367,1.30364 -0.75367,3.4017 v 12.14022 z"
           style="font-style:normal;font-variant:normal;font-weight:normal;font-stretch:normal;font-size:41.71671677px;font-family:Bahamas;-inkscape-font-specification:'Bahamas, Normal';font-variant-ligatures:normal;font-variant-caps:normal;font-variant-numeric:normal;font-feature-settings:normal;text-align:start;writing-mode:lr-tb;text-anchor:start;fill:#383085;fill-opacity:1;stroke-width:1.73819649"
           id="path23864" />
        <path
           inkscape:connector-curvature="0"
           d="m 443.59575,111.00311 9.98105,-5.49977 q -0.79441,-0.85552 -1.77215,-1.36475 -0.95737,-0.50924 -2.91284,-0.50924 -1.44623,0 -2.64803,0.54998 -1.2018,0.54997 -2.05732,1.56845 -0.83515,0.9981 -1.28328,2.32212 -0.42776,1.32402 -0.42776,2.81099 0.10185,1.75177 0.87589,3.23875 0.77404,1.4666 2.24065,2.4036 1.4666,0.93699 3.46281,0.93699 3.05542,-0.0611 4.5424,-1.60919 1.50734,-1.54808 2.13879,-4.68498 l 3.66651,0.50924 q -0.0407,1.9351 -1.26291,4.13501 -1.22217,2.17953 -3.62577,3.68687 -2.38323,1.50735 -5.70345,1.56845 -2.64804,0 -5.0109,-1.36475 -2.34249,-1.38513 -3.76836,-3.70725 -1.40549,-2.34249 -1.40549,-4.99052 0,-3.58503 1.54808,-6.04974 1.56845,-2.46471 3.95168,-3.64614 2.38323,-1.2018 4.76646,-1.2018 2.28139,0 4.09427,0.71293 1.81289,0.69256 3.19801,2.09806 1.4055,1.40549 2.52582,3.54429 l -13.52534,7.49597 z"
           style="font-style:normal;font-variant:normal;font-weight:normal;font-stretch:normal;font-size:41.71671677px;font-family:Bahamas;-inkscape-font-specification:'Bahamas, Normal';font-variant-ligatures:normal;font-variant-caps:normal;font-variant-numeric:normal;font-feature-settings:normal;text-align:start;writing-mode:lr-tb;text-anchor:start;fill:#383085;fill-opacity:1;stroke-width:1.73819649"
           id="path23866" />
        <path
           inkscape:connector-curvature="0"
           d="m 462.43752,100.53319 h 3.50356 v 2.34249 q 0.44812,-0.77404 1.2018,-1.4055 0.75367,-0.63145 1.75177,-0.9981 0.99811,-0.36665 2.26102,-0.36665 h 1.12032 v 3.52392 h -0.87589 q -2.83136,0 -4.03316,2.03695 -1.18143,2.03695 -1.26291,4.37944 v 10.51066 h -3.66651 z"
           style="fill:#383085;fill-opacity:1"
           id="path23868" />
        <path
           inkscape:connector-curvature="0"
           d="m 475.71843,95.950052 q 0.0611,-0.896258 0.69256,-1.507342 0.65183,-0.631455 1.52771,-0.631455 0.87589,0 1.50735,0.651824 0.65182,0.631454 0.65182,1.568451 0,0.672193 -0.28517,1.18143 -0.26481,0.488868 -0.75367,0.753671 -0.48887,0.264804 -1.03885,0.264804 -0.93699,0 -1.62956,-0.631454 -0.67219,-0.631455 -0.67219,-1.649929 z m 0.34628,24.606348 v -20.02321 h 3.66651 v 20.02321 z"
           style="font-style:normal;font-variant:normal;font-weight:normal;font-stretch:normal;font-size:41.71671677px;font-family:Bahamas;-inkscape-font-specification:'Bahamas, Normal';font-variant-ligatures:normal;font-variant-caps:normal;font-variant-numeric:normal;font-feature-settings:normal;text-align:start;writing-mode:lr-tb;text-anchor:start;fill:#383085;fill-opacity:1;stroke-width:1.73819649"
           id="path23870" />
        <path
           inkscape:connector-curvature="0"
           d="m 486.45316,91.305808 h 3.66651 V 120.5564 h -3.66651 z"
           style="font-style:normal;font-variant:normal;font-weight:normal;font-stretch:normal;font-size:41.71671677px;font-family:Bahamas;-inkscape-font-specification:'Bahamas, Normal';font-variant-ligatures:normal;font-variant-caps:normal;font-variant-numeric:normal;font-feature-settings:normal;text-align:start;writing-mode:lr-tb;text-anchor:start;fill:#95af28;fill-opacity:1;stroke-width:1.73819649"
           id="path23872" />
        <path
           inkscape:connector-curvature="0"
           d="m 495.11019,100.45171 h 3.68688 v 11.97726 q 0,4.74609 4.62387,4.94979 2.22027,0 3.42207,-1.4055 1.2018,-1.40549 1.2018,-3.46281 v -12.05874 h 3.76836 v 11.97726 q 0,3.01468 -1.60919,5.31644 -1.58882,2.28138 -4.90905,3.1369 v 8.55518 h -3.74798 v -8.55518 q -2.89247,-0.81478 -4.56277,-2.62767 -1.6703,-1.83325 -1.87399,-4.8683 z"
           style="font-style:normal;font-variant:normal;font-weight:normal;font-stretch:normal;font-size:41.71671677px;font-family:Bahamas;-inkscape-font-specification:'Bahamas, Normal';font-variant-ligatures:normal;font-variant-caps:normal;font-variant-numeric:normal;font-feature-settings:normal;text-align:start;writing-mode:lr-tb;text-anchor:start;fill:#95af28;fill-opacity:1;stroke-width:1.73819649"
           id="path23874" />
        <path
           inkscape:connector-curvature="0"
           d="M 516.31483,114.30296 V 95.440815 h 3.62577 v 5.092375 h 7.17006 v 3.50355 h -7.17006 v 10.97916 q 0,0.83514 0.65182,1.44623 0.6722,0.59071 1.97584,0.59071 h 4.5424 v 3.50356 h -4.62388 q -3.15727,0 -4.66461,-1.77215 -1.50734,-1.77214 -1.50734,-4.48129 z"
           style="font-style:normal;font-variant:normal;font-weight:normal;font-stretch:normal;font-size:41.71671677px;font-family:Bahamas;-inkscape-font-specification:'Bahamas, Normal';font-variant-ligatures:normal;font-variant-caps:normal;font-variant-numeric:normal;font-feature-settings:normal;text-align:start;writing-mode:lr-tb;text-anchor:start;fill:#95af28;fill-opacity:1;stroke-width:1.73819649"
           id="path23876" />
        <path
           inkscape:connector-curvature="0"
           d="m 531.2864,95.950052 q 0.0611,-0.896258 0.69256,-1.507342 0.65183,-0.631455 1.52772,-0.631455 0.87588,0 1.50734,0.651824 0.65182,0.631454 0.65182,1.568451 0,0.672193 -0.28517,1.18143 -0.26481,0.488868 -0.75367,0.753671 -0.48887,0.264804 -1.03885,0.264804 -0.93699,0 -1.62956,-0.631454 -0.67219,-0.631455 -0.67219,-1.649929 z m 0.34628,24.606348 v -20.02321 h 3.66651 v 20.02321 z"
           style="font-style:normal;font-variant:normal;font-weight:normal;font-stretch:normal;font-size:41.71671677px;font-family:Bahamas;-inkscape-font-specification:'Bahamas, Normal';font-variant-ligatures:normal;font-variant-caps:normal;font-variant-numeric:normal;font-feature-settings:normal;text-align:start;writing-mode:lr-tb;text-anchor:start;fill:#95af28;fill-opacity:1;stroke-width:1.73819649"
           id="path23878" />
        <path
           inkscape:connector-curvature="0"
           d="m 541.06376,110.63645 q 0.10184,-2.58692 1.2629,-4.84793 1.16106,-2.28139 3.36097,-3.66651 2.22027,-1.4055 5.29607,-1.58882 h 3.68688 v 3.50355 h -3.17765 q -1.34438,0 -2.85172,0.69256 -1.48698,0.6722 -2.56656,2.19991 -1.07958,1.52771 -1.07958,3.78872 0,1.44624 0.75367,2.91284 0.75367,1.4666 2.26101,2.44434 1.52771,0.97773 3.64614,0.97773 h 3.01469 v 3.50356 h -3.68688 q -3.1369,-0.14259 -5.41829,-1.69067 -2.26101,-1.54808 -3.38133,-3.78873 -1.12032,-2.24064 -1.12032,-4.44055 z"
           style="font-style:normal;font-variant:normal;font-weight:normal;font-stretch:normal;font-size:41.71671677px;font-family:Bahamas;-inkscape-font-specification:'Bahamas, Normal';font-variant-ligatures:normal;font-variant-caps:normal;font-variant-numeric:normal;font-feature-settings:normal;text-align:start;writing-mode:lr-tb;text-anchor:start;fill:#95af28;fill-opacity:1;stroke-width:1.73819649"
           id="path23880" />
        <path
           inkscape:connector-curvature="0"
           d="m 556.68715,117.13432 h 10.06253 q 0.12222,0 0.28517,0.0815 0.97774,-0.10185 1.64993,-0.42776 0.67219,-0.34628 0.7333,-1.36476 0,-0.75367 -0.54997,-1.2629 -0.54998,-0.52961 -1.48698,-0.91663 -0.93699,-0.40739 -2.34249,-0.79441 -1.38512,-0.40739 -2.62766,-0.77404 -2.89247,-0.97774 -4.27759,-2.24065 -1.38513,-1.2629 -1.44624,-3.48318 0,-2.03695 1.01848,-3.23875 1.03884,-1.22217 2.56655,-1.6703 1.54808,-0.46849 3.25912,-0.46849 h 8.63666 v 3.50355 h -9.34959 q -1.05922,0 -1.6703,0.4685 -0.61108,0.4685 -0.61108,1.32401 0.0611,0.6722 0.63145,1.1407 0.57035,0.46849 1.42586,0.81477 0.85552,0.32592 1.79252,0.57035 0.937,0.22406 2.1999,0.52961 3.44245,0.95736 5.0109,2.50544 1.56845,1.52772 1.56845,3.91095 -0.36665,5.21459 -6.49787,5.21459 h -1.26291 -8.71814 z"
           style="font-style:normal;font-variant:normal;font-weight:normal;font-stretch:normal;font-size:41.71671677px;font-family:Bahamas;-inkscape-font-specification:'Bahamas, Normal';font-variant-ligatures:normal;font-variant-caps:normal;font-variant-numeric:normal;font-feature-settings:normal;text-align:start;writing-mode:lr-tb;text-anchor:start;fill:#95af28;fill-opacity:1;stroke-width:1.73819649"
           id="path23882" />
      </g>
    </g>
  </g>
</svg>
