<?xml version="1.0" encoding="UTF-8" standalone="no"?>
<!-- Created with Inkscape (http://www.inkscape.org/) -->

<svg
   xmlns:dc="http://purl.org/dc/elements/1.1/"
   xmlns:cc="http://creativecommons.org/ns#"
   xmlns:rdf="http://www.w3.org/1999/02/22-rdf-syntax-ns#"
   xmlns:svg="http://www.w3.org/2000/svg"
   xmlns="http://www.w3.org/2000/svg"
   xmlns:sodipodi="http://sodipodi.sourceforge.net/DTD/sodipodi-0.dtd"
   xmlns:inkscape="http://www.inkscape.org/namespaces/inkscape"
   width="377.95276"
   height="377.95276"
   viewBox="0 0 100 99.999997"
   version="1.1"
   id="svg6913"
   inkscape:version="0.92.3 (2405546, 2018-03-11)"
   sodipodi:docname="recentlyjoined.svg">
  <defs
     id="defs6907" />
  <sodipodi:namedview
     id="base"
     pagecolor="#ffffff"
     bordercolor="#666666"
     borderopacity="1.0"
     inkscape:pageopacity="0.0"
     inkscape:pageshadow="2"
     inkscape:zoom="0.64000001"
     inkscape:cx="822.15578"
     inkscape:cy="188.78557"
     inkscape:document-units="mm"
     inkscape:current-layer="layer1"
     showgrid="true"
     units="px"
     showguides="true"
     inkscape:guide-bbox="true"
     inkscape:window-width="1920"
     inkscape:window-height="1017"
     inkscape:window-x="-8"
     inkscape:window-y="-8"
     inkscape:window-maximized="1">
    <sodipodi:guide
       position="49.979401,32.874151"
       orientation="1,0"
       id="guide7481"
       inkscape:locked="false" />
    <sodipodi:guide
       position="84.666665,94.880679"
       orientation="0,1"
       id="guide7483"
       inkscape:locked="false" />
    <sodipodi:guide
       position="80.448127,94.880679"
       orientation="0,1"
       id="guide7485"
       inkscape:locked="false" />
    <sodipodi:guide
       position="95.415221,49.979399"
       orientation="1,0"
       id="guide7487"
       inkscape:locked="false" />
    <sodipodi:guide
       position="14.165285,4.8108513"
       orientation="0,1"
       id="guide7489"
       inkscape:locked="false" />
    <sodipodi:guide
       position="5.3453905,57.462946"
       orientation="1,0"
       id="guide7491"
       inkscape:locked="false" />
    <inkscape:grid
       type="xygrid"
       id="grid7493" />
  </sodipodi:namedview>
  <metadata
     id="metadata6910">
    <rdf:RDF>
      <cc:Work
         rdf:about="">
        <dc:format>image/svg+xml</dc:format>
        <dc:type
           rdf:resource="http://purl.org/dc/dcmitype/StillImage" />
        <dc:title></dc:title>
      </cc:Work>
    </rdf:RDF>
  </metadata>
  <g
     inkscape:label="Layer 1"
     inkscape:groupmode="layer"
     id="layer1"
     transform="translate(0,-197.00002)">
    <g
       id="g5204"
       transform="matrix(0.13751349,0,0,0.14713967,20.118938,212.8788)"
       style="fill:#ffffff;stroke:none;stroke-width:1.86005139;stroke-opacity:0.80392157">
      <g
         id="g5146"
         style="fill:#ffffff;stroke:none;stroke-width:1.86005139;stroke-opacity:0.80392157">
        <g
           id="g5144"
           style="fill:#ffffff;stroke:none;stroke-width:1.86005139;stroke-opacity:0.80392157" />
      </g>
      <g
         id="g5148"
         style="fill:#ffffff;stroke:none;stroke-width:1.86005139;stroke-opacity:0.80392157" />
      <g
         id="g5150"
         style="fill:#ffffff;stroke:none;stroke-width:1.86005139;stroke-opacity:0.80392157" />
      <g
         id="g5152"
         style="fill:#ffffff;stroke:none;stroke-width:1.86005139;stroke-opacity:0.80392157" />
      <g
         id="g5154"
         style="fill:#ffffff;stroke:none;stroke-width:1.86005139;stroke-opacity:0.80392157" />
      <g
         id="g5156"
         style="fill:#ffffff;stroke:none;stroke-width:1.86005139;stroke-opacity:0.80392157" />
      <g
         id="g5158"
         style="fill:#ffffff;stroke:none;stroke-width:1.86005139;stroke-opacity:0.80392157" />
      <g
         id="g5160"
         style="fill:#ffffff;stroke:none;stroke-width:1.86005139;stroke-opacity:0.80392157" />
      <g
         id="g5162"
         style="fill:#ffffff;stroke:none;stroke-width:1.86005139;stroke-opacity:0.80392157" />
      <g
         id="g5164"
         style="fill:#ffffff;stroke:none;stroke-width:1.86005139;stroke-opacity:0.80392157" />
      <g
         id="g5166"
         style="fill:#ffffff;stroke:none;stroke-width:1.86005139;stroke-opacity:0.80392157" />
      <g
         id="g5168"
         style="fill:#ffffff;stroke:none;stroke-width:1.86005139;stroke-opacity:0.80392157" />
      <g
         id="g5170"
         style="fill:#ffffff;stroke:none;stroke-width:1.86005139;stroke-opacity:0.80392157" />
      <g
         id="g5172"
         style="fill:#ffffff;stroke:none;stroke-width:1.86005139;stroke-opacity:0.80392157" />
      <g
         id="g5174"
         style="fill:#ffffff;stroke:none;stroke-width:1.86005139;stroke-opacity:0.80392157" />
      <g
         id="g5176"
         style="fill:#ffffff;stroke:none;stroke-width:1.86005139;stroke-opacity:0.80392157" />
    </g>
    <path
       style="fill:#000000;stroke-width:4.11226845"
       d="m 42.639887,288.19822 c -8.444048,-0.61611 -10.949818,-0.86868 -14.773448,-1.48988 -11.057141,-1.79628 -17.0379,-4.41991 -18.6004891,-8.15957 -1.6424361,-3.93095 1.5173921,-7.69274 8.3445801,-9.934 4.398111,-1.44382 15.809081,-3.53713 16.39775,-3.00809 0.127893,0.1151 0.194513,1.58447 0.147636,3.2656 l -0.08477,3.05669 -3.841145,0.53994 c -4.629515,0.65027 -10.239137,2.02953 -12.64276,3.10821 -1.721272,0.77246 -1.746483,0.80063 -1.150653,1.28315 0.335147,0.27142 1.913642,0.90528 3.50797,1.40883 15.118217,4.77472 45.659215,4.7806 60.74635,0.0123 1.589676,-0.50252 3.168293,-1.13864 3.50797,-1.41376 0.606926,-0.49133 0.587853,-0.51365 -1.142224,-1.28989 -2.40366,-1.07869 -8.013283,-2.45782 -12.642834,-3.10822 l -3.841071,-0.53994 -0.08465,-3.05664 c -0.04604,-1.68123 0.02058,-3.15078 0.147624,-3.26568 0.31253,-0.28128 8.886116,0.98983 12.084187,1.79097 5.550164,1.39044 8.520667,2.6518 10.641282,4.51848 3.588244,3.15839 3.221918,7.07536 -0.93049,9.95062 -3.696345,2.55947 -12.188757,4.71447 -22.744371,5.77152 -4.163515,0.41712 -19.799103,0.79684 -23.046634,0.56031 z m -1.920511,-24.05899 v -7.68222 h -3.250211 -3.250173 v -10.47806 c 0,-10.004 0.02472,-10.55504 0.636496,-12.17897 0.85873,-2.29502 3.072114,-4.50841 5.367135,-5.36709 1.594901,-0.59645 2.224492,-0.6365 10.099565,-0.6365 7.795055,0 8.51733,0.046 10.048777,0.61746 2.286788,0.85559 4.572066,3.12512 5.414877,5.37782 0.611493,1.63434 0.639736,2.16753 0.639736,12.18724 v 10.47806 H 63.175453 59.92528 v 7.68217 7.68225 h -3.068083 -3.068083 l -0.11558,-6.97416 c -0.06577,-3.8358 -0.06577,-8.75535 -1.22e-4,-10.93242 l 0.11558,-3.95815 h 3.068205 3.068204 v -6.9663 -6.96622 l -0.863699,-0.86366 -0.863662,-0.8637 h -7.875438 -7.875365 l -0.863699,0.8637 -0.8637,0.86366 v 6.96622 6.9663 l 3.176356,2.6e-4 3.176234,3.3e-4 -0.04117,8.05112 c -0.02058,4.42817 -0.05261,9.34755 -0.07356,10.93201 l -0.03288,2.88101 h -3.10233 -3.102465 z m 6.943487,-39.98837 c -2.762946,-0.91542 -4.91737,-2.73445 -6.112477,-5.16084 -0.980035,-1.98969 -0.982215,-6.37794 -0.0037,-8.35609 0.925545,-1.87204 2.854521,-3.75381 4.786968,-4.66991 2.317954,-1.09891 5.659837,-1.09891 7.977719,0 1.932434,0.9161 3.86141,2.79787 4.78704,4.66991 0.978062,1.97815 0.975894,6.3664 -0.0037,8.35609 -0.926129,1.88024 -2.826484,3.72295 -4.755106,4.61095 -1.913021,0.88077 -4.927808,1.12911 -6.67585,0.54977 z m 4.241474,-6.52584 c 2.014851,-1.04197 2.042571,-4.40785 0.04604,-5.58725 -1.5546,-0.91831 -3.713458,-0.3331 -4.409961,1.19577 -1.374847,3.0175 1.47507,5.88534 4.363948,4.39148 z"
       id="path1078"
       inkscape:connector-curvature="0" />
  </g>
</svg>
