<?xml version="1.0" encoding="UTF-8" standalone="no"?>
<!-- Created with Inkscape (http://www.inkscape.org/) -->

<svg
   xmlns:dc="http://purl.org/dc/elements/1.1/"
   xmlns:cc="http://creativecommons.org/ns#"
   xmlns:rdf="http://www.w3.org/1999/02/22-rdf-syntax-ns#"
   xmlns:svg="http://www.w3.org/2000/svg"
   xmlns="http://www.w3.org/2000/svg"
   xmlns:sodipodi="http://sodipodi.sourceforge.net/DTD/sodipodi-0.dtd"
   xmlns:inkscape="http://www.inkscape.org/namespaces/inkscape"
   width="377.95276"
   height="377.95276"
   viewBox="0 0 100 99.999997"
   version="1.1"
   id="svg6913"
   inkscape:version="0.92.3 (2405546, 2018-03-11)"
   sodipodi:docname="Reportingmanager.svg">
  <defs
     id="defs6907" />
  <sodipodi:namedview
     id="base"
     pagecolor="#ffffff"
     bordercolor="#666666"
     borderopacity="1.0"
     inkscape:pageopacity="0.0"
     inkscape:pageshadow="2"
     inkscape:zoom="1.8101934"
     inkscape:cx="219.81204"
     inkscape:cy="177.06682"
     inkscape:document-units="mm"
     inkscape:current-layer="layer1"
     showgrid="true"
     units="px"
     showguides="true"
     inkscape:guide-bbox="true"
     inkscape:window-width="1920"
     inkscape:window-height="1017"
     inkscape:window-x="-8"
     inkscape:window-y="-8"
     inkscape:window-maximized="1">
    <sodipodi:guide
       position="49.979401,32.874151"
       orientation="1,0"
       id="guide7481"
       inkscape:locked="false" />
    <sodipodi:guide
       position="84.666665,94.880679"
       orientation="0,1"
       id="guide7483"
       inkscape:locked="false" />
    <sodipodi:guide
       position="80.448127,94.880679"
       orientation="0,1"
       id="guide7485"
       inkscape:locked="false" />
    <sodipodi:guide
       position="95.415221,49.979399"
       orientation="1,0"
       id="guide7487"
       inkscape:locked="false" />
    <sodipodi:guide
       position="14.165285,4.8108513"
       orientation="0,1"
       id="guide7489"
       inkscape:locked="false" />
    <sodipodi:guide
       position="5.3453905,57.462946"
       orientation="1,0"
       id="guide7491"
       inkscape:locked="false" />
    <inkscape:grid
       type="xygrid"
       id="grid7493" />
  </sodipodi:namedview>
  <metadata
     id="metadata6910">
    <rdf:RDF>
      <cc:Work
         rdf:about="">
        <dc:format>image/svg+xml</dc:format>
        <dc:type
           rdf:resource="http://purl.org/dc/dcmitype/StillImage" />
        <dc:title></dc:title>
      </cc:Work>
    </rdf:RDF>
  </metadata>
  <g
     inkscape:label="Layer 1"
     inkscape:groupmode="layer"
     id="layer1"
     transform="translate(0,-197.00002)">
    <g
       id="g5204"
       transform="matrix(0.13751349,0,0,0.14713967,20.118938,212.8788)"
       style="fill:#ffffff;stroke:none;stroke-width:1.86005139;stroke-opacity:0.80392157">
      <g
         id="g5146"
         style="fill:#ffffff;stroke:none;stroke-width:1.86005139;stroke-opacity:0.80392157">
        <g
           id="g5144"
           style="fill:#ffffff;stroke:none;stroke-width:1.86005139;stroke-opacity:0.80392157" />
      </g>
      <g
         id="g5148"
         style="fill:#ffffff;stroke:none;stroke-width:1.86005139;stroke-opacity:0.80392157" />
      <g
         id="g5150"
         style="fill:#ffffff;stroke:none;stroke-width:1.86005139;stroke-opacity:0.80392157" />
      <g
         id="g5152"
         style="fill:#ffffff;stroke:none;stroke-width:1.86005139;stroke-opacity:0.80392157" />
      <g
         id="g5154"
         style="fill:#ffffff;stroke:none;stroke-width:1.86005139;stroke-opacity:0.80392157" />
      <g
         id="g5156"
         style="fill:#ffffff;stroke:none;stroke-width:1.86005139;stroke-opacity:0.80392157" />
      <g
         id="g5158"
         style="fill:#ffffff;stroke:none;stroke-width:1.86005139;stroke-opacity:0.80392157" />
      <g
         id="g5160"
         style="fill:#ffffff;stroke:none;stroke-width:1.86005139;stroke-opacity:0.80392157" />
      <g
         id="g5162"
         style="fill:#ffffff;stroke:none;stroke-width:1.86005139;stroke-opacity:0.80392157" />
      <g
         id="g5164"
         style="fill:#ffffff;stroke:none;stroke-width:1.86005139;stroke-opacity:0.80392157" />
      <g
         id="g5166"
         style="fill:#ffffff;stroke:none;stroke-width:1.86005139;stroke-opacity:0.80392157" />
      <g
         id="g5168"
         style="fill:#ffffff;stroke:none;stroke-width:1.86005139;stroke-opacity:0.80392157" />
      <g
         id="g5170"
         style="fill:#ffffff;stroke:none;stroke-width:1.86005139;stroke-opacity:0.80392157" />
      <g
         id="g5172"
         style="fill:#ffffff;stroke:none;stroke-width:1.86005139;stroke-opacity:0.80392157" />
      <g
         id="g5174"
         style="fill:#ffffff;stroke:none;stroke-width:1.86005139;stroke-opacity:0.80392157" />
      <g
         id="g5176"
         style="fill:#ffffff;stroke:none;stroke-width:1.86005139;stroke-opacity:0.80392157" />
    </g>
    <path
       style="stroke-width:8.92426968"
       inkscape:connector-curvature="0"
       d="m 77.800004,241.19929 c 4.773447,0 8.656461,-3.95745 8.656461,-8.82165 0,-4.8642 -3.883328,-8.82159 -8.656461,-8.82159 -4.773122,0 -8.656442,3.95739 -8.656442,8.82159 0,4.86453 3.88332,8.82165 8.656442,8.82165 z"
       id="path1827" />
    <path
       style="stroke-width:8.92426968"
       inkscape:connector-curvature="0"
       d="m 64.152221,268.26014 h 27.292491 c 1.777471,0 3.218199,-1.46853 3.218199,-3.27988 v -12.12705 c 0,-3.35696 -2.116967,-6.33369 -5.247206,-7.37883 l -0.01443,-0.003 -4.578697,-0.77247 c -0.389823,-0.12219 -0.806167,0.088 -0.946282,0.47995 l -5.195046,14.52658 c -0.299702,0.83792 -1.462654,0.83792 -1.762345,0 l -5.195336,-14.52791 c -0.113268,-0.31656 -0.40617,-0.51459 -0.720057,-0.51459 -0.0744,0 -4.804611,0.80646 -4.804611,0.80646 -3.156164,1.0716 -5.264798,4.05334 -5.264798,7.42478 v 12.08706 c 0,1.81137 1.440734,3.27961 3.218201,3.27961 z"
       id="path1829" />
    <path
       style="stroke-width:8.43699741"
       inkscape:connector-curvature="0"
       d="m 30.491065,244.95211 c -0.01572,-0.003 -0.03185,-0.0121 -0.04745,-0.0161 l -2.309817,-0.74244 c -0.694555,-0.22379 -1.449242,-0.0473 -1.987279,0.4629 l -4.979852,4.71855 -4.979569,-4.71855 c -0.538041,-0.50995 -1.292728,-0.68666 -1.987283,-0.4629 0,0 -2.341178,0.75301 -2.357287,0.75841 -3.4865903,1.21851 -5.8294933,4.62551 -5.8294933,8.47799 v 13.41254 c 0,1.19354 0.923005,2.16098 2.061799,2.16098 H 34.259055 c 1.138795,0 2.061801,-0.96744 2.061801,-2.16098 v -13.41256 c 0,-3.85248 -2.342615,-7.25948 -5.829781,-8.47784 z"
       id="path1835" />
    <path
       style="stroke-width:8.24109364"
       inkscape:connector-curvature="0"
       d="m 12.93998,233.39703 c 0,4.74625 3.861487,8.60772 8.607714,8.60772 4.746512,0 8.607999,-3.86147 8.607999,-8.60772 0,-4.74621 -3.861487,-8.60772 -8.607999,-8.60772 -4.746227,0 -8.607714,3.86151 -8.607714,8.60772 z"
       id="path1837" />
    <path
       style="stroke-width:6.92657471"
       inkscape:connector-curvature="0"
       d="m 42.960317,232.17332 c 0.450084,0.42453 0.67943,1.06313 0.548969,1.71451 -0.201102,1.00546 -1.179378,1.65765 -2.184848,1.45659 l -3.770514,-0.75397 c -0.523514,-0.1048 -0.976718,-0.42986 -1.243687,-0.89231 -0.266994,-0.46241 -0.321958,-1.01761 -0.150938,-1.52321 l 1.232313,-3.64233 c 0.32857,-0.97133 1.382577,-1.49246 2.353876,-1.16384 0.724907,0.24518 1.198113,0.89461 1.255786,1.61164 3.700959,-1.70061 7.78656,-2.2349 11.675834,-1.45708 1.005472,0.20123 1.657783,1.17907 1.456607,2.18488 -0.201062,1.00542 -1.179383,1.65764 -2.184841,1.45659 -2.974833,-0.59513 -6.105855,-0.2234 -8.988568,1.00853 z"
       id="path1839" />
    <path
       style="stroke-width:6.92657471"
       inkscape:connector-curvature="0"
       d="m 64.044327,238.10408 c 0.170938,-0.50585 0.116052,-1.06085 -0.150898,-1.52325 -0.266994,-0.4624 -0.720303,-0.78763 -1.243705,-0.89232 l -3.770507,-0.75396 c -1.005463,-0.20123 -1.983759,0.45117 -2.184837,1.45663 -0.13013,0.65145 0.09907,1.2898 0.549162,1.71439 -2.882719,1.23205 -6.013719,1.60367 -8.988441,1.00873 -1.005467,-0.20121 -1.983754,0.45113 -2.184841,1.4566 -0.200981,1.00567 0.451354,1.98364 1.4566,2.18487 3.889156,0.77759 7.974758,0.24315 11.675636,-1.45696 0.05759,0.71735 0.530878,1.36642 1.255786,1.61163 0.971295,0.32867 2.025286,-0.19275 2.353873,-1.16381 z"
       id="path1841" />
    <path
       style="stroke-width:8.92426968"
       inkscape:connector-curvature="0"
       d="m 79.58117,244.83553 c -0.199689,-0.22179 -0.491969,-0.33349 -0.787334,-0.33349 h -2.203693 c -0.29539,0 -0.587658,0.1117 -0.787346,0.33349 -0.309259,0.34358 -0.354012,0.83951 -0.134562,1.22732 l 1.178075,1.80978 -0.551532,4.74094 1.085796,2.94397 c 0.105793,0.29601 0.51666,0.29601 0.622529,0 l 1.085796,-2.94397 -0.551543,-4.74094 1.178084,-1.80978 c 0.21973,-0.38793 0.175013,-0.88382 -0.134246,-1.22732 z"
       id="path1843" />
  </g>
</svg>
