<?xml version="1.0" encoding="UTF-8" standalone="no"?>
<!-- Created with Inkscape (http://www.inkscape.org/) -->

<svg
   xmlns:dc="http://purl.org/dc/elements/1.1/"
   xmlns:cc="http://creativecommons.org/ns#"
   xmlns:rdf="http://www.w3.org/1999/02/22-rdf-syntax-ns#"
   xmlns:svg="http://www.w3.org/2000/svg"
   xmlns="http://www.w3.org/2000/svg"
   xmlns:sodipodi="http://sodipodi.sourceforge.net/DTD/sodipodi-0.dtd"
   xmlns:inkscape="http://www.inkscape.org/namespaces/inkscape"
   width="377.95276"
   height="377.95276"
   viewBox="0 0 100 99.999997"
   version="1.1"
   id="svg6913"
   inkscape:version="0.92.3 (2405546, 2018-03-11)"
   sodipodi:docname="upload.svg">
  <defs
     id="defs6907" />
  <sodipodi:namedview
     id="base"
     pagecolor="#ffffff"
     bordercolor="#666666"
     borderopacity="1.0"
     inkscape:pageopacity="0.0"
     inkscape:pageshadow="2"
     inkscape:zoom="1.8101934"
     inkscape:cx="219.81204"
     inkscape:cy="177.06682"
     inkscape:document-units="mm"
     inkscape:current-layer="layer1"
     showgrid="true"
     units="px"
     showguides="true"
     inkscape:guide-bbox="true"
     inkscape:window-width="1920"
     inkscape:window-height="1017"
     inkscape:window-x="-8"
     inkscape:window-y="-8"
     inkscape:window-maximized="1">
    <sodipodi:guide
       position="49.979401,32.874151"
       orientation="1,0"
       id="guide7481"
       inkscape:locked="false" />
    <sodipodi:guide
       position="84.666665,94.880679"
       orientation="0,1"
       id="guide7483"
       inkscape:locked="false" />
    <sodipodi:guide
       position="80.448127,94.880679"
       orientation="0,1"
       id="guide7485"
       inkscape:locked="false" />
    <sodipodi:guide
       position="95.415221,49.979399"
       orientation="1,0"
       id="guide7487"
       inkscape:locked="false" />
    <sodipodi:guide
       position="14.165285,4.8108513"
       orientation="0,1"
       id="guide7489"
       inkscape:locked="false" />
    <sodipodi:guide
       position="5.3453905,57.462946"
       orientation="1,0"
       id="guide7491"
       inkscape:locked="false" />
    <inkscape:grid
       type="xygrid"
       id="grid7493" />
  </sodipodi:namedview>
  <metadata
     id="metadata6910">
    <rdf:RDF>
      <cc:Work
         rdf:about="">
        <dc:format>image/svg+xml</dc:format>
        <dc:type
           rdf:resource="http://purl.org/dc/dcmitype/StillImage" />
        <dc:title></dc:title>
      </cc:Work>
    </rdf:RDF>
  </metadata>
  <g
     inkscape:label="Layer 1"
     inkscape:groupmode="layer"
     id="layer1"
     transform="translate(0,-197.00002)">
    <g
       id="g5204"
       transform="matrix(0.13751349,0,0,0.14713967,20.118938,212.8788)"
       style="fill:#ffffff;stroke:none;stroke-width:1.86005139;stroke-opacity:0.80392157">
      <g
         id="g5146"
         style="fill:#ffffff;stroke:none;stroke-width:1.86005139;stroke-opacity:0.80392157">
        <g
           id="g5144"
           style="fill:#ffffff;stroke:none;stroke-width:1.86005139;stroke-opacity:0.80392157" />
      </g>
      <g
         id="g5148"
         style="fill:#ffffff;stroke:none;stroke-width:1.86005139;stroke-opacity:0.80392157" />
      <g
         id="g5150"
         style="fill:#ffffff;stroke:none;stroke-width:1.86005139;stroke-opacity:0.80392157" />
      <g
         id="g5152"
         style="fill:#ffffff;stroke:none;stroke-width:1.86005139;stroke-opacity:0.80392157" />
      <g
         id="g5154"
         style="fill:#ffffff;stroke:none;stroke-width:1.86005139;stroke-opacity:0.80392157" />
      <g
         id="g5156"
         style="fill:#ffffff;stroke:none;stroke-width:1.86005139;stroke-opacity:0.80392157" />
      <g
         id="g5158"
         style="fill:#ffffff;stroke:none;stroke-width:1.86005139;stroke-opacity:0.80392157" />
      <g
         id="g5160"
         style="fill:#ffffff;stroke:none;stroke-width:1.86005139;stroke-opacity:0.80392157" />
      <g
         id="g5162"
         style="fill:#ffffff;stroke:none;stroke-width:1.86005139;stroke-opacity:0.80392157" />
      <g
         id="g5164"
         style="fill:#ffffff;stroke:none;stroke-width:1.86005139;stroke-opacity:0.80392157" />
      <g
         id="g5166"
         style="fill:#ffffff;stroke:none;stroke-width:1.86005139;stroke-opacity:0.80392157" />
      <g
         id="g5168"
         style="fill:#ffffff;stroke:none;stroke-width:1.86005139;stroke-opacity:0.80392157" />
      <g
         id="g5170"
         style="fill:#ffffff;stroke:none;stroke-width:1.86005139;stroke-opacity:0.80392157" />
      <g
         id="g5172"
         style="fill:#ffffff;stroke:none;stroke-width:1.86005139;stroke-opacity:0.80392157" />
      <g
         id="g5174"
         style="fill:#ffffff;stroke:none;stroke-width:1.86005139;stroke-opacity:0.80392157" />
      <g
         id="g5176"
         style="fill:#ffffff;stroke:none;stroke-width:1.86005139;stroke-opacity:0.80392157" />
    </g>
    <g
       id="g1251"
       transform="matrix(0.14044618,0,0,0.14044618,12.671248,205.07089)">
      <g
         id="g1195">
	<path
   id="path1193"
   d="m 524.326,297.352 c -15.896,-19.89 -36.21,-32.782 -60.959,-38.684 7.81,-11.8 11.704,-24.934 11.704,-39.399 0,-20.177 -7.139,-37.401 -21.409,-51.678 -14.273,-14.272 -31.498,-21.411 -51.675,-21.411 -18.083,0 -33.879,5.901 -47.39,17.703 -11.225,-27.41 -29.171,-49.393 -53.817,-65.95 -24.646,-16.562 -51.818,-24.842 -81.514,-24.842 -40.349,0 -74.802,14.279 -103.353,42.83 -28.553,28.544 -42.825,62.999 -42.825,103.351 0,2.474 0.191,6.567 0.571,12.275 C 51.2,242.016 33.31,257.718 19.983,278.653 6.661,299.594 0,322.43 0,347.179 c 0,35.214 12.517,65.329 37.544,90.358 25.028,25.037 55.15,37.548 90.362,37.548 h 310.636 c 30.259,0 56.096,-10.711 77.512,-32.12 21.413,-21.409 32.121,-47.246 32.121,-77.516 -0.003,-25.505 -7.952,-48.201 -23.849,-68.097 z m -161.597,-7.704 c -1.813,1.804 -3.949,2.707 -6.42,2.707 h -63.953 v 100.502 c 0,2.471 -0.903,4.613 -2.711,6.42 -1.813,1.813 -3.949,2.711 -6.42,2.711 h -54.826 c -2.474,0 -4.615,-0.897 -6.423,-2.711 -1.804,-1.807 -2.712,-3.949 -2.712,-6.42 V 292.355 H 155.31 c -2.662,0 -4.853,-0.855 -6.563,-2.563 -1.713,-1.714 -2.568,-3.904 -2.568,-6.566 0,-2.286 0.95,-4.572 2.852,-6.855 l 100.213,-100.21 c 1.713,-1.714 3.903,-2.57 6.567,-2.57 2.666,0 4.856,0.856 6.567,2.57 l 100.499,100.495 c 1.714,1.712 2.562,3.901 2.562,6.571 -0.001,2.469 -0.904,4.618 -2.71,6.421 z"
   inkscape:connector-curvature="0" />

</g>
      <g
         id="g1197">
</g>
      <g
         id="g1199">
</g>
      <g
         id="g1201">
</g>
      <g
         id="g1203">
</g>
      <g
         id="g1205">
</g>
      <g
         id="g1207">
</g>
      <g
         id="g1209">
</g>
      <g
         id="g1211">
</g>
      <g
         id="g1213">
</g>
      <g
         id="g1215">
</g>
      <g
         id="g1217">
</g>
      <g
         id="g1219">
</g>
      <g
         id="g1221">
</g>
      <g
         id="g1223">
</g>
      <g
         id="g1225">
</g>
    </g>
  </g>
</svg>
