<?xml version="1.0" encoding="UTF-8" standalone="no"?>
<!-- Created with Inkscape (http://www.inkscape.org/) -->

<svg
   xmlns:dc="http://purl.org/dc/elements/1.1/"
   xmlns:cc="http://creativecommons.org/ns#"
   xmlns:rdf="http://www.w3.org/1999/02/22-rdf-syntax-ns#"
   xmlns:svg="http://www.w3.org/2000/svg"
   xmlns="http://www.w3.org/2000/svg"
   xmlns:sodipodi="http://sodipodi.sourceforge.net/DTD/sodipodi-0.dtd"
   xmlns:inkscape="http://www.inkscape.org/namespaces/inkscape"
   width="377.95276"
   height="377.95276"
   viewBox="0 0 100 99.999997"
   version="1.1"
   id="svg6913"
   inkscape:version="0.92.3 (2405546, 2018-03-11)"
   sodipodi:docname="WORD.svg">
  <defs
     id="defs6907" />
  <sodipodi:namedview
     id="base"
     pagecolor="#ffffff"
     bordercolor="#666666"
     borderopacity="1.0"
     inkscape:pageopacity="0.0"
     inkscape:pageshadow="2"
     inkscape:zoom="1.8101934"
     inkscape:cx="238.10694"
     inkscape:cy="228.48714"
     inkscape:document-units="mm"
     inkscape:current-layer="layer1"
     showgrid="true"
     units="px"
     showguides="true"
     inkscape:guide-bbox="true"
     inkscape:window-width="1920"
     inkscape:window-height="1017"
     inkscape:window-x="-8"
     inkscape:window-y="-8"
     inkscape:window-maximized="1">
    <sodipodi:guide
       position="49.979401,32.874151"
       orientation="1,0"
       id="guide7481"
       inkscape:locked="false" />
    <sodipodi:guide
       position="84.666665,94.880679"
       orientation="0,1"
       id="guide7483"
       inkscape:locked="false" />
    <sodipodi:guide
       position="80.448127,94.880679"
       orientation="0,1"
       id="guide7485"
       inkscape:locked="false" />
    <sodipodi:guide
       position="95.415221,49.979399"
       orientation="1,0"
       id="guide7487"
       inkscape:locked="false" />
    <sodipodi:guide
       position="14.165285,4.8108513"
       orientation="0,1"
       id="guide7489"
       inkscape:locked="false" />
    <sodipodi:guide
       position="5.3453905,57.462946"
       orientation="1,0"
       id="guide7491"
       inkscape:locked="false" />
    <inkscape:grid
       type="xygrid"
       id="grid7493" />
  </sodipodi:namedview>
  <metadata
     id="metadata6910">
    <rdf:RDF>
      <cc:Work
         rdf:about="">
        <dc:format>image/svg+xml</dc:format>
        <dc:type
           rdf:resource="http://purl.org/dc/dcmitype/StillImage" />
        <dc:title></dc:title>
      </cc:Work>
    </rdf:RDF>
  </metadata>
  <g
     inkscape:label="Layer 1"
     inkscape:groupmode="layer"
     id="layer1"
     transform="translate(0,-197.00002)">
    <g
       id="g5204"
       transform="matrix(0.13751349,0,0,0.14713967,20.118938,212.8788)"
       style="fill:#ffffff;stroke:none;stroke-width:1.86005139;stroke-opacity:0.80392157">
      <g
         id="g5146"
         style="fill:#ffffff;stroke:none;stroke-width:1.86005139;stroke-opacity:0.80392157">
        <g
           id="g5144"
           style="fill:#ffffff;stroke:none;stroke-width:1.86005139;stroke-opacity:0.80392157" />
      </g>
      <g
         id="g5148"
         style="fill:#ffffff;stroke:none;stroke-width:1.86005139;stroke-opacity:0.80392157" />
      <g
         id="g5150"
         style="fill:#ffffff;stroke:none;stroke-width:1.86005139;stroke-opacity:0.80392157" />
      <g
         id="g5152"
         style="fill:#ffffff;stroke:none;stroke-width:1.86005139;stroke-opacity:0.80392157" />
      <g
         id="g5154"
         style="fill:#ffffff;stroke:none;stroke-width:1.86005139;stroke-opacity:0.80392157" />
      <g
         id="g5156"
         style="fill:#ffffff;stroke:none;stroke-width:1.86005139;stroke-opacity:0.80392157" />
      <g
         id="g5158"
         style="fill:#ffffff;stroke:none;stroke-width:1.86005139;stroke-opacity:0.80392157" />
      <g
         id="g5160"
         style="fill:#ffffff;stroke:none;stroke-width:1.86005139;stroke-opacity:0.80392157" />
      <g
         id="g5162"
         style="fill:#ffffff;stroke:none;stroke-width:1.86005139;stroke-opacity:0.80392157" />
      <g
         id="g5164"
         style="fill:#ffffff;stroke:none;stroke-width:1.86005139;stroke-opacity:0.80392157" />
      <g
         id="g5166"
         style="fill:#ffffff;stroke:none;stroke-width:1.86005139;stroke-opacity:0.80392157" />
      <g
         id="g5168"
         style="fill:#ffffff;stroke:none;stroke-width:1.86005139;stroke-opacity:0.80392157" />
      <g
         id="g5170"
         style="fill:#ffffff;stroke:none;stroke-width:1.86005139;stroke-opacity:0.80392157" />
      <g
         id="g5172"
         style="fill:#ffffff;stroke:none;stroke-width:1.86005139;stroke-opacity:0.80392157" />
      <g
         id="g5174"
         style="fill:#ffffff;stroke:none;stroke-width:1.86005139;stroke-opacity:0.80392157" />
      <g
         id="g5176"
         style="fill:#ffffff;stroke:none;stroke-width:1.86005139;stroke-opacity:0.80392157" />
    </g>
    <g
       style="fill:#9db63a;fill-opacity:1;stroke-width:3.23228002"
       id="g5552"
       transform="matrix(0.13130685,0,0,0.13130685,14.183774,214.09365)">
      <path
         id="path5476"
         d="M 496,432.004 H 272 c -8.832,0 -16,-7.136 -16,-16 0,-8.864 0,-311.168 0,-320 0,-8.832 7.168,-16 16,-16 h 224 c 8.832,0 16,7.168 16,16 v 320 c 0,8.864 -7.168,16 -16,16 z"
         style="fill:#eceff1"
         inkscape:connector-curvature="0" />
      <g
         id="g5486">
        <path
           id="path5478"
           d="M 432,176.004 H 272 c -8.832,0 -16,-7.136 -16,-16 0,-8.864 7.168,-16 16,-16 h 160 c 8.832,0 16,7.168 16,16 0,8.832 -7.168,16 -16,16 z"
           style="fill:#1976d2"
           inkscape:connector-curvature="0" />
        <path
           id="path5480"
           d="M 432,240.004 H 272 c -8.832,0 -16,-7.136 -16,-16 0,-8.864 7.168,-16 16,-16 h 160 c 8.832,0 16,7.168 16,16 0,8.832 -7.168,16 -16,16 z"
           style="fill:#1976d2"
           inkscape:connector-curvature="0" />
        <path
           id="path5482"
           d="M 432,304.004 H 272 c -8.832,0 -16,-7.136 -16,-16 0,-8.864 7.168,-16 16,-16 h 160 c 8.832,0 16,7.168 16,16 0,8.832 -7.168,16 -16,16 z"
           style="fill:#1976d2"
           inkscape:connector-curvature="0" />
        <path
           id="path5484"
           d="M 432,368.004 H 272 c -8.832,0 -16,-7.136 -16,-16 0,-8.864 7.168,-16 16,-16 h 160 c 8.832,0 16,7.168 16,16 0,8.832 -7.168,16 -16,16 z"
           style="fill:#1976d2"
           inkscape:connector-curvature="0" />
      </g>
      <path
         id="path5488"
         d="m 282.208,19.716 c -3.648,-3.072 -8.544,-4.352 -13.152,-3.424 l -256,48 C 5.504,65.7 0,72.324 0,80.004 v 352 c 0,7.68 5.472,14.304 13.056,15.712 l 256,48 c 0.992,0.192 1.952,0.288 2.944,0.288 3.712,0 7.328,-1.28 10.208,-3.68 3.68,-3.04 5.792,-7.552 5.792,-12.32 v -448 c 0,-4.768 -2.112,-9.248 -5.792,-12.288 z"
         style="fill:#1565c0"
         inkscape:connector-curvature="0" />
      <path
         id="path5490"
         d="m 207.904,337.796 c -0.832,7.328 -6.592,13.184 -13.92,14.08 -0.672,0.096 -1.312,0.128 -1.984,0.128 -6.592,0 -12.608,-4.096 -14.976,-10.368 L 144,253.572 110.976,341.636 c -2.56,6.848 -9.28,11.04 -16.704,10.272 -7.264,-0.768 -13.088,-6.4 -14.112,-13.664 l -16,-112 c -1.248,-8.704 4.832,-16.832 13.568,-18.08 8.768,-1.28 16.864,4.832 18.112,13.568 l 7.136,50.048 26.016,-69.408 c 4.672,-12.48 25.28,-12.48 29.984,0 l 24.512,65.344 8.608,-77.504 c 0.992,-8.768 9.12,-15.072 17.664,-14.144 8.8,1.024 15.104,8.928 14.144,17.696 z"
         style="fill:#fafafa"
         inkscape:connector-curvature="0" />
      <g
         id="g5492" />
      <g
         id="g5494" />
      <g
         id="g5496" />
      <g
         id="g5498" />
      <g
         id="g5500" />
      <g
         id="g5502" />
      <g
         id="g5504" />
      <g
         id="g5506" />
      <g
         id="g5508" />
      <g
         id="g5510" />
      <g
         id="g5512" />
      <g
         id="g5514" />
      <g
         id="g5516" />
      <g
         id="g5518" />
      <g
         id="g5520" />
    </g>
  </g>
</svg>
