<?xml version="1.0" encoding="UTF-8" standalone="no"?>
<!-- Created with Inkscape (http://www.inkscape.org/) -->

<svg
   xmlns:dc="http://purl.org/dc/elements/1.1/"
   xmlns:cc="http://creativecommons.org/ns#"
   xmlns:rdf="http://www.w3.org/1999/02/22-rdf-syntax-ns#"
   xmlns:svg="http://www.w3.org/2000/svg"
   xmlns="http://www.w3.org/2000/svg"
   xmlns:sodipodi="http://sodipodi.sourceforge.net/DTD/sodipodi-0.dtd"
   xmlns:inkscape="http://www.inkscape.org/namespaces/inkscape"
   width="377.95276"
   height="377.95276"
   viewBox="0 0 100 99.999997"
   version="1.1"
   id="svg6913"
   inkscape:version="0.92.3 (2405546, 2018-03-11)"
   sodipodi:docname="XLS.svg">
  <defs
     id="defs6907" />
  <sodipodi:namedview
     id="base"
     pagecolor="#ffffff"
     bordercolor="#666666"
     borderopacity="1.0"
     inkscape:pageopacity="0.0"
     inkscape:pageshadow="2"
     inkscape:zoom="1.8101934"
     inkscape:cx="286.12662"
     inkscape:cy="174.1248"
     inkscape:document-units="mm"
     inkscape:current-layer="layer1"
     showgrid="true"
     units="px"
     showguides="true"
     inkscape:guide-bbox="true"
     inkscape:window-width="1920"
     inkscape:window-height="1017"
     inkscape:window-x="-8"
     inkscape:window-y="-8"
     inkscape:window-maximized="1">
    <sodipodi:guide
       position="49.979401,32.874151"
       orientation="1,0"
       id="guide7481"
       inkscape:locked="false" />
    <sodipodi:guide
       position="84.666665,94.880679"
       orientation="0,1"
       id="guide7483"
       inkscape:locked="false" />
    <sodipodi:guide
       position="80.448127,94.880679"
       orientation="0,1"
       id="guide7485"
       inkscape:locked="false" />
    <sodipodi:guide
       position="95.415221,49.979399"
       orientation="1,0"
       id="guide7487"
       inkscape:locked="false" />
    <sodipodi:guide
       position="14.165285,4.8108513"
       orientation="0,1"
       id="guide7489"
       inkscape:locked="false" />
    <sodipodi:guide
       position="5.3453905,57.462946"
       orientation="1,0"
       id="guide7491"
       inkscape:locked="false" />
    <inkscape:grid
       type="xygrid"
       id="grid7493" />
  </sodipodi:namedview>
  <metadata
     id="metadata6910">
    <rdf:RDF>
      <cc:Work
         rdf:about="">
        <dc:format>image/svg+xml</dc:format>
        <dc:type
           rdf:resource="http://purl.org/dc/dcmitype/StillImage" />
        <dc:title></dc:title>
      </cc:Work>
    </rdf:RDF>
  </metadata>
  <g
     inkscape:label="Layer 1"
     inkscape:groupmode="layer"
     id="layer1"
     transform="translate(0,-197.00002)">
    <g
       id="g5204"
       transform="matrix(0.13751349,0,0,0.14713967,20.118938,212.8788)"
       style="fill:#ffffff;stroke:none;stroke-width:1.86005139;stroke-opacity:0.80392157">
      <g
         id="g5146"
         style="fill:#ffffff;stroke:none;stroke-width:1.86005139;stroke-opacity:0.80392157">
        <g
           id="g5144"
           style="fill:#ffffff;stroke:none;stroke-width:1.86005139;stroke-opacity:0.80392157" />
      </g>
      <g
         id="g5148"
         style="fill:#ffffff;stroke:none;stroke-width:1.86005139;stroke-opacity:0.80392157" />
      <g
         id="g5150"
         style="fill:#ffffff;stroke:none;stroke-width:1.86005139;stroke-opacity:0.80392157" />
      <g
         id="g5152"
         style="fill:#ffffff;stroke:none;stroke-width:1.86005139;stroke-opacity:0.80392157" />
      <g
         id="g5154"
         style="fill:#ffffff;stroke:none;stroke-width:1.86005139;stroke-opacity:0.80392157" />
      <g
         id="g5156"
         style="fill:#ffffff;stroke:none;stroke-width:1.86005139;stroke-opacity:0.80392157" />
      <g
         id="g5158"
         style="fill:#ffffff;stroke:none;stroke-width:1.86005139;stroke-opacity:0.80392157" />
      <g
         id="g5160"
         style="fill:#ffffff;stroke:none;stroke-width:1.86005139;stroke-opacity:0.80392157" />
      <g
         id="g5162"
         style="fill:#ffffff;stroke:none;stroke-width:1.86005139;stroke-opacity:0.80392157" />
      <g
         id="g5164"
         style="fill:#ffffff;stroke:none;stroke-width:1.86005139;stroke-opacity:0.80392157" />
      <g
         id="g5166"
         style="fill:#ffffff;stroke:none;stroke-width:1.86005139;stroke-opacity:0.80392157" />
      <g
         id="g5168"
         style="fill:#ffffff;stroke:none;stroke-width:1.86005139;stroke-opacity:0.80392157" />
      <g
         id="g5170"
         style="fill:#ffffff;stroke:none;stroke-width:1.86005139;stroke-opacity:0.80392157" />
      <g
         id="g5172"
         style="fill:#ffffff;stroke:none;stroke-width:1.86005139;stroke-opacity:0.80392157" />
      <g
         id="g5174"
         style="fill:#ffffff;stroke:none;stroke-width:1.86005139;stroke-opacity:0.80392157" />
      <g
         id="g5176"
         style="fill:#ffffff;stroke:none;stroke-width:1.86005139;stroke-opacity:0.80392157" />
    </g>
    <g
       style="fill:#9db63a;fill-opacity:1;stroke-width:3.23228002"
       id="g5222"
       transform="matrix(0.14649524,0,0,0.14649524,9.4499388,207.61053)">
      <path
         id="path5143"
         d="M 128,0 C 110.4,0 96,14.4 96,32 v 448 c 0,17.6 14.4,32 32,32 h 320 c 17.6,0 32,-14.4 32,-32 V 128 L 352,0 Z"
         style="fill:#e2e5e7"
         inkscape:connector-curvature="0" />
      <path
         id="path5145"
         d="m 384,128 h 96 L 352,0 v 96 c 0,17.6 14.4,32 32,32 z"
         style="fill:#b0b7bd"
         inkscape:connector-curvature="0" />
      <polygon
         id="polygon5147"
         points="480,224 384,128 480,128 "
         style="fill:#cad1d8" />
      <path
         id="path5149"
         d="m 416,416 c 0,8.8 -7.2,16 -16,16 H 48 c -8.8,0 -16,-7.2 -16,-16 V 256 c 0,-8.8 7.2,-16 16,-16 h 352 c 8.8,0 16,7.2 16,16 z"
         style="fill:#84bd5a"
         inkscape:connector-curvature="0" />
      <g
         id="g5157">
        <path
           id="path5151"
           d="m 144.336,326.192 22.256,-27.888 c 6.656,-8.704 19.584,2.416 12.288,10.736 -7.664,9.088 -15.728,18.944 -23.408,29.04 l 26.096,32.496 c 7.04,9.6 -7.024,18.8 -13.936,9.328 L 144.08,349.712 120.928,380.56 c -6.528,9.328 -20.992,-1.152 -13.696,-9.856 l 25.712,-32.624 c -8.064,-10.112 -15.872,-19.952 -23.664,-29.04 -8.048,-9.6 6.912,-19.44 12.8,-10.464 z"
           style="fill:#ffffff"
           inkscape:connector-curvature="0" />
        <path
           id="path5153"
           d="m 197.36,303.152 c 0,-4.224 3.584,-7.808 8.064,-7.808 4.096,0 7.552,3.6 7.552,7.808 v 64.096 h 34.8 c 12.528,0 12.8,16.752 0,16.752 H 205.44 c -4.48,0 -8.064,-3.184 -8.064,-7.792 v -73.056 z"
           style="fill:#ffffff"
           inkscape:connector-curvature="0" />
        <path
           id="path5155"
           d="m 272.032,314.672 c 2.944,-24.832 40.416,-29.296 58.08,-15.728 8.704,7.024 -0.512,18.16 -8.192,12.528 -9.472,-6 -30.96,-8.816 -33.648,4.464 -3.456,20.992 52.192,8.976 51.296,43.008 -0.896,32.496 -47.968,33.248 -65.632,18.672 -4.24,-3.456 -4.096,-9.072 -1.792,-12.544 3.328,-3.312 7.024,-4.464 11.392,-0.88 10.48,7.152 37.488,12.528 39.392,-5.648 -1.648,-18.912 -54.864,-7.536 -50.896,-43.872 z"
           style="fill:#ffffff"
           inkscape:connector-curvature="0" />
      </g>
      <path
         id="path5159"
         d="M 400,432 H 96 v 16 h 304 c 8.8,0 16,-7.2 16,-16 v -16 c 0,8.8 -7.2,16 -16,16 z"
         style="fill:#cad1d8"
         inkscape:connector-curvature="0" />
      <g
         id="g5161" />
      <g
         id="g5163" />
      <g
         id="g5165" />
      <g
         id="g5167" />
      <g
         id="g5169" />
      <g
         id="g5171" />
      <g
         id="g5173" />
      <g
         id="g5175" />
      <g
         id="g5177" />
      <g
         id="g5179" />
      <g
         id="g5181" />
      <g
         id="g5183" />
      <g
         id="g5185" />
      <g
         id="g5187" />
      <g
         id="g5189" />
    </g>
  </g>
</svg>
