<svg xmlns="http://www.w3.org/2000/svg" viewBox="0 0 28.435 27.013">
  <defs>
    <style>
      .cls-1 {
        fill: #94af3c;
      }
    </style>
  </defs>
  <g id="Group_262" data-name="Group 262" transform="translate(-37.566 -100.987)">
    <g id="appreciation" transform="translate(37.566 88.987)">
      <g id="Group_178" data-name="Group 178" transform="translate(0 27.639)">
        <g id="Group_177" data-name="Group 177" transform="translate(0)">
          <path id="Path_264" data-name="Path 264" class="cls-1" d="M12.907,283.109a2.379,2.379,0,0,0-1.059-4.265H9.478v-1.422a1.422,1.422,0,1,0-2.843,0v1.422H.474a.474.474,0,0,0-.474.473H0V286.9a.474.474,0,0,0,.473.474H11.848a5.386,5.386,0,0,0,1.059-4.265ZM1.9,286.426H.948v-6.635H1.9Zm9.952-4.739a.474.474,0,0,1,0,.948H10.426v.948h1.422a.474.474,0,0,1,0,.948H10.426v.948h1.422a.474.474,0,0,1,0,.948h-9v-6.635H7.109a.474.474,0,0,0,.474-.473h0v-1.9a.474.474,0,1,1,.948,0v1.9a.474.474,0,0,0,.473.474h2.844a.474.474,0,0,1,0,.948H10.426v.948Z" transform="translate(0 -276)"/>
        </g>
      </g>
      <g id="Group_180" data-name="Group 180" transform="translate(15.165 27.639)">
        <g id="Group_179" data-name="Group 179">
          <path id="Path_265" data-name="Path 265" class="cls-1" d="M268.8,278.843h-6.161v-1.422a1.422,1.422,0,1,0-2.843,0v1.422h-2.37a5.386,5.386,0,0,0-1.059,4.265,2.379,2.379,0,0,0,1.059,4.265H268.8a.474.474,0,0,0,.474-.473h0v-7.582A.474.474,0,0,0,268.8,278.843Zm-2.37,7.583h-9a.474.474,0,1,1,0-.948h1.422v-.948h-1.422a.474.474,0,1,1,0-.948h1.422v-.948h-1.422a.474.474,0,1,1,0-.948h1.422v-.948h-1.422a.474.474,0,1,1,0-.948h2.843a.474.474,0,0,0,.474-.473h0v-1.9a.474.474,0,1,1,.948,0v1.9a.474.474,0,0,0,.473.474h4.266Zm1.9,0h-.948v-6.635h.948Z" transform="translate(-256 -276)"/>
        </g>
      </g>
      <g id="Group_182" data-name="Group 182" transform="translate(10.826 15.568)">
        <g id="Group_181" data-name="Group 181" transform="translate(0 0)">
          <path id="Path_266" data-name="Path 266" class="cls-1" d="M189.449,74.54a.474.474,0,0,0-.383-.2h-1.884l-.582-1.791a.474.474,0,0,0-.9,0l-.582,1.791h-1.884a.474.474,0,0,0-.279.857l1.524,1.107L183.9,78.1a.474.474,0,0,0,.729.529l1.524-1.107,1.524,1.107a.474.474,0,0,0,.729-.529l-.582-1.792,1.524-1.107A.474.474,0,0,0,189.449,74.54Zm-2.637,1.735.238.733-.623-.453a.473.473,0,0,0-.557,0l-.623.453.238-.733a.473.473,0,0,0-.172-.529l-.623-.453h.77a.474.474,0,0,0,.451-.328l.238-.732.238.732a.474.474,0,0,0,.451.328h.77l-.623.453A.473.473,0,0,0,186.813,76.274Z" transform="translate(-182.758 -72.225)"/>
        </g>
      </g>
      <g id="Group_184" data-name="Group 184" transform="translate(13.743 12)">
        <g id="Group_183" data-name="Group 183">
          <rect id="Rectangle_781" data-name="Rectangle 781" class="cls-1" width="0.948" height="1.896"/>
        </g>
      </g>
      <g id="Group_186" data-name="Group 186" transform="translate(13.743 23.848)">
        <g id="Group_185" data-name="Group 185">
          <rect id="Rectangle_782" data-name="Rectangle 782" class="cls-1" width="0.948" height="1.896"/>
        </g>
      </g>
      <g id="Group_188" data-name="Group 188" transform="translate(7.583 18.635)">
        <g id="Group_187" data-name="Group 187">
          <rect id="Rectangle_783" data-name="Rectangle 783" class="cls-1" width="1.896" height="0.948"/>
        </g>
      </g>
      <g id="Group_190" data-name="Group 190" transform="translate(19.084 18.635)">
        <g id="Group_189" data-name="Group 189">
          <rect id="Rectangle_784" data-name="Rectangle 784" class="cls-1" width="1.896" height="0.948"/>
        </g>
      </g>
      <g id="Group_192" data-name="Group 192" transform="translate(17.42 13.839)">
        <g id="Group_191" data-name="Group 191" transform="translate(0 0)">
          <rect id="Rectangle_785" data-name="Rectangle 785" class="cls-1" width="1.896" height="0.948" transform="translate(0 1.34) rotate(-45)"/>
        </g>
      </g>
      <g id="Group_194" data-name="Group 194" transform="translate(9.043 22.009)">
        <g id="Group_193" data-name="Group 193" transform="translate(0 0)">
          <rect id="Rectangle_786" data-name="Rectangle 786" class="cls-1" width="1.896" height="0.948" transform="translate(0 1.34) rotate(-45)"/>
        </g>
      </g>
      <g id="Group_196" data-name="Group 196" transform="translate(9.042 13.839)">
        <g id="Group_195" data-name="Group 195" transform="translate(0 0)">
          <rect id="Rectangle_787" data-name="Rectangle 787" class="cls-1" width="0.948" height="1.896" transform="translate(0 0.67) rotate(-45)"/>
        </g>
      </g>
      <g id="Group_198" data-name="Group 198" transform="translate(17.175 22.103)">
        <g id="Group_197" data-name="Group 197" transform="translate(0 0)">
          <rect id="Rectangle_788" data-name="Rectangle 788" class="cls-1" width="0.948" height="1.896" transform="translate(0 0.67) rotate(-45)"/>
        </g>
      </g>
    </g>
  </g>
</svg>
