<svg xmlns="http://www.w3.org/2000/svg" viewBox="0 0 22.26 28.56">
  <defs>
    <style>
      .cls-1 {
        fill: #98b243;
      }
    </style>
  </defs>
  <g id="Group_659" data-name="Group 659" transform="translate(0 0)">
    <path id="Path_694" data-name="Path 694" class="cls-1" d="M26.77,5.524a13.115,13.115,0,0,0,1,2.081,2.412,2.412,0,0,1-.038,3.244,3,3,0,0,0-.751,2.21c.07,1.656-.506,2.275-2.1,2.8a3.65,3.65,0,0,0-1.668,1.25,2.506,2.506,0,0,1-3.267,1.1,4.221,4.221,0,0,0-2.314.025,2.394,2.394,0,0,1-3.134-1.052,2.908,2.908,0,0,0-1.954-1.4,2.218,2.218,0,0,1-1.889-2.452,3.426,3.426,0,0,0-.894-2.66,2.213,2.213,0,0,1,.012-2.9,3.339,3.339,0,0,0,.88-2.578,2.219,2.219,0,0,1,1.907-2.513A2.963,2.963,0,0,0,14.517,1.26,2.262,2.262,0,0,1,17.647.268a2.864,2.864,0,0,0,2.334.01c1.376-.576,2.307-.2,3.211,1.015a3.858,3.858,0,0,0,1.716,1.3c1.59.544,2.11,1.128,2.082,2.82C26.918,5.454,26.843,5.489,26.77,5.524ZM18.831,15.5a6.263,6.263,0,1,0-6.292-6.287A6.316,6.316,0,0,0,18.831,15.5Z" transform="translate(-7.696 0)"/>
    <path id="Path_695" data-name="Path 695" class="cls-1" d="M79.214,98.8c1.347,3.144,2.69,6.277,4.08,9.522-1.157-.208-2.192-.36-3.207-.594a.786.786,0,0,0-1.005.428c-.541.894-1.145,1.751-1.809,2.755-1.368-3.189-2.685-6.258-4.051-9.446a8.977,8.977,0,0,0,1,.136,3.009,3.009,0,0,0,2.843-1.541A2.494,2.494,0,0,1,79.214,98.8Z" transform="translate(-61.033 -82.356)"/>
    <path id="Path_696" data-name="Path 696" class="cls-1" d="M6.025,111.032c-.657-.994-1.268-1.846-1.8-2.745a.818.818,0,0,0-1.079-.426c-.989.233-2,.374-3.149.581,1.39-3.242,2.731-6.371,4.075-9.5a2.385,2.385,0,0,1,2.155,1.23,3.018,3.018,0,0,0,3.331,1.468c.126-.022.256-.02.5-.037C8.712,104.759,7.4,107.823,6.025,111.032Z" transform="translate(0 -82.473)"/>
  </g>
</svg>
