<svg xmlns="http://www.w3.org/2000/svg" viewBox="0 0 15.567 6.918">
  <defs>
    <style>
      .cls-1 {
        fill: #383085;
      }
    </style>
  </defs>
  <g id="long-arrow-pointing-to-the-right" transform="translate(15.567 143.97) rotate(180)">
    <path id="Path_290" data-name="Path 290" class="cls-1" d="M15.477,140.277l-3.459-3.153a.289.289,0,0,0-.315-.045.261.261,0,0,0-.171.261v2.018H.288a.277.277,0,0,0-.288.288v1.73a.277.277,0,0,0,.288.288H11.531v2.018a.272.272,0,0,0,.171.261.281.281,0,0,0,.315-.054l3.459-3.189a.294.294,0,0,0,.09-.216A.285.285,0,0,0,15.477,140.277Z"/>
  </g>
</svg>
