<?xml version="1.0" encoding="UTF-8" standalone="no"?>
<svg
   xmlns:dc="http://purl.org/dc/elements/1.1/"
   xmlns:cc="http://creativecommons.org/ns#"
   xmlns:rdf="http://www.w3.org/1999/02/22-rdf-syntax-ns#"
   xmlns:svg="http://www.w3.org/2000/svg"
   xmlns="http://www.w3.org/2000/svg"
   xmlns:sodipodi="http://sodipodi.sourceforge.net/DTD/sodipodi-0.dtd"
   xmlns:inkscape="http://www.inkscape.org/namespaces/inkscape"
   viewBox="0 0 21.798 21.008"
   version="1.1"
   id="svg12"
   sodipodi:docname="Group 217.svg"
   inkscape:version="0.92.3 (2405546, 2018-03-11)">
  <metadata
     id="metadata16">
    <rdf:RDF>
      <cc:Work
         rdf:about="">
        <dc:format>image/svg+xml</dc:format>
        <dc:type
           rdf:resource="http://purl.org/dc/dcmitype/StillImage" />
      </cc:Work>
    </rdf:RDF>
  </metadata>
  <sodipodi:namedview
     pagecolor="#ffffff"
     bordercolor="#666666"
     borderopacity="1"
     objecttolerance="10"
     gridtolerance="10"
     guidetolerance="10"
     inkscape:pageopacity="0"
     inkscape:pageshadow="2"
     inkscape:window-width="1920"
     inkscape:window-height="1017"
     id="namedview14"
     showgrid="false"
     inkscape:zoom="11.233816"
     inkscape:cx="10.899"
     inkscape:cy="10.504"
     inkscape:window-x="-8"
     inkscape:window-y="-8"
     inkscape:window-maximized="1"
     inkscape:current-layer="svg12" />
  <defs
     id="defs4">
    <style
       id="style2">
      .cls-1 {
        fill: #98b243;
      }
    </style>
  </defs>
  <g
     id="g829">
    <g
       transform="translate(0 0)"
       data-name="Group 217"
       id="Group_217">
      <path
         transform="translate(-29.36 -291.267)"
         d="M49.92,303.486a2.2,2.2,0,0,1-.578.079,2.177,2.177,0,0,1-1.3-.423,2.2,2.2,0,0,1-2.595,0,2.2,2.2,0,0,1-2.6,0,2.2,2.2,0,0,1-2.595,0,2.2,2.2,0,0,1-2.595,0,2.2,2.2,0,0,1-2.595,0,2.2,2.2,0,0,1-2.6,0,2.177,2.177,0,0,1-1.3.423,2.2,2.2,0,0,1-.578-.079v1.957H49.92v-1.957Z"
         class="cls-1"
         data-name="Path 275"
         id="Path_275" />
      <path
         transform="translate(-29.361 -360.501)"
         d="M30.6,379.177a.62.62,0,0,0,.01.1h19.3a.616.616,0,0,0,.01-.1V375.3H30.6Z"
         class="cls-1"
         data-name="Path 276"
         id="Path_276" />
      <path
         transform="translate(-6.923 -130.684)"
         d="M8.162,142.253a1.581,1.581,0,0,0,.578.109,1.539,1.539,0,0,0,1.3-.694,1.56,1.56,0,0,0,2.6,0,1.56,1.56,0,0,0,2.595,0,1.56,1.56,0,0,0,2.595,0,1.56,1.56,0,0,0,2.595,0,1.56,1.56,0,0,0,2.595,0,1.56,1.56,0,0,0,2.595,0,1.539,1.539,0,0,0,1.3.694,1.582,1.582,0,0,0,.578-.109,1.457,1.457,0,0,0,.946-1.346,1.4,1.4,0,0,0-.013-.18.372.372,0,0,0,.013-.095v-1.866c0-.271-.3-.491-.659-.491H18.606V136.4a.619.619,0,0,0-.619-.619h-.33a.619.619,0,0,0-.619.619v1.871H7.874c-.364,0-.659.22-.659.491v1.866a.373.373,0,0,0,.013.095,1.386,1.386,0,0,0-.013.18A1.457,1.457,0,0,0,8.162,142.253Z"
         class="cls-1"
         data-name="Path 277"
         id="Path_277" />
      <path
         transform="translate(0 -469.627)"
         d="M21.179,489.025H.619A.713.713,0,0,0,0,489.8v.052a.713.713,0,0,0,.619.779h20.56a.713.713,0,0,0,.619-.779V489.8A.713.713,0,0,0,21.179,489.025Z"
         class="cls-1"
         data-name="Path 278"
         id="Path_278" />
      <path
         transform="translate(-223.463 -9.759)"
         d="M234.486,14.467a.292.292,0,0,0,.07,0,1.849,1.849,0,0,0,1.273-1.964c-.136-.79-.71-1.12-1.041-1.7a1.35,1.35,0,0,1-.158-.871c.033-.2,0-.234-.141-.082a6.3,6.3,0,0,0-.952,1.31,1.587,1.587,0,0,0-.115,1.27,1.763,1.763,0,0,0,.113.31c.079.164-.007.294-.2.219a.964.964,0,0,1-.256-.147c-.16-.129-.22-.13-.177.071A1.989,1.989,0,0,0,234.486,14.467Z"
         class="cls-1"
         data-name="Path 279"
         id="Path_279" />
    </g>
  </g>
</svg>
