<svg xmlns="http://www.w3.org/2000/svg" viewBox="0 0 25.65 26.039"><defs><style>.a{fill:#65513c;}.b{fill:#eed898;}.c{fill:#bd720d;}.d{fill:#ffda44;}.e{fill:#ee603b;}</style></defs><g transform="translate(-2.754)"><rect class="a" width="23.16" height="9.35" transform="translate(3.999 16.689)"/><rect class="b" width="23.16" height="1.467" transform="translate(3.999 21.696)"/><path class="c" d="M27.122,210.068a1.282,1.282,0,0,1,1.283,1.283v1.539a2.565,2.565,0,0,1-5.13,0,2.565,2.565,0,1,1-5.13,0,2.565,2.565,0,0,1-5.13,0,2.565,2.565,0,1,1-5.13,0,2.565,2.565,0,0,1-5.13,0v-1.539a1.282,1.282,0,0,1,1.283-1.283Z" transform="translate(0 -195.265)"/><rect class="a" width="15.54" height="6.274" transform="translate(7.809 8.53)"/><rect class="b" width="15.54" height="0.984" transform="translate(7.809 11.757)"/><path class="d" d="M78.983,101.207a.86.86,0,0,1,.86.86V103.1a1.721,1.721,0,1,1-3.442,0,1.721,1.721,0,1,1-3.442,0,1.721,1.721,0,1,1-3.442,0,1.721,1.721,0,1,1-3.442,0,1.721,1.721,0,1,1-3.442,0v-1.032a.86.86,0,0,1,.86-.86Z" transform="translate(-55.659 -94.075)"/><g transform="translate(11.552)"><rect class="a" width="1.269" height="3.898" transform="translate(0.303 3.234)"/><path class="e" d="M129.483,2a7.243,7.243,0,0,0-.938-2,7.243,7.243,0,0,0-.938,2,.938.938,0,1,0,1.875,0Z" transform="translate(-127.608)"/><path class="d" d="M128.446.893A3.238,3.238,0,0,0,128.027,0a3.238,3.238,0,0,0-.419.893.419.419,0,1,0,.838,0Z" transform="translate(-127.089 1.812)"/></g><g transform="translate(14.641)"><rect class="a" width="1.269" height="3.898" transform="translate(0.303 3.234)"/><path class="e" d="M173.316,2a7.243,7.243,0,0,0-.938-2,7.243,7.243,0,0,0-.938,2,.938.938,0,1,0,1.876,0Z" transform="translate(-171.44)"/><path class="d" d="M128.446.893A3.238,3.238,0,0,0,128.027,0a3.238,3.238,0,0,0-.419.893.419.419,0,1,0,.838,0Z" transform="translate(-127.178 1.812)"/></g><g transform="translate(17.73)"><rect class="a" width="1.269" height="3.898" transform="translate(0.303 3.234)"/><path class="e" d="M217.149,2a7.243,7.243,0,0,0-.938-2,7.243,7.243,0,0,0-.938,2,.938.938,0,1,0,1.876,0Z" transform="translate(-215.273)"/><path class="d" d="M128.446.893A3.238,3.238,0,0,0,128.027,0a3.238,3.238,0,0,0-.419.893.419.419,0,1,0,.838,0Z" transform="translate(-127.267 1.812)"/></g></g></svg>