<svg xmlns="http://www.w3.org/2000/svg" viewBox="0 0 230.86 108.384">
  <defs>
    <style>
      .cls-1 {
        fill: #BFBFBF;
      }
    </style>
  </defs>
  <path id="Path_719" data-name="Path 719" class="cls-1" d="M31.92-9.548a1.413,1.413,0,0,1,1.064.476l2.968,3.22A16.3,16.3,0,0,1,29.89-1.176,20.89,20.89,0,0,1,21.252.448a20.412,20.412,0,0,1-8.106-1.54A17.866,17.866,0,0,1,7-5.376a18.755,18.755,0,0,1-3.906-6.552,24.594,24.594,0,0,1-1.358-8.316A22.384,22.384,0,0,1,3.248-28.6,19.153,19.153,0,0,1,7.5-35.14a19.263,19.263,0,0,1,6.566-4.27,22.574,22.574,0,0,1,8.442-1.526,19.933,19.933,0,0,1,7.882,1.442,18.42,18.42,0,0,1,5.782,3.822l-2.52,3.5a2.286,2.286,0,0,1-.574.588,1.627,1.627,0,0,1-.966.252,2.2,2.2,0,0,1-1.316-.5,16.292,16.292,0,0,0-1.708-1.092,13.923,13.923,0,0,0-2.618-1.092,13.472,13.472,0,0,0-4.018-.5,13.559,13.559,0,0,0-5.25.994,11.669,11.669,0,0,0-4.116,2.842A13.076,13.076,0,0,0,10.4-26.194a17.26,17.26,0,0,0-.966,5.95,17.736,17.736,0,0,0,.966,6.076,13.359,13.359,0,0,0,2.618,4.48A11.179,11.179,0,0,0,16.912-6.9a12.03,12.03,0,0,0,4.816.966A20.979,20.979,0,0,0,24.514-6.1a11.827,11.827,0,0,0,2.3-.532A10.193,10.193,0,0,0,28.8-7.574,12.421,12.421,0,0,0,30.66-8.988a2.655,2.655,0,0,1,.588-.406A1.481,1.481,0,0,1,31.92-9.548Zm48.552-10.7A22.442,22.442,0,0,1,78.988-12a19.535,19.535,0,0,1-4.172,6.566,18.892,18.892,0,0,1-6.468,4.326A21.819,21.819,0,0,1,59.976.448,21.925,21.925,0,0,1,51.59-1.106a19.009,19.009,0,0,1-6.5-4.326A19.425,19.425,0,0,1,40.908-12a22.441,22.441,0,0,1-1.484-8.246,22.442,22.442,0,0,1,1.484-8.246,19.425,19.425,0,0,1,4.186-6.566,19.009,19.009,0,0,1,6.5-4.326,21.925,21.925,0,0,1,8.386-1.554,21.648,21.648,0,0,1,8.372,1.568,19.161,19.161,0,0,1,6.468,4.326,19.382,19.382,0,0,1,4.172,6.552A22.442,22.442,0,0,1,80.472-20.244Zm-7.728,0a18.853,18.853,0,0,0-.882-5.978,12.645,12.645,0,0,0-2.534-4.494,10.91,10.91,0,0,0-4.018-2.828,13.825,13.825,0,0,0-5.334-.98,13.93,13.93,0,0,0-5.348.98,11.013,11.013,0,0,0-4.046,2.828,12.7,12.7,0,0,0-2.562,4.494,18.582,18.582,0,0,0-.9,5.978,18.582,18.582,0,0,0,.9,5.978,12.55,12.55,0,0,0,2.562,4.48,11.09,11.09,0,0,0,4.046,2.814,13.93,13.93,0,0,0,5.348.98,13.824,13.824,0,0,0,5.334-.98,10.986,10.986,0,0,0,4.018-2.814,12.5,12.5,0,0,0,2.534-4.48A18.853,18.853,0,0,0,72.744-20.244ZM106.736-16.8q.476.9.882,1.862t.8,1.946q.392-1.008.812-1.988t.9-1.876l11.984-22.428a3.11,3.11,0,0,1,.462-.672,1.429,1.429,0,0,1,.532-.364,2.348,2.348,0,0,1,.658-.14q.364-.028.868-.028h5.684V0h-6.636V-26.152q0-.728.042-1.6t.126-1.764L111.608-6.552a3.226,3.226,0,0,1-1.092,1.218,2.826,2.826,0,0,1-1.568.434h-1.036a2.826,2.826,0,0,1-1.568-.434,3.226,3.226,0,0,1-1.092-1.218L92.848-29.6q.112.924.154,1.806t.042,1.638V0H86.408V-40.488h5.684q.5,0,.868.028a2.348,2.348,0,0,1,.658.14,1.556,1.556,0,0,1,.546.364,2.827,2.827,0,0,1,.476.672ZM146.972,0h-7.56V-40.488h7.56ZM160.02-40.488a6.965,6.965,0,0,1,.84.042,1.968,1.968,0,0,1,.6.168,2.019,2.019,0,0,1,.518.364,5.837,5.837,0,0,1,.56.63l21.252,27.076q-.112-.98-.154-1.918t-.042-1.75V-40.488h6.636V0H186.34a3.451,3.451,0,0,1-1.484-.28,3.3,3.3,0,0,1-1.148-1.008L162.54-28.252q.084.9.126,1.778t.042,1.61V0h-6.636V-40.488ZM217-5.544a18.845,18.845,0,0,0,4.438-.462,18.694,18.694,0,0,0,3.6-1.274v-7.364h-5.068a1.582,1.582,0,0,1-1.148-.406,1.329,1.329,0,0,1-.42-.994V-20.3h13.468V-3.92a22.245,22.245,0,0,1-3.206,1.946,20.473,20.473,0,0,1-3.556,1.358,27.237,27.237,0,0,1-4.046.8,38.048,38.048,0,0,1-4.648.266,21.116,21.116,0,0,1-8.148-1.54,19.359,19.359,0,0,1-6.44-4.284,19.506,19.506,0,0,1-4.242-6.552,22.155,22.155,0,0,1-1.526-8.316,22.869,22.869,0,0,1,1.484-8.372,18.889,18.889,0,0,1,4.214-6.552,18.813,18.813,0,0,1,6.622-4.256,23.96,23.96,0,0,1,8.736-1.512,22.778,22.778,0,0,1,8.582,1.47,19.793,19.793,0,0,1,6.146,3.822l-2.184,3.416a1.943,1.943,0,0,1-1.708,1.036,2.541,2.541,0,0,1-1.372-.448q-.9-.532-1.834-1.064a12.408,12.408,0,0,0-2.072-.924,16.892,16.892,0,0,0-2.548-.644,18.761,18.761,0,0,0-3.262-.252,13.976,13.976,0,0,0-5.418,1.008,11.462,11.462,0,0,0-4.13,2.884,13,13,0,0,0-2.632,4.508,17.666,17.666,0,0,0-.924,5.88,18.376,18.376,0,0,0,.98,6.23,13.067,13.067,0,0,0,2.744,4.606,11.822,11.822,0,0,0,4.2,2.87A13.949,13.949,0,0,0,217-5.544ZM25.788,33.876a2.077,2.077,0,0,1-.714.868,1.8,1.8,0,0,1-.966.252,2.455,2.455,0,0,1-1.26-.434q-.7-.434-1.652-.966a13.49,13.49,0,0,0-2.226-.966,9.356,9.356,0,0,0-3.01-.434,8.849,8.849,0,0,0-2.73.378,5.779,5.779,0,0,0-1.96,1.05,4.2,4.2,0,0,0-1.19,1.61,5.285,5.285,0,0,0-.392,2.058,3.579,3.579,0,0,0,.8,2.38A6.663,6.663,0,0,0,12.6,41.3a19.619,19.619,0,0,0,3,1.2q1.68.532,3.43,1.134a33.032,33.032,0,0,1,3.43,1.4,11.887,11.887,0,0,1,3,2.016,9.137,9.137,0,0,1,2.114,2.982,10.356,10.356,0,0,1,.8,4.284,13.958,13.958,0,0,1-.938,5.138,11.854,11.854,0,0,1-2.744,4.172,12.925,12.925,0,0,1-4.41,2.8,16.236,16.236,0,0,1-5.964,1.022A19.231,19.231,0,0,1,10.5,67.07a20.045,20.045,0,0,1-3.6-1.078,18.787,18.787,0,0,1-3.22-1.68,15.845,15.845,0,0,1-2.674-2.184l2.184-3.612a2.787,2.787,0,0,1,.742-.658,1.812,1.812,0,0,1,.966-.266,2.671,2.671,0,0,1,1.512.574q.812.574,1.918,1.274a14.718,14.718,0,0,0,2.6,1.274,10.067,10.067,0,0,0,3.6.574,7.385,7.385,0,0,0,4.984-1.526A5.48,5.48,0,0,0,21.28,55.38a4.069,4.069,0,0,0-.8-2.6,6.442,6.442,0,0,0-2.114-1.694,15.784,15.784,0,0,0-3-1.162q-1.68-.476-3.416-1.036A29.457,29.457,0,0,1,8.54,47.54a11.066,11.066,0,0,1-3-2.044,9.3,9.3,0,0,1-2.114-3.15,12,12,0,0,1-.8-4.662A11.143,11.143,0,0,1,6.09,29.648a12.716,12.716,0,0,1,4.158-2.6,15.136,15.136,0,0,1,5.628-.98,18.887,18.887,0,0,1,6.608,1.12,14.918,14.918,0,0,1,5.152,3.136Zm47.18,12.88A22.441,22.441,0,0,1,71.484,55a19.535,19.535,0,0,1-4.172,6.566,18.892,18.892,0,0,1-6.468,4.326,21.819,21.819,0,0,1-8.372,1.554,21.925,21.925,0,0,1-8.386-1.554,19.009,19.009,0,0,1-6.5-4.326A19.425,19.425,0,0,1,33.4,55a23.652,23.652,0,0,1,0-16.492,19.425,19.425,0,0,1,4.186-6.566,19.009,19.009,0,0,1,6.5-4.326,21.925,21.925,0,0,1,8.386-1.554,21.648,21.648,0,0,1,8.372,1.568,19.161,19.161,0,0,1,6.468,4.326,19.382,19.382,0,0,1,4.172,6.552A22.441,22.441,0,0,1,72.968,46.756Zm-7.728,0a18.853,18.853,0,0,0-.882-5.978,12.645,12.645,0,0,0-2.534-4.494,10.91,10.91,0,0,0-4.018-2.828,15.044,15.044,0,0,0-10.682,0,11.013,11.013,0,0,0-4.046,2.828,12.7,12.7,0,0,0-2.562,4.494,18.582,18.582,0,0,0-.9,5.978,18.582,18.582,0,0,0,.9,5.978,12.55,12.55,0,0,0,2.562,4.48,11.09,11.09,0,0,0,4.046,2.814,15.044,15.044,0,0,0,10.682,0,10.986,10.986,0,0,0,4.018-2.814,12.5,12.5,0,0,0,2.534-4.48A18.853,18.853,0,0,0,65.24,46.756Zm52.5,0A22.441,22.441,0,0,1,116.256,55a19.535,19.535,0,0,1-4.172,6.566,18.892,18.892,0,0,1-6.468,4.326,23.366,23.366,0,0,1-16.758,0,19.009,19.009,0,0,1-6.5-4.326A19.425,19.425,0,0,1,78.176,55a23.652,23.652,0,0,1,0-16.492,19.425,19.425,0,0,1,4.186-6.566,19.009,19.009,0,0,1,6.5-4.326,21.925,21.925,0,0,1,8.386-1.554,21.648,21.648,0,0,1,8.372,1.568,19.161,19.161,0,0,1,6.468,4.326,19.382,19.382,0,0,1,4.172,6.552A22.441,22.441,0,0,1,117.74,46.756Zm-7.728,0a18.853,18.853,0,0,0-.882-5.978,12.645,12.645,0,0,0-2.534-4.494,10.91,10.91,0,0,0-4.018-2.828,15.044,15.044,0,0,0-10.682,0,11.013,11.013,0,0,0-4.046,2.828,12.7,12.7,0,0,0-2.562,4.494,18.582,18.582,0,0,0-.9,5.978,18.582,18.582,0,0,0,.9,5.978,12.55,12.55,0,0,0,2.562,4.48A11.09,11.09,0,0,0,91.9,60.028a15.044,15.044,0,0,0,10.682,0,10.986,10.986,0,0,0,4.018-2.814,12.5,12.5,0,0,0,2.534-4.48A18.853,18.853,0,0,0,110.012,46.756Zm17.612-20.244a6.964,6.964,0,0,1,.84.042,1.969,1.969,0,0,1,.6.168,2.02,2.02,0,0,1,.518.364,5.837,5.837,0,0,1,.56.63L151.4,54.792q-.112-.98-.154-1.918t-.042-1.75V26.512h6.636V67h-3.892a3.451,3.451,0,0,1-1.484-.28,3.3,3.3,0,0,1-1.148-1.008L130.144,38.748q.084.9.126,1.778t.042,1.61V67h-6.636V26.512Zm47.152,36.68a4.306,4.306,0,0,1,.322-1.652,3.948,3.948,0,0,1,.9-1.344,4.41,4.41,0,0,1,1.358-.9,4.219,4.219,0,0,1,1.68-.336,4.15,4.15,0,0,1,1.652.336,4.118,4.118,0,0,1,2.24,2.24,4.264,4.264,0,0,1,0,3.318,4.279,4.279,0,0,1-.9,1.33,4.054,4.054,0,0,1-1.344.882,4.306,4.306,0,0,1-1.652.322,4.378,4.378,0,0,1-1.68-.322,4.214,4.214,0,0,1-1.358-.882,3.981,3.981,0,0,1-.9-1.33A4.275,4.275,0,0,1,174.776,63.192Zm12.6,0a4.306,4.306,0,0,1,.322-1.652,3.948,3.948,0,0,1,.9-1.344,4.41,4.41,0,0,1,1.358-.9,4.219,4.219,0,0,1,1.68-.336,4.15,4.15,0,0,1,1.652.336,4.118,4.118,0,0,1,2.24,2.24,4.264,4.264,0,0,1,0,3.318,4.279,4.279,0,0,1-.9,1.33,4.054,4.054,0,0,1-1.344.882,4.306,4.306,0,0,1-1.652.322,4.378,4.378,0,0,1-1.68-.322,4.214,4.214,0,0,1-1.358-.882,3.981,3.981,0,0,1-.9-1.33A4.275,4.275,0,0,1,187.376,63.192Zm12.6,0a4.306,4.306,0,0,1,.322-1.652,3.948,3.948,0,0,1,.9-1.344,4.41,4.41,0,0,1,1.358-.9,4.219,4.219,0,0,1,1.68-.336,4.15,4.15,0,0,1,1.652.336,4.118,4.118,0,0,1,2.24,2.24,4.264,4.264,0,0,1,0,3.318,4.279,4.279,0,0,1-.9,1.33,4.054,4.054,0,0,1-1.344.882,4.306,4.306,0,0,1-1.652.322,4.378,4.378,0,0,1-1.68-.322,4.214,4.214,0,0,1-1.358-.882,3.981,3.981,0,0,1-.9-1.33A4.275,4.275,0,0,1,199.976,63.192Zm12.6,0a4.306,4.306,0,0,1,.322-1.652,3.948,3.948,0,0,1,.9-1.344,4.41,4.41,0,0,1,1.358-.9,4.219,4.219,0,0,1,1.68-.336,4.15,4.15,0,0,1,1.652.336,4.118,4.118,0,0,1,2.24,2.24,4.264,4.264,0,0,1,0,3.318,4.279,4.279,0,0,1-.9,1.33,4.054,4.054,0,0,1-1.344.882,4.306,4.306,0,0,1-1.652.322,4.378,4.378,0,0,1-1.68-.322,4.214,4.214,0,0,1-1.358-.882,3.981,3.981,0,0,1-.9-1.33A4.275,4.275,0,0,1,212.576,63.192Z" transform="translate(-1.008 40.936)"/>
</svg>
