<svg id="comment" xmlns="http://www.w3.org/2000/svg" viewBox="0 0 17.475 17.475">
  <defs>
    <style>
      .cls-1 {
        fill: #98b243;
      }
    </style>
  </defs>
  <g id="g2221" transform="translate(0 0)">
    <g id="g2163">
      <g id="g2161">
        <path id="polygon2157" class="cls-1" d="M0,20.238V30.7H1.315v2.938L3.536,30.7h9.053v-3.14H3.946V20.238Z" transform="translate(0 -16.168)"/>
        <path id="path2159" class="cls-1" d="M27.375,17.655l2.268,3.1v-3.1h1.409V6.84H17.993V17.655h9.382ZM28.9,11.119a1.131,1.131,0,0,1,.994,1.23,1.017,1.017,0,1,1-1.988,0A1.131,1.131,0,0,1,28.9,11.119ZM20.543,13.58a1.131,1.131,0,0,1-.994-1.23,1.131,1.131,0,0,1,.994-1.23,1.131,1.131,0,0,1,.994,1.23A1.131,1.131,0,0,1,20.543,13.58Zm2.785,0a1.131,1.131,0,0,1-.994-1.23,1.131,1.131,0,0,1,.994-1.23,1.131,1.131,0,0,1,.994,1.23A1.131,1.131,0,0,1,23.327,13.58Zm2.785,0a1.131,1.131,0,0,1-.994-1.23,1.131,1.131,0,0,1,.994-1.23c.018,0,.036,0,.054,0a1.147,1.147,0,0,1,.94,1.227,1.147,1.147,0,0,1-.94,1.227C26.148,13.578,26.13,13.58,26.112,13.58Z" transform="translate(-13.577 -6.84)"/>
      </g>
    </g>
  </g>
</svg>
