<svg xmlns="http://www.w3.org/2000/svg" viewBox="0 0 61 75.837">
  <defs>
    <style>
      .cls-1 {
        fill: #4d4d4d;
      }

      .cls-2 {
        fill: #9db63a;
      }
    </style>
  </defs>
  <g id="dap-icon" transform="translate(-0.497 -260.401)">
    <g id="g7548" transform="translate(0.497 260.401)">
      <path id="path7542" class="cls-1" d="M-361.176,111.424l5.39-5.316,5.3,5.316v32.39h-10.688Z" transform="translate(361.176 -67.977)"/>
      <path id="path7544" class="cls-1" d="M-353,103.394l5.389-5.457,5.3,5.457v49.569H-353Z" transform="translate(370.333 -77.127)"/>
      <path id="path7546" class="cls-2" d="M-335.641,163.592a4.232,4.232,0,0,1-1.576-1.923c-.187-.418-.708-3.192-1.663-8.847-.764-4.531-1.521-8.633-1.681-9.116a2.187,2.187,0,0,0-.724-1.206c-1-.756-2.4-3.4-2.936-5.509-.561-2.226-.6-2.931-.6-10.7,0-8.259.006-8.325.877-10.082a7.046,7.046,0,0,1,3.4-3.274,20.6,20.6,0,0,1,2.383-.932c1.164-.352,1.165-.352,5.981-.4,5.256-.05,6.058.02,7.969.7a7.888,7.888,0,0,1,4.768,3.714c.983,1.869.95,1.5.95,10.425,0,7.181-.023,8.1-.234,9.139a17.614,17.614,0,0,1-1.139,3.783A11.015,11.015,0,0,1-322,142.49c-.337.153-.718,1.026-1.025,2.346-.1.428-.767,4.275-1.483,8.548-1.419,8.463-1.467,8.652-2.466,9.646-.918.913-.986.926-4.744.926h-3.352Zm1.7-54.472a10.9,10.9,0,0,1-8.182-7.462,8.042,8.042,0,0,1-.3-2.96,7.992,7.992,0,0,1,.3-2.956,10.6,10.6,0,0,1,5.725-6.628,10.745,10.745,0,0,1,9.035,0,10.369,10.369,0,0,1,6.093,9.583,10.5,10.5,0,0,1-7.569,10.169,8.644,8.644,0,0,1-2.717.33,16.364,16.364,0,0,1-2.384-.078Z" transform="translate(379.489 -88.119)"/>
    </g>
  </g>
</svg>
