<svg xmlns="http://www.w3.org/2000/svg" viewBox="0 0 10.766 13.596">
  <defs>
    <style>
      .cls-1 {
        opacity: 0.48;
      }
    </style>
  </defs>
  <g id="delete" class="cls-1" transform="translate(-18.521 -206.589)">
    <g id="g2029" transform="translate(18.521 206.589)">
      <g id="g1971" transform="translate(0)">
        <path id="path1965" d="M15.913,1.166h-2.5V0H10.023V1.166h-2.5V3.008h8.387ZM10.922.921h1.594v.246H10.922Z" transform="translate(-7.526)"/>
        <path id="path1967" d="M18.266,25.7l.17-2.649h-7.13l.57,8.9h3.42a4.017,4.017,0,0,1-.707-2.284A3.936,3.936,0,0,1,18.266,25.7Z" transform="translate(-10.677 -19.126)"/>
        <path id="path1969" d="M39.424,43.972A3.052,3.052,0,1,0,42.4,47.024,3.019,3.019,0,0,0,39.424,43.972Zm1.623,4.063-.635.651-.987-1.012-.987,1.012-.635-.651.987-1.012L37.8,46.012l.635-.651.987,1.012.987-1.012.635.651-.987,1.012Z" transform="translate(-31.637 -36.479)"/>
      </g>
    </g>
  </g>
</svg>
