<svg id="Group_2826" data-name="Group 2826" xmlns="http://www.w3.org/2000/svg" viewBox="0 0 228 248">
  <path fill="#95af28"  id="Path_128" data-name="Path 128" d="M113,124.6s9.9-3.8,9.9-10.5c0-12.5-9.5-27.3-9.5-27.3s-8.3,15.1-8.3,28.9C105.1,122.4,113,124.6,113,124.6Z"/>
  <path fill="#95af28" id="Path_129" data-name="Path 129" d="M197.2.4a9.852,9.852,0,0,1,.2,1.7,9.3,9.3,0,0,1-18.6,0,7.613,7.613,0,0,1,.3-2.1h-6.6a7.613,7.613,0,0,1,.3,2.1,9.3,9.3,0,0,1-18.6,0,7.613,7.613,0,0,1,.3-2.1h-6.6a7.613,7.613,0,0,1,.3,2.1,9.3,9.3,0,0,1-18.6,0,7.613,7.613,0,0,1,.3-2.1h-6.6a7.613,7.613,0,0,1,.3,2.1,9.3,9.3,0,0,1-18.6,0,7.612,7.612,0,0,1,.3-2.1H98.7A7.613,7.613,0,0,1,99,2.1a9.3,9.3,0,0,1-18.6,0A7.612,7.612,0,0,1,80.7,0H74a7.613,7.613,0,0,1,.3,2.1,9.3,9.3,0,0,1-18.6,0A7.612,7.612,0,0,1,56,0H49.4a7.612,7.612,0,0,1,.3,2.1,9.3,9.3,0,1,1-18.6,0A11.019,11.019,0,0,1,31.3.3,36.119,36.119,0,0,0,0,36V212a35.977,35.977,0,0,0,36,36H192a35.977,35.977,0,0,0,36-36V36A35.993,35.993,0,0,0,197.2.4ZM204,212a12.035,12.035,0,0,1-12,12H168.9V205.8A12.761,12.761,0,0,0,156.1,193H122.9V132.5a5.015,5.015,0,0,0-5-5H110a5.028,5.028,0,0,0-5,4.7,28.115,28.115,0,0,0-4.1,8.9c-.5,2.2,1.3,3.7,2.2,4.3a20.154,20.154,0,0,0-.7,2.3c-.5,2.6,2,4.2,2.6,4.5V193H71.9a12.761,12.761,0,0,0-12.8,12.8V224H36a12.035,12.035,0,0,1-12-12V56H204Z"/>
</svg>
