<svg xmlns="http://www.w3.org/2000/svg" viewBox="0 0 13.494 14.394">
  <defs>
    <style>
      .cls-1 {
        opacity: 0.48;
      }
    </style>
  </defs>
  <g id="Download" class="cls-1" transform="translate(-16.284 -208.093)">
    <g id="g1963" transform="translate(16.284 208.093)">
      <g id="g1897" transform="translate(3.149)">
        <g id="g1895">
          <path id="path1893" d="M25.754,6.561a.449.449,0,0,0-.409-.264h-1.8V.45A.45.45,0,0,0,23.1,0H21.3a.45.45,0,0,0-.45.45V6.3h-1.8a.45.45,0,0,0-.338.746l3.149,3.6a.449.449,0,0,0,.676,0l3.149-3.6a.448.448,0,0,0,.071-.482Z" transform="translate(-18.598)"/>
        </g>
      </g>
      <g id="g1903" transform="translate(0 9.896)">
        <g id="g1901">
          <path id="path1899" d="M14.02,51.146v2.7h-9.9v-2.7h-1.8v3.6a.9.9,0,0,0,.9.9H14.919a.9.9,0,0,0,.9-.9v-3.6Z" transform="translate(-2.325 -51.146)"/>
        </g>
      </g>
    </g>
  </g>
</svg>
