<svg xmlns="http://www.w3.org/2000/svg" viewBox="0 0 82.847 81.769">
  <defs>
    <style>
      .cls-1 {
        fill: #9db63a;
      }

      .cls-2 {
        fill: #fff;
      }

      .cls-3 {
        fill: #4d4d4d;
      }
    </style>
  </defs>
  <g id="empDB" transform="translate(-0.365 -288.874)">
    <ellipse id="ellipse4232" class="cls-1" cx="40.631" cy="12.783" rx="40.631" ry="12.783" transform="translate(0.365 288.874)"/>
    <path id="path4234" class="cls-1" d="M.365,290.532v14.241H.4c.164,3.354,4.512,6.555,12.107,8.909A103.75,103.75,0,0,0,41,317.359c9.4-.053,19.428-.917,28.492-3.677,7.6-2.354,11.944-5.555,12.108-8.909h.031V290.532c-6.516,6.2-22.026,9.829-40.631,9.855-18.6-.032-34.115-3.65-40.631-9.855Z" transform="translate(0 15.813)"/>
    <path id="path4239" class="cls-1" d="M.365,292.31v14.241H.4C.56,309.9,4.908,313.105,12.5,315.46A103.749,103.749,0,0,0,41,319.137c9.4-.053,19.428-.918,28.492-3.677,7.6-2.354,11.944-5.555,12.108-8.909h.031V292.31C75.111,298.515,59.6,302.138,41,302.165c-18.6-.031-34.115-3.649-40.631-9.855Z" transform="translate(0 32.765)"/>
    <path id="path4241" class="cls-1" d="M.365,294.089v14.241H.4c.164,3.355,4.512,6.555,12.107,8.909A103.749,103.749,0,0,0,41,320.916c9.4-.053,19.428-.917,28.492-3.677,7.6-2.355,11.944-5.555,12.108-8.909h.031V294.089C75.111,300.294,59.6,303.917,41,303.943c-18.6-.031-34.115-3.649-40.631-9.854Z" transform="translate(0 49.727)"/>
    <path id="path4987" class="cls-2" d="M23.575,2.973A10.832,10.832,0,0,0,16.389,5.94c-3.45,3.074-4.77,7.206-4.921,11.819V17.8a12.825,12.825,0,0,0,3.354,9.026l.005.005a8.775,8.775,0,0,0,1.824,1.459c.033.048.044.081.082.13,1.248,1.669-1.353,2.147-2.368,2.531a3.407,3.407,0,0,0-.474.229c-.1.054-.3.147-.3.147l.006.011c-.783.383-1.614.922-2.864,1.677a8.762,8.762,0,0,0-3.473,4.377,11.462,11.462,0,0,0-.871,4.077c0,.713-.039,2.763-.049,4.856S6.327,50.5,6.459,51.7a11.518,11.518,0,0,0,.865,3.451l.408.806.9-.043a22.113,22.113,0,0,0,5.923-1.655,42.383,42.383,0,0,0,7.022-3.3,10.331,10.331,0,0,0,3.795-3.936,6.946,6.946,0,0,0,.729-2.221l.005-.049.223-8.863-1.181,1.606c-.053-.382-.094-.68-.158-1.089a5.269,5.269,0,0,1,.893-2.831l.3-.4-.136-3.958-1.562.256-.125.022.027-.142c.26-.057.446-.059.729-.131l1.056-.267-.049-25.7-1.192-.174a10.045,10.045,0,0,0-1.366-.1Z" transform="translate(56.878 313.64)"/>
    <path id="path4964-6" class="cls-3" d="M22.314,291.626a9.444,9.444,0,0,0-6.255,2.613c-3.129,2.789-4.314,6.435-4.459,10.822a11.412,11.412,0,0,0,2.989,8.079,8.455,8.455,0,0,0,4.54,2.379,9.9,9.9,0,0,0,4.393-.4l-.044-23.4a8.882,8.882,0,0,0-1.165-.084ZM23.457,318.1s-2.685.438-3.631.7-.328.924-.261,1.078a18.376,18.376,0,0,1,1.606,3.038c.022.528-.309,3.52-.485,4.84s-.483.9-.55.817-1.082-1.8-1.214-2.047-3.669-5.237-3.669-5.237-.311-.459-.817-1.361-1.409-.18-4.246,1.535-3.675,5.745-3.675,7.262-.149,8.092.071,10.071a9.448,9.448,0,0,0,.724,2.972c1.892-.084,8.668-2.509,12.276-4.752s3.871-5.1,3.871-5.1l.109-4.377s-.286.389-.506.3-.394-2-.7-3.979a5.868,5.868,0,0,1,1.165-3.892Z" transform="translate(58.17 26.244)"/>
  </g>
</svg>
