<?xml version="1.0" encoding="UTF-8" standalone="no"?>
<!-- Generator: Adobe Illustrator 22.1.0, SVG Export Plug-In . SVG Version: 6.00 Build 0)  -->

<svg
   xmlns:dc="http://purl.org/dc/elements/1.1/"
   xmlns:cc="http://creativecommons.org/ns#"
   xmlns:rdf="http://www.w3.org/1999/02/22-rdf-syntax-ns#"
   xmlns:svg="http://www.w3.org/2000/svg"
   xmlns="http://www.w3.org/2000/svg"
   xmlns:sodipodi="http://sodipodi.sourceforge.net/DTD/sodipodi-0.dtd"
   xmlns:inkscape="http://www.inkscape.org/namespaces/inkscape"
   version="1.1"
   id="Capa_1"
   inkscape:version="0.92.3 (2405546, 2018-03-11)"
   sodipodi:docname="female-user.svg"
   x="0px"
   y="0px"
   viewBox="0 0 56.7 56.7"
   style="enable-background:new 0 0 56.7 56.7;"
   xml:space="preserve"><metadata
   id="metadata42"><rdf:RDF><cc:Work
       rdf:about=""><dc:format>image/svg+xml</dc:format><dc:type
         rdf:resource="http://purl.org/dc/dcmitype/StillImage" /></cc:Work></rdf:RDF></metadata><defs
   id="defs40" />
<style
   type="text/css"
   id="style2">
	.st0{fill:#556080;}
</style>
<sodipodi:namedview
   bordercolor="#666666"
   borderopacity="1"
   gridtolerance="10"
   guidetolerance="10"
   id="namedview37"
   inkscape:current-layer="Capa_1"
   inkscape:cx="-15.226923"
   inkscape:cy="10.582554"
   inkscape:pageopacity="0"
   inkscape:pageshadow="2"
   inkscape:window-height="1017"
   inkscape:window-maximized="1"
   inkscape:window-width="1920"
   inkscape:window-x="-8"
   inkscape:window-y="-8"
   inkscape:zoom="8.3202595"
   objecttolerance="10"
   pagecolor="#ffffff"
   showgrid="false">
	</sodipodi:namedview>
<g
   id="g6">
</g>
<g
   id="g8">
</g>
<g
   id="g10">
</g>
<g
   id="g12">
</g>
<g
   id="g14">
</g>
<g
   id="g16">
</g>
<g
   id="g18">
</g>
<g
   id="g20">
</g>
<g
   id="g22">
</g>
<g
   id="g24">
</g>
<g
   id="g26">
</g>
<g
   id="g28">
</g>
<g
   id="g30">
</g>
<g
   id="g32">
</g>
<g
   id="g34">
</g>
<g
   id="g908"
   transform="matrix(1.2905911,0,0,1.2905911,-149.78108,-52.123745)">
	<g
   id="g852"
   transform="translate(109.8178,29.644068)">
	</g>
	<g
   id="g854">
	</g>
	<g
   id="g856">
	</g>
	<g
   id="g858">
	</g>
	<g
   id="g860">
	</g>
	<g
   id="g862">
	</g>
	<g
   id="g864">
	</g>
	<g
   id="g866">
	</g>
	<g
   id="g868">
	</g>
	<g
   id="g870">
	</g>
	<g
   id="g872">
	</g>
	<g
   id="g874">
	</g>
	<g
   id="g876">
	</g>
	<g
   id="g878">
	</g>
	<g
   id="g880">
	</g>
	<g
   id="g882">
	</g>
</g>
<path
   class="st0"
   d="M28.6,1.7c-14.9,0-26.9,12-26.9,26.9c0,8.3,3.8,15.8,9.8,20.7c0.3-0.3,0.5-0.4,0.9-0.6c2.3-2.8,5.9-5,10.1-6.1  v-0.9C22,41.9,21.5,42,21,42h0c-3.8,0-6.4-4.2-6.5-4.4c-0.2-0.2-0.2-0.6,0-0.8c0.1-0.3,0.4-0.4,0.7-0.4c0.8-0.1,1.5-0.4,2.1-1.1  c0.8-1,1.3-2.6,1.6-4.3c-0.9-2.3-1.5-4.6-1.5-6.6c0-6.8,3.1-12.8,7.7-15c1.3-0.7,2.2-0.9,5.7-0.5c5.2,1.4,9,7.8,9,15.5  c0,2-0.6,4.4-1.6,6.7c0.3,1.6,0.8,3.2,1.7,4.2c0.6,0.7,1.3,1.1,2.1,1.1c0.3,0,0.5,0.2,0.7,0.4c0.1,0.3,0.1,0.6,0,0.8  c-0.1,0.2-2.7,4.4-6.5,4.4c-0.5,0-0.9-0.1-1.4-0.2v0.9c4.2,1.1,7.8,3.3,10.1,6.2c0.3,0.2,0.5,0.3,0.8,0.6c6-4.9,9.9-12.4,9.9-20.8  C55.5,13.8,43.5,1.7,28.6,1.7z"
   id="path37"
   style="fill:#c7cddf;fill-opacity:1" />
</svg>