<svg xmlns="http://www.w3.org/2000/svg" viewBox="0 0 86.572 85.383">
  <defs>
    <style>
      .cls-1 {
        fill: #9cb539;
      }

      .cls-2 {
        fill: #4f4f4f;
      }
    </style>
  </defs>
  <g id="Inet" transform="translate(-1.636 -266.394)">
    <g id="g891" transform="translate(1.636 266.394)">
      <g id="g918" transform="translate(0 0)">
        <path id="path922" class="cls-1" d="M63.316,191.355a1.707,1.707,0,0,1,.285-2.417,1.646,1.646,0,0,1,2.266.946c.41,1.291-1.582,2.44-2.551,1.471Zm-13.21-2.765c-.815-.815-.092-2.7,1.036-2.7.512,0,1.668,1.079,1.668,1.556a2.659,2.659,0,0,1-.318.922A1.741,1.741,0,0,1,50.106,188.59Zm26.226-.114c-.647-.647-.608-1.235.132-1.975.7-.7,1.019-.748,1.863-.3a1.741,1.741,0,0,1,.226,2.385,1.72,1.72,0,0,1-2.221-.114Zm-55.164-3.367c0-3.608.387-4.227,3.551-5.682a27.72,27.72,0,0,1,2.9-1.22,15.979,15.979,0,0,1,1.429,3.456c.966,2.817,1.3,3.456,1.784,3.456.447,0,.715-.372,1.053-1.463.409-1.316.4-1.568-.045-2.51-.432-.906-.44-1.1-.059-1.413.744-.617,1.472-.11,1.233.859-.489,1.984-.492,2.438-.024,3.549.823,1.953,1.39,1.443,2.657-2.388a15.866,15.866,0,0,1,1.4-3.463,13.471,13.471,0,0,1,2.914,1.117c2.382,1.1,2.673,1.33,3.129,2.47a10.568,10.568,0,0,1,.5,3.4v2.144H21.168v-2.314Zm63.9.973c0-2.267.576-4.6,1.312-5.31a23.6,23.6,0,0,1,5.473-2.565,18.651,18.651,0,0,1,1.227,3.415,12.718,12.718,0,0,0,1.431,3.567c.579.222,1.241-.444,1.468-1.474.109-.5.314-.9.456-.9s.347.405.456.9c.226,1.031.889,1.7,1.468,1.474a12.718,12.718,0,0,0,1.431-3.567,18.651,18.651,0,0,1,1.227-3.415c.106,0,1.226.428,2.49.952,3.279,1.358,3.67,1.824,4.054,4.829a12.083,12.083,0,0,1,.135,2.96c-.159.416-1.571.474-11.4.474H85.065Zm10.76-5.092c-.428-1.034-.225-1.555.607-1.555s1.035.52.607,1.555C96.567,182.128,96.3,182.128,95.825,180.99Zm-65.288-4.874c-1.317-.838-1.813-1.486-2.888-3.776-.941-2-1.16-3.039-.731-3.468a6.533,6.533,0,0,0,.23-2.149,3.963,3.963,0,0,1,.872-3.059c1.519-1.992,4.393-2.927,6.146-2a17,17,0,0,1,1.977,1.419l1.306,1.064v2.4a6.289,6.289,0,0,0,.32,2.6c.424.262.174,1.078-1.155,3.77a9.656,9.656,0,0,1-1.993,2.873,3.769,3.769,0,0,1-4.084.322Zm64.2.074c-1.293-.669-1.521-.942-2.746-3.3-1.075-2.068-1.084-2.114-.894-4.915.217-3.195.537-4.023,2.081-5.378,1.976-1.735,4.5-1.683,6.688.14,1.623,1.352,1.881,1.967,1.679,4.014a6.94,6.94,0,0,0,.174,2.481c.284.753.189,1.18-.667,3C99.21,176.178,97.177,177.449,94.742,176.19ZM31.174,155.913a1.72,1.72,0,0,1-.114-2.221,1.646,1.646,0,0,1,2.7,1.279,1.742,1.742,0,0,1-1.536,1.425A1.757,1.757,0,0,1,31.174,155.913Zm64.182-.133a1,1,0,0,1-.2-1.391,1.374,1.374,0,0,1,2.068-.805,1.152,1.152,0,0,1,.748,1.208,1.43,1.43,0,0,1-2.612.988Zm-59.63-12.3c-1.51-.562-.85-2.75.83-2.75.667,0,.984.187,1.171.691a1.522,1.522,0,0,1-2,2.059Zm55.643-.178a1.684,1.684,0,0,1,.178-2.356,1.644,1.644,0,0,1,2.306.876A1.5,1.5,0,0,1,91.368,143.3Zm-47.1-10.007a1.5,1.5,0,0,1,.4-2.271c.711-.466.825-.466,1.536,0a1.393,1.393,0,0,1-.768,2.639A1.92,1.92,0,0,1,44.269,133.294Zm38.093,0a1.641,1.641,0,0,1-.369-1.014c0-.887.575-1.382,1.6-1.382a1.378,1.378,0,0,1,1.182,2.112A1.707,1.707,0,0,1,82.362,133.294Zm-29.185-3.786c.178-3.384.545-3.877,4.009-5.369l2.68-1.155,1.156,3.553a16.152,16.152,0,0,0,1.463,3.645c.6.18,1.045-.392,1.432-1.837.309-1.154.312-1.59.017-2.062-.645-1.032-.472-1.836.394-1.836s1.009.672.412,1.982a4.053,4.053,0,0,0,.883,3.6c.668.555,1.085-.156,2.24-3.818.573-1.816,1.069-3.3,1.1-3.3.067,0,3.5,1.626,4.733,2.24s1.842,2.212,1.843,4.749v2.227h-22.5Zm10.388-8.076c-1.448-.227-2.462-1.3-3.731-3.946-1.109-2.314-1.208-2.7-.89-3.465a3.932,3.932,0,0,0,.155-1.947,5.343,5.343,0,0,1,2.331-4.811,3.928,3.928,0,0,1,2.868-.932c1.666.012,2.284.267,3.825,1.582a3.985,3.985,0,0,1,1.412,4.112c-.129,1.033-.08,1.667.139,1.8a.952.952,0,0,1,.338.742c0,.908-2.478,5.574-3.218,6.059a5.135,5.135,0,0,1-3.229.8Z" transform="translate(-21.168 -106.333)"/>
        <path id="path920" class="cls-2" d="M56.972,175.166a1.707,1.707,0,0,1,.285-2.417,1.646,1.646,0,0,1,2.266.946c.41,1.291-1.582,2.44-2.551,1.471ZM43.763,172.4c-.815-.815-.092-2.7,1.036-2.7.512,0,1.668,1.079,1.668,1.556a2.659,2.659,0,0,1-.318.922A1.741,1.741,0,0,1,43.763,172.4Zm26.226-.114c-.647-.647-.608-1.235.132-1.975.7-.7,1.019-.748,1.863-.3a1.741,1.741,0,0,1,.226,2.385,1.72,1.72,0,0,1-2.221-.114ZM54.76,156.477a16.864,16.864,0,0,1-2.419-.859l-1.344-.6-1.574.733c-1.443.672-4.493,1.045-4.493.549a7.433,7.433,0,0,1,1.215-1.405c1.737-1.737,1.79-2.157.507-4.028a12.177,12.177,0,0,1-2.273-8.355c.092-2.668.231-3.334,1.054-5.069a13.587,13.587,0,0,1,12.657-7.984,12.825,12.825,0,0,1,9.6,3.887,13.486,13.486,0,0,1,.525,19.006,12.637,12.637,0,0,1-6.119,3.865,16.9,16.9,0,0,1-7.334.261Zm-1.532-11.912a1.968,1.968,0,0,0-1.281-3.437,2.193,2.193,0,0,0-2.1,1.857,2.893,2.893,0,0,0,2.1,2.136,2.527,2.527,0,0,0,1.281-.556Zm6.14-.058a1.954,1.954,0,0,0-1.276-3.379,2.181,2.181,0,0,0-2.1,1.9,2.5,2.5,0,0,0,2.05,2.093,2.224,2.224,0,0,0,1.329-.614Zm6.144,0c1.777-1.777-.62-4.355-2.7-2.9-1.4.98-.451,3.515,1.314,3.515a2.286,2.286,0,0,0,1.382-.614ZM24.83,139.724a1.72,1.72,0,0,1-.114-2.221,1.646,1.646,0,0,1,2.7,1.279,1.742,1.742,0,0,1-1.536,1.425,1.757,1.757,0,0,1-1.053-.483Zm64.182-.133a1,1,0,0,1-.2-1.391,1.374,1.374,0,0,1,2.068-.805,1.152,1.152,0,0,1,.748,1.208,1.43,1.43,0,0,1-2.612.988Zm-59.63-12.3c-1.51-.563-.85-2.75.83-2.75.667,0,.984.187,1.171.691a1.522,1.522,0,0,1-2,2.059Zm55.643-.178a1.684,1.684,0,0,1,.178-2.356,1.644,1.644,0,0,1,2.306.876A1.5,1.5,0,0,1,85.025,127.112Zm-47.1-10.007a1.5,1.5,0,0,1,.4-2.271c.711-.466.825-.466,1.536,0a1.393,1.393,0,0,1-.768,2.639A1.92,1.92,0,0,1,37.926,117.105Zm38.093,0a1.641,1.641,0,0,1-.369-1.014c0-.887.575-1.382,1.6-1.382a1.378,1.378,0,0,1,1.182,2.112A1.707,1.707,0,0,1,76.018,117.105Z" transform="translate(-14.824 -90.144)"/>
      </g>
    </g>
  </g>
</svg>
