<svg xmlns="http://www.w3.org/2000/svg" viewBox="0 0 151 41">
  <defs>
    <style>
      .cls-1 {
        fill: #383085;
      }

      .cls-2 {
        fill: #95af28;
      }

      .cls-3 {
        fill: #585857;
        font-size: 10px;
        font-family: Lato-Bold, Lato;
        font-weight: 700;
      }
    </style>
  </defs>
  <g id="Group_441" data-name="Group 441" transform="translate(1749 -4147)">
    <g id="merilytics1" transform="translate(-1749.96 3862.54)">
      <g id="g1175" transform="translate(0.96 284.46)">
        <g id="g1191" transform="translate(0 0)">
          <g id="layer1-1" transform="translate(0 0)">
            <g id="g23886" transform="translate(0 0)">
              <g id="g23884" transform="translate(0 0)">
                <path id="path23864" class="cls-1" d="M129.188,50.393V37.74a6.112,6.112,0,0,1,.88-3.013,6.187,6.187,0,0,1,2.433-2.265,7.359,7.359,0,0,1,3.594-.861,5.972,5.972,0,0,1,3.051.824,7.153,7.153,0,0,1,2,1.8,5.858,5.858,0,0,1,2.209-1.872,7.168,7.168,0,0,1,3.35-.749,6.588,6.588,0,0,1,5.559,3.088,5.7,5.7,0,0,1,.88,3.051V50.393h-3.369V38.77a5.091,5.091,0,0,0-.318-1.778,3.288,3.288,0,0,0-1.048-1.5,2.949,2.949,0,0,0-1.928-.655A3.213,3.213,0,0,0,143.693,36a4.608,4.608,0,0,0-.824,2.77V50.393h-3.444V39.013a5.912,5.912,0,0,0-.374-2.171,2.993,2.993,0,0,0-1.142-1.479,3.273,3.273,0,0,0-1.89-.524,2.99,2.99,0,0,0-2.751,1.273,6.2,6.2,0,0,0-.693,3.126V50.393Z" transform="translate(-129.188 -23.516)"/>
                <path id="path23866" class="cls-1" d="M143.034,41.615l9.171-5.053a5.994,5.994,0,0,0-1.628-1.254,5.909,5.909,0,0,0-2.676-.468,5.777,5.777,0,0,0-2.433.505,5.345,5.345,0,0,0-1.89,1.441A6.571,6.571,0,0,0,142.4,38.92,8.351,8.351,0,0,0,142,41.5a7.284,7.284,0,0,0,.8,2.976,5.752,5.752,0,0,0,5.241,3.07,5.709,5.709,0,0,0,4.174-1.479,8.444,8.444,0,0,0,1.965-4.3l3.369.468a8.242,8.242,0,0,1-1.16,3.8,9.492,9.492,0,0,1-3.332,3.388,9.955,9.955,0,0,1-5.241,1.441,9.063,9.063,0,0,1-4.6-1.254,9.945,9.945,0,0,1-3.463-3.406,8.766,8.766,0,0,1-1.291-4.586,10.253,10.253,0,0,1,1.422-5.559,9.047,9.047,0,0,1,3.631-3.35,9.652,9.652,0,0,1,4.38-1.1,10.21,10.21,0,0,1,3.762.655,8.185,8.185,0,0,1,2.938,1.928,13.273,13.273,0,0,1,2.321,3.257l-12.428,6.888Z" transform="translate(-111.458 -23.516)"/>
                <path id="path23868" class="cls-1" d="M145.984,31.995H149.2v2.152a4.87,4.87,0,0,1,1.1-1.291,5.358,5.358,0,0,1,1.61-.917,6,6,0,0,1,2.078-.337h1.029v3.238h-.8a3.956,3.956,0,0,0-3.706,1.872,8.492,8.492,0,0,0-1.16,4.024v9.658h-3.369Z" transform="translate(-97.096 -23.516)"/>
                <path id="path23870" class="cls-1" d="M150.176,31.58a2.057,2.057,0,0,1,.636-1.385,1.953,1.953,0,0,1,1.4-.58,1.862,1.862,0,0,1,1.385.6,1.925,1.925,0,0,1,.6,1.441,2.185,2.185,0,0,1-.262,1.086,1.683,1.683,0,0,1-.692.693,1.975,1.975,0,0,1-.955.243,2.15,2.15,0,0,1-1.5-.58,1.984,1.984,0,0,1-.618-1.516Zm.318,22.609v-18.4h3.369v18.4Z" transform="translate(-89.086 -27.312)"/>
                <path id="path23872" class="cls-2" d="M153.565,28.824h3.369V55.7h-3.369Z" transform="translate(-82.611 -28.824)"/>
                <path id="path23874" class="cls-2" d="M156.3,31.711h3.388V42.716q0,4.361,4.249,4.548a3.91,3.91,0,0,0,3.144-1.291,4.726,4.726,0,0,0,1.1-3.182V31.711h3.463V42.716a8.313,8.313,0,0,1-1.479,4.885,7.529,7.529,0,0,1-4.511,2.882v7.861h-3.444V50.484a8.782,8.782,0,0,1-4.192-2.414A7.13,7.13,0,0,1,156.3,43.6Z" transform="translate(-77.389 -23.307)"/>
                <path id="path23876" class="cls-2" d="M162.992,47.461V30.129h3.332v4.679h6.588v3.219h-6.588V48.116a1.763,1.763,0,0,0,.6,1.329,2.674,2.674,0,0,0,1.815.543h4.174v3.219h-4.249a5.32,5.32,0,0,1-4.286-1.628,6.133,6.133,0,0,1-1.385-4.118Z" transform="translate(-64.599 -26.33)"/>
                <path id="path23878" class="cls-2" d="M167.718,31.58a2.057,2.057,0,0,1,.636-1.385,1.953,1.953,0,0,1,1.4-.58,1.862,1.862,0,0,1,1.385.6,1.926,1.926,0,0,1,.6,1.441,2.184,2.184,0,0,1-.262,1.086,1.683,1.683,0,0,1-.692.693,1.975,1.975,0,0,1-.955.243,2.15,2.15,0,0,1-1.5-.58,1.984,1.984,0,0,1-.618-1.516Zm.318,22.609v-18.4h3.369v18.4Z" transform="translate(-55.569 -27.312)"/>
                <path id="path23880" class="cls-2" d="M170.8,41.02a10.543,10.543,0,0,1,1.16-4.455,8.445,8.445,0,0,1,3.088-3.369,10.062,10.062,0,0,1,4.866-1.46h3.388v3.219h-2.92a6.29,6.29,0,0,0-2.62.636,5.982,5.982,0,0,0-.58,10.425,6.082,6.082,0,0,0,3.35.9h2.77v3.219H179.92a9.443,9.443,0,0,1-4.978-1.553,9.175,9.175,0,0,1-3.107-3.481,9.066,9.066,0,0,1-1.029-4.08Z" transform="translate(-49.671 -23.258)"/>
                <path id="path23882" class="cls-2" d="M175.737,46.966h9.246a.6.6,0,0,1,.262.075,4.558,4.558,0,0,0,1.516-.393,1.375,1.375,0,0,0,.674-1.254,1.518,1.518,0,0,0-.505-1.16,4.336,4.336,0,0,0-1.366-.842,16.45,16.45,0,0,0-2.152-.73L181,41.95a11.191,11.191,0,0,1-3.93-2.059,4.283,4.283,0,0,1-1.329-3.2,4.452,4.452,0,0,1,.936-2.976,4.811,4.811,0,0,1,2.358-1.535,10.283,10.283,0,0,1,2.995-.43h7.936v3.219H181.37a2.465,2.465,0,0,0-1.535.43,1.444,1.444,0,0,0-.561,1.217,1.5,1.5,0,0,0,.58,1.048,5.018,5.018,0,0,0,1.31.749,15.89,15.89,0,0,0,1.647.524l2.021.487a10.548,10.548,0,0,1,4.6,2.3,4.8,4.8,0,0,1,1.441,3.594q-.337,4.791-5.971,4.791h-9.171Z" transform="translate(-40.248 -23.234)"/>
              </g>
            </g>
          </g>
        </g>
      </g>
    </g>
    <text id="Intranet" class="cls-3" transform="translate(-1634 4186)"><tspan x="0" y="0">Intranet</tspan></text>
  </g>
</svg>
