<svg xmlns="http://www.w3.org/2000/svg" viewBox="0 0 18.18 17.173"><defs><style>.a{fill:#fff;}</style></defs><path class="a" d="M1782.675-3283.3l-1.62-1.736h-4.317a5.7,5.7,0,0,1-2.234-.452,5.713,5.713,0,0,1-1.823-1.229,5.716,5.716,0,0,1-1.229-1.823,5.7,5.7,0,0,1-.451-2.234v-1.184a3.414,3.414,0,0,1,.27-1.336,3.419,3.419,0,0,1,.735-1.091,3.414,3.414,0,0,1,1.091-.735,3.389,3.389,0,0,1,.844-.235,5.3,5.3,0,0,0,.4,1.171,2.228,2.228,0,0,0-2.136,2.227v1.184a4.533,4.533,0,0,0,4.533,4.533h4.549a.67.67,0,0,1,.49.212l1.779,1.906a.266.266,0,0,0,.2.088.274.274,0,0,0,.276-.273l.014-1.933v-3.356h1.2v3.365l-.014,1.933a1.48,1.48,0,0,1-.473,1.074,1.48,1.48,0,0,1-1.008.4A1.482,1.482,0,0,1,1782.675-3283.3Zm5.928-4.846-2.1-2.245a.792.792,0,0,0-.577-.251h-5.359a5.346,5.346,0,0,1-5.341-5.34v-1.4a2.628,2.628,0,0,1,2.625-2.625h8.363a2.966,2.966,0,0,1,2.962,2.962v6.4l-.017,2.278a.323.323,0,0,1-.327.322A.316.316,0,0,1,1788.6-3288.144Zm-8.6-7.2h2v2h1v-2h2v-1h-2v-2h-1v2h-2Z" transform="translate(-1771 3300)"/></svg>