<?xml version="1.0" encoding="utf-8"?>
<!-- Generator: Adobe Illustrator 23.0.1, SVG Export Plug-In . SVG Version: 6.00 Build 0)  -->
<svg version="1.1" id="Layer_1" xmlns="http://www.w3.org/2000/svg" xmlns:xlink="http://www.w3.org/1999/xlink" x="0px" y="0px"
	 viewBox="0 0 500 500" style="enable-background:new 0 0 500 500;" xml:space="preserve">
<style type="text/css">
	.st0{opacity:0.4;fill:url(#SVGID_1_);}
	.st1{opacity:0.4;fill:url(#SVGID_2_);}
	.st2{opacity:0.4;fill:url(#SVGID_3_);}
	.st3{opacity:0.4;fill:url(#SVGID_4_);}
	.st4{opacity:0.4;fill:url(#SVGID_5_);}
	.st5{opacity:0.4;fill:url(#SVGID_6_);}
	.st6{opacity:0.4;fill:url(#SVGID_7_);}
	.st7{fill:#393186;}
	.st8{opacity:0.15;fill:url(#XMLID_3_);}
	.st9{fill:#8CC63F;}
	.st10{fill:#2E3192;}
</style>
<radialGradient id="SVGID_1_" cx="19.9597" cy="154.4378" r="156.3782" gradientUnits="userSpaceOnUse">
	<stop  offset="0" style="stop-color:#FDF8FA"/>
	<stop  offset="0.1853" style="stop-color:#F9F4F7"/>
	<stop  offset="0.387" style="stop-color:#EBE9EE"/>
	<stop  offset="0.5964" style="stop-color:#D6D7E0"/>
	<stop  offset="0.8096" style="stop-color:#B8BECC"/>
	<stop  offset="1" style="stop-color:#96A2B6"/>
</radialGradient>
<polygon class="st0" points="199.7,291.3 178.8,314.1 66.5,211.2 87.4,188.5 "/>
<radialGradient id="SVGID_2_" cx="75.9228" cy="159.1643" r="128.6849" gradientUnits="userSpaceOnUse">
	<stop  offset="0" style="stop-color:#FDF8FA"/>
	<stop  offset="0.1853" style="stop-color:#F9F4F7"/>
	<stop  offset="0.387" style="stop-color:#EBE9EE"/>
	<stop  offset="0.5964" style="stop-color:#D6D7E0"/>
	<stop  offset="0.8096" style="stop-color:#B8BECC"/>
	<stop  offset="1" style="stop-color:#96A2B6"/>
</radialGradient>
<polygon class="st1" points="229.5,276.5 208.6,299.2 106,205.2 126.8,182.5 "/>
<radialGradient id="SVGID_3_" cx="110.6164" cy="147.9101" r="110.7037" gradientUnits="userSpaceOnUse">
	<stop  offset="0" style="stop-color:#FDF8FA"/>
	<stop  offset="0.1853" style="stop-color:#F9F4F7"/>
	<stop  offset="0.387" style="stop-color:#EBE9EE"/>
	<stop  offset="0.5964" style="stop-color:#D6D7E0"/>
	<stop  offset="0.8096" style="stop-color:#B8BECC"/>
	<stop  offset="1" style="stop-color:#96A2B6"/>
</radialGradient>
<polygon class="st2" points="260.3,262.5 239.4,285.3 145.4,199.2 166.3,176.4 "/>
<radialGradient id="SVGID_4_" cx="153.8192" cy="142.0081" r="106.099" gradientUnits="userSpaceOnUse">
	<stop  offset="0" style="stop-color:#FDF8FA"/>
	<stop  offset="0.1853" style="stop-color:#F9F4F7"/>
	<stop  offset="0.387" style="stop-color:#EBE9EE"/>
	<stop  offset="0.5964" style="stop-color:#D6D7E0"/>
	<stop  offset="0.8096" style="stop-color:#B8BECC"/>
	<stop  offset="1" style="stop-color:#96A2B6"/>
</radialGradient>
<polygon class="st3" points="291.3,248.8 270.5,271.6 184.9,193.2 205.8,170.4 "/>
<radialGradient id="SVGID_5_" cx="167.8296" cy="117.6299" r="81.5832" gradientUnits="userSpaceOnUse">
	<stop  offset="0" style="stop-color:#FDF8FA"/>
	<stop  offset="0.1853" style="stop-color:#F9F4F7"/>
	<stop  offset="0.387" style="stop-color:#EBE9EE"/>
	<stop  offset="0.5964" style="stop-color:#D6D7E0"/>
	<stop  offset="0.8096" style="stop-color:#B8BECC"/>
	<stop  offset="1" style="stop-color:#96A2B6"/>
</radialGradient>
<polygon class="st4" points="301.1,215.5 280.2,238.3 187.4,153.3 208.3,130.6 "/>
<radialGradient id="SVGID_6_" cx="158.9896" cy="64.0175" r="124.461" gradientUnits="userSpaceOnUse">
	<stop  offset="0" style="stop-color:#FDF8FA"/>
	<stop  offset="0.1853" style="stop-color:#F9F4F7"/>
	<stop  offset="0.387" style="stop-color:#EBE9EE"/>
	<stop  offset="0.5964" style="stop-color:#D6D7E0"/>
	<stop  offset="0.8096" style="stop-color:#B8BECC"/>
	<stop  offset="1" style="stop-color:#96A2B6"/>
</radialGradient>
<polygon class="st5" points="306.8,178.6 285.9,201.4 190,113.5 210.9,90.7 "/>
<radialGradient id="SVGID_7_" cx="205.2298" cy="64.5198" r="87.128" fx="292.3322" fy="62.4072" gradientUnits="userSpaceOnUse">
	<stop  offset="0" style="stop-color:#FDF8FA"/>
	<stop  offset="0.1853" style="stop-color:#F9F4F7"/>
	<stop  offset="0.387" style="stop-color:#EBE9EE"/>
	<stop  offset="0.5964" style="stop-color:#D6D7E0"/>
	<stop  offset="0.8096" style="stop-color:#B8BECC"/>
	<stop  offset="1" style="stop-color:#96A2B6"/>
</radialGradient>
<polygon class="st6" points="325.7,153.7 304.9,176.5 192.5,73.6 213.4,50.9 "/>
<g>
	<polygon class="st7" points="293,168.9 273.1,257.7 185.2,286.8 207.2,308.6 294.1,274.4 318.9,181.1 	"/>
</g>
<radialGradient id="XMLID_3_" cx="71.6767" cy="1076.74" r="12.794" gradientTransform="matrix(15.4444 0 0 1.8391 -833.6136 -1555.5416)" gradientUnits="userSpaceOnUse">
	<stop  offset="0" style="stop-color:#000000"/>
	<stop  offset="0.302" style="stop-color:#555555"/>
	<stop  offset="0.6441" style="stop-color:#B0B0B0"/>
	<stop  offset="0.8847" style="stop-color:#E9E9E9"/>
	<stop  offset="1" style="stop-color:#FFFFFF"/>
</radialGradient>
<path id="XMLID_1_" class="st8" d="M471,424.7c0,13-88.5,23.5-197.6,23.5c-109.1,0-197.6-10.5-197.6-23.5c0-13,88.5-23.5,197.6-23.5
	C382.5,401.2,471,411.7,471,424.7z"/>
<g>
	<polygon class="st9" points="313.8,142.9 294.1,163.7 400.3,258 416.5,236 	"/>
	<polygon class="st9" points="296.7,171.5 306.3,175 294.1,163.7 	"/>
</g>
<polygon class="st10" points="61.6,183.1 181.3,165.5 185.8,46.8 188.8,46.8 183.1,167.8 61.6,185 "/>
<circle class="st9" cx="62.3" cy="184.7" r="3.8"/>
<circle class="st9" cx="102.6" cy="179.4" r="3.8"/>
<circle class="st9" cx="141.9" cy="173.2" r="3.8"/>
<circle class="st9" cx="181.3" cy="167.1" r="3.8"/>
<circle class="st9" cx="183.1" cy="126.6" r="3.8"/>
<circle class="st9" cx="185.8" cy="86.9" r="3.8"/>
<circle class="st9" cx="188" cy="46.8" r="3.8"/>
<g>
	<polygon class="st7" points="168.9,305 289.9,379.5 289.9,379.5 270.5,400.6 	"/>
	<polygon class="st7" points="185.2,286.8 289.9,379.5 168.9,305 	"/>
</g>
<polygon class="st9" points="309.4,217.4 319.4,185 294.1,163.7 286,200.1 "/>
</svg>
