<svg xmlns="http://www.w3.org/2000/svg" viewBox="0 0 63.358 76.199">
  <defs>
    <style>
      .cls-1 {
        fill: #9db63a;
      }

      .cls-2 {
        fill: #4d4d4d;
      }
    </style>
  </defs>
  <g id="lms3" transform="translate(-2.007 -264.589)">
    <path id="path7801" class="cls-1" d="M14.835,340.568a4.817,4.817,0,0,1-2.013-1.929,4.387,4.387,0,0,1-.012-3.185c.168-.336,2.167-2.934,4.442-5.773l4.137-5.162,1.215-4.2a36.791,36.791,0,0,1,1.356-4.2c.178,0,5.6,11.095,5.6,11.454,0,.518-.847,1.519-5.916,7.016-5.4,5.859-5.848,6.226-7.516,6.2a4.385,4.385,0,0,1-1.292-.219Zm24.939-.205a3.926,3.926,0,0,1-1.263-.985c-.636-.919-14.543-28.586-15.113-30.067-.817-2.123-.753-3.819.331-8.713.489-2.206.857-4.04.819-4.076s-2.309,1.989-5.046,4.5-5.387,4.929-5.887,5.371l-.91.8a2.975,2.975,0,0,1-3.069-1.168l-.427-.862a2.419,2.419,0,0,1-.277-1.749c.175-1.035.454-1.336,12.623-13.6,8.886-8.951,8.769-8.864,11.843-8.858a5.412,5.412,0,0,1,2.9.511c1.888.923,2.658,1.973,6.173,8.421l3.269,6,4.59,2.168c4.85,2.291,5.193,2.545,5.48,4.064a3.386,3.386,0,0,1-1.2,2.821c-1.3.925-1.862.817-7.735-1.486a51.68,51.68,0,0,1-5.874-2.557,12.93,12.93,0,0,1-1.452-2.155,11.871,11.871,0,0,0-1.076-1.713c-.1,0-3.333,13.794-3.321,14.162,0,.09,2.234,5.69,4.958,12.444s5.014,12.542,5.087,12.86a4.139,4.139,0,0,1-2.3,4.016,3.78,3.78,0,0,1-3.123-.158ZM37.32,279.2A7.228,7.228,0,0,1,31.4,271.9a5.54,5.54,0,0,1,.541-2.792,7.077,7.077,0,0,1,3.2-3.567,7.207,7.207,0,0,1,8.869,1.351,7.372,7.372,0,0,1,1.522,7.849A7.555,7.555,0,0,1,37.32,279.2Z" transform="translate(9.526)"/>
    <path id="path7803" class="cls-2" d="M8.026,316.978a3.03,3.03,0,0,1-.513-4.839c2.2-2.31,6.074.284,4.923,3.3a2.819,2.819,0,0,1-2.677,1.887,2.477,2.477,0,0,1-1.732-.347Zm14.2-33.2-3.259,15.09-3.259,15.09-.757.064c-.65.055-.757,0-.757-.37a4.8,4.8,0,0,0-1.2-2.565,4.663,4.663,0,0,0-7.613,1.2c-.311.636-.661,1.156-.778,1.156a4.848,4.848,0,0,1-1.2-.985,3.665,3.665,0,0,1-1.247-2.172c-.295-1.325-.414-.692,2.008-10.7,1.293-5.342,1.687-6.213,3.339-7.387,1.633-1.16,2.492-1.348,6.214-1.358l3.362-.009.2-.778c.113-.428.58-2.277,1.038-4.11l.833-3.332c.167-.8,2.875-2.584,3.069,1.168Z" transform="translate(0 23.422)"/>
  </g>
</svg>
