<?xml version="1.0" encoding="utf-8"?>
<!-- Generator: Adobe Illustrator 23.0.1, SVG Export Plug-In . SVG Version: 6.00 Build 0)  -->
<svg version="1.1" id="Layer_1" xmlns="http://www.w3.org/2000/svg" xmlns:xlink="http://www.w3.org/1999/xlink" x="0px" y="0px"
	 viewBox="0 0 92 92" style="enable-background:new 0 0 92 92;" xml:space="preserve">
<style type="text/css">
	.st0{fill:#1DBCA5;}
	.st1{fill:url(#SVGID_1_);}
	.st2{fill:url(#SVGID_2_);}
</style>
<g>
	<g>
		<path class="st0" d="M44.8,57.1c0.6,1.3,1.1,2.6,1.6,4c0.5-1.4,1.1-2.7,1.7-4.1c0.6-1.3,1.2-2.6,1.8-3.8l24.6-46
			c0.3-0.6,0.6-1,0.9-1.4c0.3-0.3,0.7-0.6,1.1-0.7c0.4-0.2,0.9-0.2,1.3-0.3c0.5,0,1.1-0.1,1.8-0.1h11.6v82.9H77.7V34.1
			c0-1,0-2.1,0.1-3.3c0.1-1.2,0.1-2.4,0.3-3.6L53,74.2c-0.6,1.1-1.3,1.9-2.2,2.5s-2,0.9-3.2,0.9h-2.1c-1.2,0-2.3-0.3-3.2-0.9
			s-1.7-1.4-2.2-2.5L14.6,27c0.2,1.3,0.3,2.5,0.3,3.7C15,31.9,15,33,15,34.1v53.5H1.4V4.7H13c0.7,0,1.3,0,1.8,0.1
			c0.5,0,0.9,0.1,1.3,0.3c0.4,0.2,0.8,0.4,1.1,0.7c0.3,0.3,0.7,0.8,1,1.4l24.8,46C43.6,54.5,44.2,55.7,44.8,57.1z"/>
	</g>
</g>
<linearGradient id="SVGID_1_" gradientUnits="userSpaceOnUse" x1="82.1366" y1="9.6056" x2="88.3477" y2="74.6567" gradientTransform="matrix(1 0 0 -1 0 94)">
	<stop  offset="0.2208" style="stop-color:#FFFFFF;stop-opacity:0"/>
	<stop  offset="1" style="stop-color:#000000;stop-opacity:0.2"/>
</linearGradient>
<path class="st1" d="M91.3,4.7v82.9H77.7V34.1c0-1,0-2.1,0.1-3.3c0.1-1.2,0.1-2.4,0.3-3.6L91.3,4.7z"/>
<linearGradient id="SVGID_2_" gradientUnits="userSpaceOnUse" x1="38.3681" y1="35.8446" x2="14.8906" y2="79.9802" gradientTransform="matrix(1 0 0 -1 0 94)">
	<stop  offset="0" style="stop-color:#FFFFFF;stop-opacity:0"/>
	<stop  offset="1" style="stop-color:#000000;stop-opacity:0.2"/>
</linearGradient>
<path class="st2" d="M15,27.9L37.7,70H43V53.3l0,0l-24.8-46c-0.3-0.6-0.6-1-1-1.4c-0.3-0.3-0.7-0.6-1.1-0.7C15.8,5,15.4,4.9,15,4.8
	V27.9z"/>
</svg>
