<svg xmlns="http://www.w3.org/2000/svg" viewBox="0 0 82.752 61.747">
  <defs>
    <style>
      .cls-1 {
        fill: #bfbfbf;
      }
    </style>
  </defs>
  <g id="Group_700" data-name="Group 700" transform="translate(-2771.03 -4243.333)">
    <path id="Path_716" data-name="Path 716" class="cls-1" d="M7.085,0H6.045a.454.454,0,0,1-.287-.087A.5.5,0,0,1,5.6-.305L5.055-1.78h-3L1.52-.305a.473.473,0,0,1-.158.21.443.443,0,0,1-.288.1H.03L2.87-7.23H4.245ZM2.405-2.73h2.3L3.83-5.135Q3.77-5.3,3.7-5.513t-.143-.472q-.07.255-.137.475t-.133.385Zm7.215.185V0H8.275V-7.23H10.63a4.126,4.126,0,0,1,1.255.17,2.416,2.416,0,0,1,.875.475,1.86,1.86,0,0,1,.51.73,2.548,2.548,0,0,1,.165.93,2.569,2.569,0,0,1-.175.963,2,2,0,0,1-.525.753,2.443,2.443,0,0,1-.875.49,3.9,3.9,0,0,1-1.23.175Zm0-1.05h1.01a2.026,2.026,0,0,0,.645-.092,1.2,1.2,0,0,0,.455-.265,1.086,1.086,0,0,0,.27-.42,1.608,1.608,0,0,0,.09-.552A1.458,1.458,0,0,0,12-5.45a1.038,1.038,0,0,0-.27-.4,1.2,1.2,0,0,0-.455-.253,2.134,2.134,0,0,0-.645-.087H9.62Zm6.65,1.05V0H14.925V-7.23H17.28a4.126,4.126,0,0,1,1.255.17,2.416,2.416,0,0,1,.875.475,1.86,1.86,0,0,1,.51.73,2.548,2.548,0,0,1,.165.93,2.569,2.569,0,0,1-.175.963,2,2,0,0,1-.525.753,2.443,2.443,0,0,1-.875.49,3.9,3.9,0,0,1-1.23.175Zm0-1.05h1.01a2.026,2.026,0,0,0,.645-.092,1.2,1.2,0,0,0,.455-.265,1.086,1.086,0,0,0,.27-.42,1.608,1.608,0,0,0,.09-.552,1.458,1.458,0,0,0-.09-.525,1.038,1.038,0,0,0-.27-.4,1.2,1.2,0,0,0-.455-.253,2.134,2.134,0,0,0-.645-.087H16.27Zm6.65.77V0H21.575V-7.23h2.2a4.605,4.605,0,0,1,1.268.153,2.415,2.415,0,0,1,.865.428,1.65,1.65,0,0,1,.5.657,2.192,2.192,0,0,1,.157.842,2.183,2.183,0,0,1-.107.69,2,2,0,0,1-.31.59,2.089,2.089,0,0,1-.5.465,2.621,2.621,0,0,1-.677.32,1.333,1.333,0,0,1,.44.415L27.22,0H26.01a.591.591,0,0,1-.3-.07.608.608,0,0,1-.208-.2l-1.52-2.315A.533.533,0,0,0,23.8-2.77a.657.657,0,0,0-.3-.055Zm0-.965h.84a2.082,2.082,0,0,0,.663-.1,1.281,1.281,0,0,0,.465-.263,1.054,1.054,0,0,0,.273-.4,1.374,1.374,0,0,0,.09-.505,1.027,1.027,0,0,0-.363-.845,1.734,1.734,0,0,0-1.108-.3h-.86ZM33.04-7.23v1.07H29.835v2.005H32.36V-3.12H29.835v2.045H33.04V0H28.48V-7.23Zm6.535,5.525a.252.252,0,0,1,.19.085l.53.575a2.911,2.911,0,0,1-1.082.835A3.73,3.73,0,0,1,37.67.08,3.645,3.645,0,0,1,36.222-.2a3.19,3.19,0,0,1-1.1-.765,3.349,3.349,0,0,1-.7-1.17,4.392,4.392,0,0,1-.243-1.485,4,4,0,0,1,.27-1.492,3.42,3.42,0,0,1,.76-1.168,3.44,3.44,0,0,1,1.173-.762A4.031,4.031,0,0,1,37.9-7.31a3.559,3.559,0,0,1,1.407.257,3.289,3.289,0,0,1,1.033.682l-.45.625a.408.408,0,0,1-.1.105.291.291,0,0,1-.173.045.393.393,0,0,1-.235-.09,2.909,2.909,0,0,0-.305-.195,2.486,2.486,0,0,0-.467-.2,2.406,2.406,0,0,0-.717-.09,2.421,2.421,0,0,0-.937.177,2.084,2.084,0,0,0-.735.508,2.335,2.335,0,0,0-.48.8,3.082,3.082,0,0,0-.172,1.063,3.167,3.167,0,0,0,.172,1.085,2.385,2.385,0,0,0,.468.8,2,2,0,0,0,.695.5,2.148,2.148,0,0,0,.86.173,3.746,3.746,0,0,0,.5-.03,2.112,2.112,0,0,0,.41-.1,1.82,1.82,0,0,0,.355-.167,2.218,2.218,0,0,0,.332-.253.474.474,0,0,1,.105-.072A.265.265,0,0,1,39.575-1.705ZM43.225,0h-1.35V-7.23h1.35ZM51.6,0h-1.04a.454.454,0,0,1-.288-.087.5.5,0,0,1-.162-.218l-.54-1.475H46.58L46.04-.305a.473.473,0,0,1-.158.21A.443.443,0,0,1,45.6,0H44.55l2.84-7.23h1.375Zm-4.68-2.73H49.23l-.88-2.405q-.06-.16-.133-.378t-.142-.472q-.07.255-.138.475t-.132.385ZM57.11-7.23v1.105H54.935V0H53.59V-6.125H51.4V-7.23ZM59.88,0H58.53V-7.23h1.35Zm8.96-3.615a4.007,4.007,0,0,1-.265,1.473A3.488,3.488,0,0,1,67.83-.97,3.374,3.374,0,0,1,66.675-.2a3.9,3.9,0,0,1-1.5.278,3.915,3.915,0,0,1-1.5-.278,3.4,3.4,0,0,1-1.16-.773,3.469,3.469,0,0,1-.748-1.173,4.007,4.007,0,0,1-.265-1.473,4.007,4.007,0,0,1,.265-1.472,3.469,3.469,0,0,1,.748-1.173,3.4,3.4,0,0,1,1.16-.773,3.915,3.915,0,0,1,1.5-.277,3.866,3.866,0,0,1,1.5.28,3.422,3.422,0,0,1,1.155.773,3.461,3.461,0,0,1,.745,1.17A4.007,4.007,0,0,1,68.84-3.615Zm-1.38,0A3.367,3.367,0,0,0,67.3-4.683a2.258,2.258,0,0,0-.452-.8,1.948,1.948,0,0,0-.717-.505,2.469,2.469,0,0,0-.952-.175,2.487,2.487,0,0,0-.955.175,1.967,1.967,0,0,0-.722.505,2.267,2.267,0,0,0-.458.8,3.318,3.318,0,0,0-.16,1.068,3.318,3.318,0,0,0,.16,1.068,2.241,2.241,0,0,0,.458.8,1.98,1.98,0,0,0,.722.5,2.487,2.487,0,0,0,.955.175,2.469,2.469,0,0,0,.952-.175,1.962,1.962,0,0,0,.717-.5,2.232,2.232,0,0,0,.452-.8A3.367,3.367,0,0,0,67.46-3.615ZM71-7.23a1.244,1.244,0,0,1,.15.008.352.352,0,0,1,.107.03.361.361,0,0,1,.093.065,1.042,1.042,0,0,1,.1.112L75.25-2.18q-.02-.175-.027-.342t-.008-.312v-4.4H76.4V0h-.695a.616.616,0,0,1-.265-.05.59.59,0,0,1-.205-.18l-3.78-4.815q.015.16.022.318t.007.287V0H70.3V-7.23Zm11.13,1.315a.371.371,0,0,1-.128.155.321.321,0,0,1-.173.045.438.438,0,0,1-.225-.078q-.125-.077-.295-.172a2.409,2.409,0,0,0-.4-.173,1.671,1.671,0,0,0-.537-.077,1.58,1.58,0,0,0-.487.068,1.032,1.032,0,0,0-.35.188.749.749,0,0,0-.212.287.944.944,0,0,0-.07.367.639.639,0,0,0,.142.425,1.19,1.19,0,0,0,.378.29,3.5,3.5,0,0,0,.535.215q.3.1.612.2a5.9,5.9,0,0,1,.613.25,2.123,2.123,0,0,1,.535.36,1.632,1.632,0,0,1,.378.533,1.849,1.849,0,0,1,.143.765,2.492,2.492,0,0,1-.168.918,2.117,2.117,0,0,1-.49.745,2.308,2.308,0,0,1-.787.5A2.9,2.9,0,0,1,80.085.08,3.434,3.434,0,0,1,79.4.013a3.58,3.58,0,0,1-.643-.193,3.355,3.355,0,0,1-.575-.3,2.829,2.829,0,0,1-.478-.39l.39-.645a.5.5,0,0,1,.132-.118A.324.324,0,0,1,78.4-1.68a.477.477,0,0,1,.27.1q.145.1.343.228a2.628,2.628,0,0,0,.465.227,1.8,1.8,0,0,0,.643.1,1.319,1.319,0,0,0,.89-.272.979.979,0,0,0,.315-.783.727.727,0,0,0-.143-.465,1.15,1.15,0,0,0-.378-.3,2.819,2.819,0,0,0-.535-.207q-.3-.085-.61-.185a5.26,5.26,0,0,1-.61-.24,1.976,1.976,0,0,1-.535-.365,1.661,1.661,0,0,1-.377-.562A2.144,2.144,0,0,1,78-5.235a1.971,1.971,0,0,1,.158-.77,1.971,1.971,0,0,1,.46-.665,2.271,2.271,0,0,1,.743-.465,2.7,2.7,0,0,1,1-.175,3.373,3.373,0,0,1,1.18.2,2.664,2.664,0,0,1,.92.56Z" transform="translate(2771 4305)"/>
    <g id="Group_694" data-name="Group 694">
      <path id="Path_711" data-name="Path 711" class="cls-1" d="M8.179-41.211a7.089,7.089,0,0,1,.855.043A2,2,0,0,1,9.647-41a2.055,2.055,0,0,1,.527.37,5.941,5.941,0,0,1,.57.641l21.631,27.56q-.114-1-.157-1.952t-.043-1.781V-41.211h6.754V0H34.97a3.512,3.512,0,0,1-1.511-.285,3.364,3.364,0,0,1-1.168-1.026L10.745-28.757q.086.912.128,1.81t.043,1.639V0H4.161V-41.211Zm78.6,20.606a22.842,22.842,0,0,1-1.51,8.393,19.884,19.884,0,0,1-4.247,6.683,19.229,19.229,0,0,1-6.583,4.4A22.209,22.209,0,0,1,65.921.456a22.317,22.317,0,0,1-8.536-1.582,19.349,19.349,0,0,1-6.612-4.4,19.772,19.772,0,0,1-4.261-6.683A22.842,22.842,0,0,1,45-20.606,22.842,22.842,0,0,1,46.512-29a19.772,19.772,0,0,1,4.261-6.683,19.349,19.349,0,0,1,6.612-4.4,22.317,22.317,0,0,1,8.536-1.582,22.035,22.035,0,0,1,8.521,1.6,19.5,19.5,0,0,1,6.583,4.4A19.729,19.729,0,0,1,85.272-29,22.842,22.842,0,0,1,86.783-20.606Zm-7.866,0a19.19,19.19,0,0,0-.9-6.085,12.871,12.871,0,0,0-2.579-4.574,11.1,11.1,0,0,0-4.09-2.879,14.071,14.071,0,0,0-5.429-1,14.179,14.179,0,0,0-5.444,1,11.21,11.21,0,0,0-4.118,2.879,12.922,12.922,0,0,0-2.608,4.574,18.914,18.914,0,0,0-.912,6.085,18.914,18.914,0,0,0,.912,6.085,12.774,12.774,0,0,0,2.608,4.56A11.288,11.288,0,0,0,60.477-7.1a14.179,14.179,0,0,0,5.444,1,14.071,14.071,0,0,0,5.429-1,11.182,11.182,0,0,0,4.09-2.864,12.724,12.724,0,0,0,2.579-4.56A19.19,19.19,0,0,0,78.917-20.606Z" transform="translate(2767 4285)"/>
    </g>
  </g>
</svg>
