<svg xmlns="http://www.w3.org/2000/svg" viewBox="0 0 82.755 57.739">
  <defs>
    <style>
      .cls-1 {
        fill:#BFBFBF;
      }
    </style>
  </defs>
  <g id="Group_694" data-name="Group 694" transform="translate(-2771.027 -4243.333)">
    <path id="Path_711" data-name="Path 711" class="cls-1" d="M8.179-41.211a7.089,7.089,0,0,1,.855.043A2,2,0,0,1,9.647-41a2.055,2.055,0,0,1,.527.37,5.941,5.941,0,0,1,.57.641l21.631,27.56q-.114-1-.157-1.952t-.043-1.781V-41.211h6.754V0H34.97a3.512,3.512,0,0,1-1.511-.285,3.364,3.364,0,0,1-1.168-1.026L10.745-28.757q.086.912.128,1.81t.043,1.639V0H4.161V-41.211Zm78.6,20.606a22.842,22.842,0,0,1-1.51,8.393,19.884,19.884,0,0,1-4.247,6.683,19.229,19.229,0,0,1-6.583,4.4A22.209,22.209,0,0,1,65.921.456a22.317,22.317,0,0,1-8.536-1.582,19.349,19.349,0,0,1-6.612-4.4,19.772,19.772,0,0,1-4.261-6.683A22.842,22.842,0,0,1,45-20.606,22.842,22.842,0,0,1,46.512-29a19.772,19.772,0,0,1,4.261-6.683,19.349,19.349,0,0,1,6.612-4.4,22.317,22.317,0,0,1,8.536-1.582,22.035,22.035,0,0,1,8.521,1.6,19.5,19.5,0,0,1,6.583,4.4A19.729,19.729,0,0,1,85.272-29,22.842,22.842,0,0,1,86.783-20.606Zm-7.866,0a19.19,19.19,0,0,0-.9-6.085,12.871,12.871,0,0,0-2.579-4.574,11.1,11.1,0,0,0-4.09-2.879,14.071,14.071,0,0,0-5.429-1,14.179,14.179,0,0,0-5.444,1,11.21,11.21,0,0,0-4.118,2.879,12.922,12.922,0,0,0-2.608,4.574,18.914,18.914,0,0,0-.912,6.085,18.914,18.914,0,0,0,.912,6.085,12.774,12.774,0,0,0,2.608,4.56A11.288,11.288,0,0,0,60.477-7.1a14.179,14.179,0,0,0,5.444,1,14.071,14.071,0,0,0,5.429-1,11.182,11.182,0,0,0,4.09-2.864,12.724,12.724,0,0,0,2.579-4.56A19.19,19.19,0,0,0,78.917-20.606Z" transform="translate(2767 4285)"/>
    <path id="Path_712" data-name="Path 712" class="cls-1" d="M6.377,0H5.441a.409.409,0,0,1-.259-.079.448.448,0,0,1-.146-.2L4.549-1.6h-2.7L1.368-.275a.426.426,0,0,1-.142.189A.4.4,0,0,1,.968,0H.027L2.583-6.507H3.821ZM2.165-2.457H4.239L3.447-4.622q-.054-.144-.119-.34T3.2-5.387q-.063.23-.124.428t-.119.346Zm7.528.167V0H8.483V-6.507H10.6a3.714,3.714,0,0,1,1.129.153,2.174,2.174,0,0,1,.788.427,1.674,1.674,0,0,1,.459.657,2.294,2.294,0,0,1,.148.837,2.312,2.312,0,0,1-.158.866,1.8,1.8,0,0,1-.472.677,2.2,2.2,0,0,1-.788.441A3.506,3.506,0,0,1,10.6-2.29Zm0-.945H10.6a1.824,1.824,0,0,0,.58-.083,1.078,1.078,0,0,0,.41-.239.978.978,0,0,0,.243-.378,1.447,1.447,0,0,0,.081-.5,1.312,1.312,0,0,0-.081-.472.934.934,0,0,0-.243-.36,1.081,1.081,0,0,0-.41-.227,1.92,1.92,0,0,0-.58-.079H9.693Zm7.02.945V0H15.5V-6.507h2.12a3.714,3.714,0,0,1,1.129.153,2.174,2.174,0,0,1,.788.427A1.674,1.674,0,0,1,20-5.269a2.294,2.294,0,0,1,.149.837,2.312,2.312,0,0,1-.157.866,1.8,1.8,0,0,1-.473.677,2.2,2.2,0,0,1-.787.441,3.506,3.506,0,0,1-1.107.158Zm0-.945h.909a1.824,1.824,0,0,0,.58-.083,1.078,1.078,0,0,0,.41-.239.978.978,0,0,0,.243-.378,1.447,1.447,0,0,0,.081-.5,1.312,1.312,0,0,0-.081-.472.934.934,0,0,0-.243-.36,1.081,1.081,0,0,0-.41-.227,1.92,1.92,0,0,0-.58-.079h-.909Zm7.02.693V0H22.522V-6.507h1.985a4.145,4.145,0,0,1,1.141.137,2.174,2.174,0,0,1,.778.385,1.485,1.485,0,0,1,.446.592,1.973,1.973,0,0,1,.142.758,1.965,1.965,0,0,1-.1.621,1.8,1.8,0,0,1-.279.531,1.88,1.88,0,0,1-.45.418,2.359,2.359,0,0,1-.61.288,1.2,1.2,0,0,1,.4.374L27.6,0H26.514a.532.532,0,0,1-.268-.063.547.547,0,0,1-.187-.18L24.691-2.327a.48.48,0,0,0-.169-.166.591.591,0,0,0-.272-.049Zm0-.868h.756a1.874,1.874,0,0,0,.6-.086,1.153,1.153,0,0,0,.419-.236.949.949,0,0,0,.245-.358,1.237,1.237,0,0,0,.081-.454.924.924,0,0,0-.326-.76,1.561,1.561,0,0,0-1-.266h-.774Zm10.143-3.1v.963H30.991v1.8h2.273v.931H30.991V-.968h2.885V0h-4.1V-6.507Zm6.917,4.973a.227.227,0,0,1,.171.077l.477.517a2.62,2.62,0,0,1-.974.752,3.357,3.357,0,0,1-1.388.261,3.28,3.28,0,0,1-1.3-.248,2.871,2.871,0,0,1-.988-.689,3.014,3.014,0,0,1-.628-1.053,3.953,3.953,0,0,1-.218-1.337A3.6,3.6,0,0,1,36.184-4.6a3.078,3.078,0,0,1,.684-1.051,3.1,3.1,0,0,1,1.055-.686,3.628,3.628,0,0,1,1.357-.245,3.2,3.2,0,0,1,1.267.232,2.96,2.96,0,0,1,.929.614l-.4.563a.367.367,0,0,1-.092.095.261.261,0,0,1-.155.04.354.354,0,0,1-.211-.081,2.618,2.618,0,0,0-.275-.175,2.238,2.238,0,0,0-.421-.176,2.165,2.165,0,0,0-.646-.081,2.179,2.179,0,0,0-.844.16,1.875,1.875,0,0,0-.661.457,2.1,2.1,0,0,0-.432.722,2.774,2.774,0,0,0-.155.956,2.85,2.85,0,0,0,.155.977,2.147,2.147,0,0,0,.421.72,1.8,1.8,0,0,0,.625.448,1.933,1.933,0,0,0,.774.155A3.372,3.372,0,0,0,39.6-.981a1.9,1.9,0,0,0,.369-.086,1.638,1.638,0,0,0,.319-.151,2,2,0,0,0,.3-.227.427.427,0,0,1,.094-.065A.238.238,0,0,1,40.792-1.535ZM45.112,0H43.9V-6.507h1.215Zm8.577,0h-.936a.409.409,0,0,1-.259-.079.448.448,0,0,1-.146-.2L51.862-1.6h-2.7L48.681-.275a.426.426,0,0,1-.142.189A.4.4,0,0,1,48.28,0h-.94L49.9-6.507h1.237ZM49.478-2.457h2.075L50.76-4.622q-.054-.144-.119-.34t-.128-.425q-.063.23-.124.428t-.119.346Zm10.2-4.05v.995H57.722V0h-1.21V-5.513H54.545v-.995ZM63.207,0H61.992V-6.507h1.215Zm9.1-3.254a3.607,3.607,0,0,1-.238,1.325A3.14,3.14,0,0,1,71.4-.873a3.036,3.036,0,0,1-1.04.7,3.507,3.507,0,0,1-1.345.25,3.524,3.524,0,0,1-1.348-.25,3.055,3.055,0,0,1-1.044-.7,3.122,3.122,0,0,1-.673-1.055,3.607,3.607,0,0,1-.239-1.325,3.607,3.607,0,0,1,.239-1.325,3.122,3.122,0,0,1,.673-1.055,3.055,3.055,0,0,1,1.044-.7,3.524,3.524,0,0,1,1.348-.25,3.479,3.479,0,0,1,1.345.252,3.079,3.079,0,0,1,1.04.7,3.115,3.115,0,0,1,.671,1.053A3.607,3.607,0,0,1,72.306-3.254Zm-1.242,0a3.03,3.03,0,0,0-.142-.961,2.032,2.032,0,0,0-.407-.722,1.753,1.753,0,0,0-.646-.455,2.222,2.222,0,0,0-.857-.157,2.239,2.239,0,0,0-.859.157,1.77,1.77,0,0,0-.65.455,2.04,2.04,0,0,0-.412.722,2.986,2.986,0,0,0-.144.961,2.986,2.986,0,0,0,.144.961,2.017,2.017,0,0,0,.412.72,1.782,1.782,0,0,0,.65.452,2.239,2.239,0,0,0,.859.158,2.222,2.222,0,0,0,.857-.158,1.765,1.765,0,0,0,.646-.452,2.009,2.009,0,0,0,.407-.72A3.03,3.03,0,0,0,71.064-3.254Zm4.225-3.254a1.119,1.119,0,0,1,.135.007.316.316,0,0,1,.1.027.325.325,0,0,1,.083.059.938.938,0,0,1,.09.1L79.11-1.962q-.018-.157-.025-.308t-.007-.281V-6.507h1.067V0H79.52a.555.555,0,0,1-.239-.045A.531.531,0,0,1,79.1-.207l-3.4-4.334q.013.144.02.286T75.722-4V0H74.655V-6.507Z" transform="translate(2771 4301)"/>
  </g>
</svg>
