<svg xmlns="http://www.w3.org/2000/svg" viewBox="0 0 81.322 76.603">
  <defs>
    <style>
      .cls-1 {
        fill: #bfbfbf;
      }
    </style>
  </defs>
  <g id="Symbol_9_2" data-name="Symbol 9 – 2" transform="translate(91.046 -3717.308)">
    <g id="Group_627" data-name="Group 627" transform="translate(-91.046 3717.308)">
      <g id="Group_626" data-name="Group 626">
        <path id="Path_666" data-name="Path 666" class="cls-1" d="M4.8,2.892a2.017,2.017,0,0,1,.6.168,2.044,2.044,0,0,1,.519.365,5.931,5.931,0,0,1,.561.63L27.772,31.182q-.113-.981-.154-1.921t-.042-1.753V2.85h6.649V43.413h-3.9a3.458,3.458,0,0,1-1.487-.28,3.314,3.314,0,0,1-1.151-1.009L6.479,15.109q.085.9.126,1.781T6.647,18.5V43.413H0V2.85H3.956A6.916,6.916,0,0,1,4.8,2.892Z" transform="translate(0 -2.402)"/>
        <path id="Path_667" data-name="Path 667" class="cls-1" d="M296.794,20.73a22.457,22.457,0,0,1-1.487,8.261,19.608,19.608,0,0,1-4.179,6.578,18.948,18.948,0,0,1-6.479,4.335,23.417,23.417,0,0,1-16.79,0,19.014,19.014,0,0,1-6.508-4.335,19.449,19.449,0,0,1-4.193-6.578,22.464,22.464,0,0,1-1.487-8.261,22.464,22.464,0,0,1,1.487-8.261,19.449,19.449,0,0,1,4.193-6.578,19.052,19.052,0,0,1,6.508-4.335A21.973,21.973,0,0,1,276.26,0a21.693,21.693,0,0,1,8.388,1.571,19.167,19.167,0,0,1,6.479,4.335,19.4,19.4,0,0,1,4.179,6.564A22.463,22.463,0,0,1,296.794,20.73Zm-7.742,0a18.874,18.874,0,0,0-.884-5.989,12.674,12.674,0,0,0-2.539-4.5A10.945,10.945,0,0,0,281.6,7.405a15.084,15.084,0,0,0-10.7,0,11.037,11.037,0,0,0-4.053,2.833,12.726,12.726,0,0,0-2.567,4.5,18.6,18.6,0,0,0-.9,5.989,18.594,18.594,0,0,0,.9,5.989,12.579,12.579,0,0,0,2.567,4.489,11.11,11.11,0,0,0,4.053,2.819,15.084,15.084,0,0,0,10.7,0,11,11,0,0,0,4.025-2.819,12.529,12.529,0,0,0,2.539-4.489A18.912,18.912,0,0,0,289.052,20.73Z" transform="translate(-215.472)"/>
      </g>
    </g>
    <g id="Group_629" data-name="Group 629" transform="translate(-90.401 3765.809)">
      <g id="Group_628" data-name="Group 628">
        <path id="Path_668" data-name="Path 668" class="cls-1" d="M17.2,309.242V310.8H12.542v2.917h3.674v1.506H12.542V318.2H17.2v1.564H10.57V309.24H17.2Z" transform="translate(-9.553 -309.121)"/>
        <path id="Path_669" data-name="Path 669" class="cls-1" d="M87.8,309.25h1.579a.655.655,0,0,1,.415.124.748.748,0,0,1,.241.321l2.473,6.416c.082.209.16.437.236.687s.146.513.215.789a8.979,8.979,0,0,1,.415-1.476l2.467-6.416a.753.753,0,0,1,.233-.3.627.627,0,0,1,.415-.138h1.579l-4.248,10.52H92.051Z" transform="translate(-74.64 -309.129)"/>
        <path id="Path_670" data-name="Path 670" class="cls-1" d="M197.535,309.242V310.8h-4.663v2.917h3.674v1.506h-3.674V318.2h4.663v1.564H190.9V309.24h6.635Z" transform="translate(-161.53 -309.121)"/>
        <path id="Path_671" data-name="Path 671" class="cls-1" d="M275.944,309.261a.515.515,0,0,1,.156.044.555.555,0,0,1,.135.094,1.339,1.339,0,0,1,.145.164L281.9,316.6c-.019-.17-.033-.336-.039-.5s-.011-.314-.011-.454V309.25h1.725v10.52h-1.011a.891.891,0,0,1-.385-.072.853.853,0,0,1-.3-.263l-5.5-7.006q.021.233.033.462c.008.152.011.292.011.418v6.46H274.7V309.25h1.025A2.04,2.04,0,0,1,275.944,309.261Z" transform="translate(-232.155 -309.129)"/>
        <path id="Path_672" data-name="Path 672" class="cls-1" d="M378.131,309.25v1.608h-3.165v8.911h-1.957v-8.911H369.83V309.25Z" transform="translate(-312.328 -309.129)"/>
        <path id="Path_673" data-name="Path 673" class="cls-1" d="M462.7,310.514a.526.526,0,0,1-.186.225.465.465,0,0,1-.252.066.633.633,0,0,1-.327-.113c-.121-.075-.264-.159-.429-.252a3.507,3.507,0,0,0-.579-.252,2.417,2.417,0,0,0-.781-.113,2.326,2.326,0,0,0-.709.1,1.463,1.463,0,0,0-.509.274,1.091,1.091,0,0,0-.31.418,1.378,1.378,0,0,0-.1.535.929.929,0,0,0,.208.618,1.726,1.726,0,0,0,.549.421,5.171,5.171,0,0,0,.778.313q.436.139.891.294a8.408,8.408,0,0,1,.891.363,3.1,3.1,0,0,1,.778.524,2.362,2.362,0,0,1,.549.775,2.69,2.69,0,0,1,.208,1.113,3.641,3.641,0,0,1-.244,1.335,3.052,3.052,0,0,1-.712,1.083,3.39,3.39,0,0,1-1.146.728,4.2,4.2,0,0,1-1.55.266,4.941,4.941,0,0,1-.989-.1,5.276,5.276,0,0,1-.936-.28,4.845,4.845,0,0,1-.836-.437,4.121,4.121,0,0,1-.695-.568l.568-.939a.75.75,0,0,1,.193-.171.476.476,0,0,1,.252-.069.7.7,0,0,1,.393.149c.14.1.307.209.5.33a3.927,3.927,0,0,0,.676.332,2.623,2.623,0,0,0,.936.149,1.923,1.923,0,0,0,1.3-.4,1.424,1.424,0,0,0,.459-1.138,1.054,1.054,0,0,0-.208-.676,1.683,1.683,0,0,0-.549-.44,4.017,4.017,0,0,0-.778-.3q-.436-.123-.887-.269a8,8,0,0,1-.888-.349,2.859,2.859,0,0,1-.778-.531,2.41,2.41,0,0,1-.549-.819,3.119,3.119,0,0,1-.208-1.211,2.878,2.878,0,0,1,.23-1.121,2.847,2.847,0,0,1,.67-.967,3.314,3.314,0,0,1,1.08-.676,3.927,3.927,0,0,1,1.462-.255,4.918,4.918,0,0,1,1.717.291,3.861,3.861,0,0,1,1.338.814Z" transform="translate(-385.169 -308.48)"/>
        <path id="Path_674" data-name="Path 674" class="cls-1" d="M14.364,430.82H12.851a.66.66,0,0,1-.418-.127.718.718,0,0,1-.236-.316l-.786-2.146H7.053l-.786,2.146a.681.681,0,0,1-.23.3.642.642,0,0,1-.418.138H4.1L8.232,420.3h2Zm-6.809-3.972h3.354l-1.28-3.5c-.058-.156-.123-.338-.193-.549s-.14-.44-.208-.687c-.068.247-.135.478-.2.692s-.13.4-.193.56Z" transform="translate(-4.1 -402.719)"/>
        <path id="Path_675" data-name="Path 675" class="cls-1" d="M63.79,420.3h1.579a.655.655,0,0,1,.415.124.757.757,0,0,1,.241.321l2.473,6.416c.082.209.16.437.236.687s.146.513.215.789a8.978,8.978,0,0,1,.415-1.476l2.467-6.416a.752.752,0,0,1,.233-.305.627.627,0,0,1,.415-.138h1.579l-4.248,10.52H68.04Z" transform="translate(-54.405 -402.719)"/>
        <path id="Path_676" data-name="Path 676" class="cls-1" d="M133.935,430.82h-1.512a.66.66,0,0,1-.418-.127.718.718,0,0,1-.236-.316l-.786-2.146h-4.358l-.786,2.146a.681.681,0,0,1-.23.3.642.642,0,0,1-.418.138h-1.52L127.8,420.3h2Zm-6.809-3.972h3.354l-1.28-3.5c-.058-.156-.123-.338-.193-.549s-.14-.44-.208-.687c-.068.247-.135.478-.2.692s-.131.4-.193.56Z" transform="translate(-104.871 -402.719)"/>
        <path id="Path_677" data-name="Path 677" class="cls-1" d="M201.254,430.82H199.29V420.3h1.964Z" transform="translate(-168.601 -402.719)"/>
        <path id="Path_678" data-name="Path 678" class="cls-1" d="M230.677,429.205h4.212v1.615h-6.17V420.3h1.957Z" transform="translate(-193.404 -402.719)"/>
        <path id="Path_679" data-name="Path 679" class="cls-1" d="M282.265,430.82h-1.513a.66.66,0,0,1-.418-.127.718.718,0,0,1-.236-.316l-.786-2.146h-4.358l-.786,2.146a.68.68,0,0,1-.23.3.65.65,0,0,1-.418.138H272l4.132-10.52h2Zm-6.809-3.972h3.354l-1.28-3.5c-.058-.156-.123-.338-.193-.549s-.14-.44-.208-.687c-.068.247-.135.478-.2.692s-.13.4-.193.56Z" transform="translate(-229.879 -402.719)"/>
        <path id="Path_680" data-name="Path 680" class="cls-1" d="M346.09,430.82V420.3h3.63a6.9,6.9,0,0,1,1.764.2,3.345,3.345,0,0,1,1.2.56,2.163,2.163,0,0,1,.687.88,2.98,2.98,0,0,1,.219,1.163,2.306,2.306,0,0,1-.109.709,2.06,2.06,0,0,1-.338.634,2.552,2.552,0,0,1-.582.535,3.534,3.534,0,0,1-.84.407q2.167.488,2.168,2.343a2.989,2.989,0,0,1-.255,1.237,2.712,2.712,0,0,1-.742.978,3.538,3.538,0,0,1-1.2.643,5.233,5.233,0,0,1-1.63.233H346.09Zm1.956-5.965h1.564a2.62,2.62,0,0,0,1.513-.363,1.316,1.316,0,0,0,.517-1.157,1.371,1.371,0,0,0-.465-1.171,2.433,2.433,0,0,0-1.454-.349h-1.673v3.041Zm0,1.352v3.085h1.986a2.774,2.774,0,0,0,.914-.13,1.563,1.563,0,0,0,.59-.349,1.287,1.287,0,0,0,.321-.509,1.9,1.9,0,0,0,.1-.618,1.655,1.655,0,0,0-.108-.615,1.157,1.157,0,0,0-.341-.465,1.591,1.591,0,0,0-.6-.294,3.312,3.312,0,0,0-.88-.1h-1.981Z" transform="translate(-292.321 -402.719)"/>
        <path id="Path_681" data-name="Path 681" class="cls-1" d="M410.237,429.205h4.212v1.615h-6.17V420.3h1.957v8.905Z" transform="translate(-344.733 -402.719)"/>
        <path id="Path_682" data-name="Path 682" class="cls-1" d="M464.665,420.3v1.557H460v2.917h3.674v1.506H460v2.975h4.663v1.564H458.03V420.3Z" transform="translate(-386.661 -402.719)"/>
      </g>
    </g>
  </g>
</svg>
