<svg xmlns="http://www.w3.org/2000/svg" viewBox="0 0 54 61.714">
  <defs>
    <style>
      .cls-1 {
        fill: #e2e5e7;
      }

      .cls-2 {
        fill: #b0b7bd;
      }

      .cls-3 {
        fill: #cad1d8;
      }

      .cls-4 {
        fill: #f15642;
      }

      .cls-5 {
        fill: #fff;
      }
    </style>
  </defs>
  <g id="PDF" transform="translate(-13.537 -207.746)">
    <g id="g5633" transform="translate(13.537 207.746)">
      <path id="path5554" class="cls-1" d="M18.7,0A3.868,3.868,0,0,0,14.84,3.857v54A3.868,3.868,0,0,0,18.7,61.714H57.268a3.868,3.868,0,0,0,3.857-3.857V15.429L45.7,0Z" transform="translate(-7.125)"/>
      <path id="path5556" class="cls-2" d="M58.269,15.429H69.841L54.412,0V11.571A3.868,3.868,0,0,0,58.269,15.429Z" transform="translate(-15.841)"/>
      <path id="polygon5558" class="cls-3" d="M59.359,19.786H70.93V31.358Z" transform="translate(-16.93 -4.358)"/>
      <path id="path5560" class="cls-4" d="M51.232,58.313A1.934,1.934,0,0,1,49.3,60.242H6.875a1.934,1.934,0,0,1-1.929-1.929V39.028A1.934,1.934,0,0,1,6.875,37.1H49.3a1.934,1.934,0,0,1,1.929,1.929Z" transform="translate(-4.947 -8.171)"/>
      <g id="g5568" transform="translate(8.407 35.476)">
        <path id="path5562" class="cls-5" d="M15.728,46.561A1.061,1.061,0,0,1,16.775,45.5h3.562a3.855,3.855,0,0,1,0,7.71H17.762v2.037a.968.968,0,0,1-.987,1.063,1.039,1.039,0,0,1-1.047-1.063Zm2.035.877V51.28h2.575a1.922,1.922,0,0,0,0-3.842Z" transform="translate(-15.728 -45.496)"/>
        <path id="path5564" class="cls-5" d="M30.1,56.345a.965.965,0,0,1-1.065-.955v-8.76a1.049,1.049,0,0,1,1.065-.957H33.63c7.047,0,6.893,10.671.139,10.671Zm.972-8.788v6.908H33.63c4.164,0,4.349-6.908,0-6.908Z" transform="translate(-18.658 -45.535)"/>
        <path id="path5566" class="cls-5" d="M46.4,47.679V50.13h3.932a1.193,1.193,0,0,1,1.111,1.094,1.072,1.072,0,0,1-1.111.926H46.4v3.238a.914.914,0,0,1-.924.955.98.98,0,0,1-1.094-.955v-8.76a.975.975,0,0,1,1.094-.957h5.413a.962.962,0,0,1,1.08.957,1.065,1.065,0,0,1-1.08,1.049H46.4Z" transform="translate(-22.039 -45.535)"/>
      </g>
      <path id="path5570" class="cls-3" d="M51.483,66.234H14.84v1.929H51.483a1.934,1.934,0,0,0,1.929-1.929V64.305A1.934,1.934,0,0,1,51.483,66.234Z" transform="translate(-7.125 -14.162)"/>
    </g>
  </g>
</svg>
