<?xml version="1.0" encoding="utf-8"?>
<!-- Generator: Adobe Illustrator 22.1.0, SVG Export Plug-In . SVG Version: 6.00 Build 0)  -->
<svg version="1.1"
	 id="svg22" inkscape:version="0.92.3 (2405546, 2018-03-11)" sodipodi:docname="picture.svg" xmlns:cc="http://creativecommons.org/ns#" xmlns:dc="http://purl.org/dc/elements/1.1/" xmlns:inkscape="http://www.inkscape.org/namespaces/inkscape" xmlns:rdf="http://www.w3.org/1999/02/22-rdf-syntax-ns#" xmlns:sodipodi="http://sodipodi.sourceforge.net/DTD/sodipodi-0.dtd" xmlns:svg="http://www.w3.org/2000/svg"
	 xmlns="http://www.w3.org/2000/svg" xmlns:xlink="http://www.w3.org/1999/xlink" x="0px" y="0px" viewBox="0 0 110 72.7"
	 style="enable-background:new 0 0 110 72.7;" xml:space="preserve">
<style type="text/css">
	.st0{fill:#C7C7C7;}
	.st1{fill:#95989A;}
</style>
<sodipodi:namedview  bordercolor="#666666" borderopacity="1" gridtolerance="10" guidetolerance="10" id="namedview24" inkscape:current-layer="svg22" inkscape:cx="64" inkscape:cy="45.325001" inkscape:pageopacity="0" inkscape:pageshadow="2" inkscape:window-height="1017" inkscape:window-maximized="1" inkscape:window-width="1920" inkscape:window-x="-8" inkscape:window-y="-8" inkscape:zoom="2.21875" objecttolerance="10" pagecolor="#ffffff" showgrid="false">
	</sodipodi:namedview>
<g id="g837">
	<g id="picture" transform="translate(-2859 409)">
		<g id="g18" transform="matrix(1, 0, 0, 1, 2859, -409)">
			<path id="Rectangle_114-2" class="st0" d="M4,0h102c2.2,0,4,1.8,4,4v64.7c0,2.2-1.8,4-4,4H4c-2.2,0-4-1.8-4-4V4C0,1.8,1.8,0,4,0z
				"/>
		</g>
		<path id="picture-2" class="st1" d="M2901.4-365.7l8.4-12.7l6.4,7.4l3.1-3.7l7.1,9H2901.4z M2914.3-377.8c0-0.9,0.7-1.7,1.7-1.7
			c0.9,0,1.7,0.7,1.7,1.7c0,0.9-0.7,1.7-1.7,1.7c0,0,0,0,0,0C2915-376.2,2914.3-376.9,2914.3-377.8z"/>
	</g>
</g>
</svg>
