<svg id="pie-chart_2_" data-name="pie-chart (2)" xmlns="http://www.w3.org/2000/svg" viewBox="0 0 12.35 12.35">
  <defs>
    <style>
      .cls-1 {
        fill: #383085;
      }
    </style>
  </defs>
  <path id="circle2" class="cls-1" d="M6.175,0A6.175,6.175,0,1,0,12.35,6.175H6.175ZM9.656,1.075l.017.012Zm.485.368.03.026-.03-.026Zm.444.411.045.047-.045-.047Zm.407.459.04.052-.04-.052Zm.367.509.021.033-.021-.033Zm.312.539.012.022-.012-.022Zm.584,1.743.006.035-.006-.035Zm.074.6c0,.026,0,.051.006.077q0-.039-.006-.077Z"/>
</svg>
