<?xml version="1.0" encoding="utf-8"?>
<!-- Generator: Adobe Illustrator 22.1.0, SVG Export Plug-In . SVG Version: 6.00 Build 0)  -->
<svg version="1.1" id="Layer_1" xmlns="http://www.w3.org/2000/svg" xmlns:xlink="http://www.w3.org/1999/xlink" x="0px" y="0px"
	 viewBox="0 0 110.3 72.8" style="enable-background:new 0 0 110.3 72.8;" xml:space="preserve">
<style type="text/css">
	.st0{fill:#C7C7C7;}
	.st1{fill:#95989A;}
</style>
<g id="Group_598" transform="translate(-20 -607)">
	<g id="picture" transform="translate(-2839 1016)">
		<g transform="matrix(1, 0, 0, 1, 2859, -409)">
			<path id="Rectangle_114-2" class="st0" d="M4.1,0.1h102c2.2,0,4,1.8,4,4v64.7c0,2.2-1.8,4-4,4H4.1c-2.2,0-4-1.8-4-4V4.1
				C0.1,1.9,1.9,0.1,4.1,0.1z"/>
		</g>
	</g>
	<g id="elections" transform="translate(75 638.969)">
		<g id="Group_370" transform="translate(0 0.031)">
			<path id="Path_442" class="st1" d="M11.8-3.2L5.7-5.8c-0.2-0.1-0.4,0-0.5,0.1L3.4-3.5C3.4-3.4,3.3-3.3,3.4-3.2
				c0,0.1,0.1,0.2,0.2,0.3l-5.5,2.1C-2.4-0.7-2.8-0.3-3,0.1l-1.8,3c-0.4,0.6-0.4,1.4-0.1,2.1l0.1,0.3h-1.9c-0.2,0-0.4,0.2-0.4,0.4
				l0,0v8.3h-1.3c-0.2,0-0.4,0.2-0.4,0.5c0,0.2,0.2,0.4,0.4,0.4H6.4c0.2,0,0.4-0.2,0.4-0.5c0-0.2-0.2-0.4-0.4-0.4H5.1V9.7
				c0-0.2-0.2-0.4-0.4-0.4c-0.1,0-0.1,0-0.2,0c-0.3,0.2-0.7,0.3-1,0.4c0,0-0.1,0-0.1,0l-2.8,1.7c-1.4,0.8-3.2,0.4-4-1
				c-0.8-1.3-0.4-3.1,0.9-3.9l0.4-0.3c0.3-0.2,0.6-0.4,0.8-0.5c0.2-0.1,0.2-0.3,0.2-0.5C-1.2,5-1.4,4.7-1.6,4.4
				c0.8-0.3,1.4-0.8,2-1.3h0c0.1,0.1,0.2,0.1,0.3,0.2l0,0l0,0C1.2,3.4,1.6,3.6,2,3.6C1.5,4.2,1.1,4.9,0.8,5.6
				c-1,0.5-1.9,1.1-2.9,1.7C-3,7.9-3.3,9.1-2.7,10.1c0.6,0.9,1.8,1.2,2.7,0.6l3-1.8C5,8.3,6.7,7,7.6,5.3c1-1.5,1.8-3.2,2.5-4.9l0,0
				c0.2,0.1,0.4,0.1,0.6,0.1c0.3,0,0.7-0.1,0.9-0.4c0.3-0.2,0.4-0.6,0.4-0.9v-2.1C12.1-3,12-3.2,11.8-3.2z"/>
		</g>
	</g>
</g>
</svg>
