<svg xmlns="http://www.w3.org/2000/svg" viewBox="0 0 22.641 16.949"><defs><style>.a{fill:#434343;}</style></defs><path class="a" d="M11.017,12.708c.191-.672.362-1.274.534-1.875.2-.708.4-1.417.616-2.122.057-.19.026-.289-.17-.366a9.423,9.423,0,0,0-2.618-.592c-3.035-.287-5.608.881-8.011,2.565-.383.268-.735.579-1.1.868-.067.053-.139.1-.265.19A12.86,12.86,0,0,1,1.492,8.441a11.1,11.1,0,0,1,4.671-4.01,10.612,10.612,0,0,1,3.431-.873,13.55,13.55,0,0,1,3.493.155c.177.03.235-.043.285-.195Q13.9,1.892,14.454.27A1.283,1.283,0,0,1,14.631,0a1.176,1.176,0,0,1,.256.212q2.655,3.957,5.3,7.922c.184.275.158.339-.144.478q-4.325,1.989-8.65,3.98A3.351,3.351,0,0,1,11.017,12.708Z" transform="translate(0 4.567) rotate(-13)"/></svg>