<?xml version="1.0" encoding="utf-8"?>
<!-- Generator: Adobe Illustrator 23.0.1, SVG Export Plug-In . SVG Version: 6.00 Build 0)  -->
<svg version="1.1" id="Layer_1" xmlns="http://www.w3.org/2000/svg" xmlns:xlink="http://www.w3.org/1999/xlink" x="0px" y="0px"
	 viewBox="0 0 520 520" style="enable-background:new 0 0 520 520;" xml:space="preserve">
<style type="text/css">
	.st0{fill:#C2C2C2;}
</style>
<path class="st0" d="M137.3,115.2c-1-3.2-1.7-6.3-2.8-9.3s-2.4-6-3.9-8.8C119.3,76,95.1,64.8,71.8,69.8
	c-26.2,5.7-44.6,28.4-44.6,55.3c0,89.8,0,179.5,0,269.3c0.1,3.3,0.3,6.6,0.9,9.9c4.7,27,27.9,46.4,55.3,46.4
	c135.8,0,271.6,0,407.4,0c0.7,0,1.4,0,2.2,0c0-111.9,0-223.6,0-335.5C374.3,115.2,255.7,115.2,137.3,115.2z M120.4,271.2
	c0,26.6,0,53.2,0,79.8c0,0.7,0,1.3,0,2.3c-11-9.5-23.3-14.4-37.4-14.4c-14,0-26.3,5-37.2,14.4c0-0.9,0-1.4,0-1.9
	c0-75.2,0-150.5,0-225.7c0-11.9,4.1-21.9,13.2-29.6c8-6.8,17.3-9.7,27.7-8.6c13,1.4,22.8,7.9,29.2,19.3c3.3,5.9,4.5,12.3,4.5,19
	C120.4,174.3,120.4,222.7,120.4,271.2z M418.5,366.7c-77.6,0-155.1,0-232.8,0c0-6.2,0-12.2,0-18.4c77.6,0,155.1,0,232.8,0
	C418.5,354.4,418.5,360.5,418.5,366.7z M418.5,254.7c-8.6-8.6-17.1-17.2-25.8-25.8c-21,21-41.8,41.8-62.7,62.7
	c-17.2-17.2-34.4-34.4-51.5-51.7c-22.8,19.8-45.4,39.5-68.1,59.4c-4.1-4.7-8.1-9.3-12.2-14c27-23.7,54-47.3,81-70.9
	c17,16.9,33.9,33.8,50.7,50.6c16.5-16.5,32.9-32.9,49.5-49.5c-8.4-8.4-17-17-25.7-25.6c21.7,0,43.2,0,64.8,0
	C418.5,211.5,418.5,233.1,418.5,254.7z"/>
</svg>
