<svg xmlns="http://www.w3.org/2000/svg" viewBox="0 0 78.381 79.383">
  <g id="Group_702" data-name="Group 702" transform="translate(-3236.945 -4427.272)">
    <g id="Group_701" data-name="Group 701" transform="translate(3237.066 4427.272)">
      <path id="Path_717" data-name="Path 717" d="M35.221,76.1c-1.772,0-3.544.018-5.317,0a3.485,3.485,0,0,1-3.722-3.279c-.372-2.57-.709-5.139-1.134-7.709a1.6,1.6,0,0,0-.691-.975c-1.223-.78-2.463-1.506-3.739-2.18a1.545,1.545,0,0,0-1.117-.124c-2.375.9-4.714,1.861-7.071,2.836-2.268.939-3.846.39-5.069-1.719q-3.4-5.9-6.823-11.8a3.539,3.539,0,0,1,.9-5.015Q4.473,43.739,7.521,41.4a1.3,1.3,0,0,0,.567-1.258c-.071-1.418.018-2.836-.035-4.253a1.692,1.692,0,0,0-.479-1.081c-1.9-1.542-3.846-3.048-5.777-4.537C-.33,28.622-.649,27.062.7,24.758q3.429-5.9,6.823-11.8a3.476,3.476,0,0,1,4.608-1.6c2.41.957,4.82,1.914,7.231,2.906a1.394,1.394,0,0,0,1.453-.177c1.17-.744,2.41-1.382,3.58-2.127a1.516,1.516,0,0,0,.656-.9c.408-2.57.762-5.139,1.117-7.709A3.547,3.547,0,0,1,29.958,0h14A3.393,3.393,0,0,1,47.68,3.137c.425,2.623.744,5.264,1.17,7.886a1.431,1.431,0,0,0,.656.886c1.205.744,2.463,1.4,3.651,2.162a1.346,1.346,0,0,0,1.382.16c2.375-.975,4.767-1.932,7.142-2.871a3.387,3.387,0,0,1,4.732,1.613c2.357,4.023,4.679,8.064,7,12.122A3.462,3.462,0,0,1,72.42,30c-1.932,1.506-3.846,3.031-5.813,4.519a1.569,1.569,0,0,0-.78,1.684,9.77,9.77,0,0,1,.053,2.038,1.737,1.737,0,0,1-2.127,1.79,21.754,21.754,0,0,0-9.73.532c-1.347.372-2.215-.443-2.18-1.861A14.893,14.893,0,1,0,36.55,53.025h.443c2.322-.071,2.836.6,2.268,2.871a20.976,20.976,0,0,0,2.623,16.748c.479.8,1.205,1.524.638,2.587-.585,1.1-1.63.868-2.587.886C38.358,76.1,36.8,76.1,35.221,76.1Z"/>
      <path id="Path_718" data-name="Path 718" d="M269.346,250.96v-2.782a6.193,6.193,0,0,1,.071-1.152,1.577,1.577,0,0,1,1.755-1.294,1.494,1.494,0,0,1,1.471,1.489c.035,3.4.035,6.788,0,10.19a1.517,1.517,0,0,1-1.56,1.506c-3.332.035-6.681.035-10.013,0a1.631,1.631,0,1,1,.035-3.261c1.808-.035,3.6-.018,5.405-.018h1.01a1.892,1.892,0,0,0-.053-.514c-2.038-4.82-5.352-8.205-10.633-9.2a14.876,14.876,0,1,0-2.676,29.561c1.258.053,1.985.673,1.985,1.666,0,1.01-.833,1.7-2.091,1.63-7.55-.425-13.15-3.988-16.18-10.917-3.084-7.053-1.985-13.823,3.243-19.512,5.1-5.547,11.52-7.3,18.786-5.033a16.584,16.584,0,0,1,8.79,6.965l.479.691A.319.319,0,0,0,269.346,250.96Z" transform="translate(-194.409 -199.406)"/>
    </g>
  </g>
</svg>
