<svg xmlns="http://www.w3.org/2000/svg" viewBox="0 0 18.179 17.172"><defs><style>.a{fill:#fff;}</style></defs><path class="a" d="M1783.675-3214.3l-1.62-1.736h-4.317a5.7,5.7,0,0,1-2.234-.452,5.72,5.72,0,0,1-1.823-1.229,5.72,5.72,0,0,1-1.229-1.823,5.7,5.7,0,0,1-.451-2.234v-1.184a3.413,3.413,0,0,1,.27-1.336,3.411,3.411,0,0,1,.735-1.091,3.412,3.412,0,0,1,1.091-.735,3.4,3.4,0,0,1,.844-.235,5.3,5.3,0,0,0,.4,1.171,2.228,2.228,0,0,0-2.136,2.226v1.184a4.534,4.534,0,0,0,4.533,4.533h4.549a.667.667,0,0,1,.49.212l1.779,1.906a.269.269,0,0,0,.2.087.274.274,0,0,0,.276-.273l.014-1.934v-3.355h1.2v3.365l-.014,1.933a1.482,1.482,0,0,1-.472,1.074,1.479,1.479,0,0,1-1.008.394A1.482,1.482,0,0,1,1783.675-3214.3Zm5.927-4.846-2.1-2.245a.789.789,0,0,0-.577-.251h-5.359a5.34,5.34,0,0,1-5.341-5.34v-1.4a2.625,2.625,0,0,1,2.624-2.625h8.363a2.962,2.962,0,0,1,2.962,2.962v6.4l-.016,2.278a.324.324,0,0,1-.327.322A.316.316,0,0,1,1789.6-3219.144Zm-3.717-7.153a.864.864,0,0,0,.863.863.864.864,0,0,0,.864-.863.864.864,0,0,0-.864-.864A.864.864,0,0,0,1785.885-3226.3Zm-3.5,0a.863.863,0,0,0,.863.863.863.863,0,0,0,.863-.863.863.863,0,0,0-.863-.864A.863.863,0,0,0,1782.387-3226.3Zm-3.5,0a.863.863,0,0,0,.863.863.864.864,0,0,0,.864-.863.864.864,0,0,0-.864-.864A.863.863,0,0,0,1778.888-3226.3Z" transform="translate(-1772 3231)"/></svg>