<svg xmlns="http://www.w3.org/2000/svg" viewBox="0 0 162.9 119.46">
  <defs>
    <style>
      .cls-1 {
        fill: white;
      }
    </style>
  </defs>
  <g id="upload" transform="translate(-12.671 -215.337)">
    <g id="g1251" transform="translate(12.671 215.337)">
      <g id="g1195" transform="translate(0 0)">
        <path id="path1193" class="cls-1" d="M155.813,76.909a32.112,32.112,0,0,0-18.115-11.5,21.6,21.6,0,0,0-2.884-27.065,21.6,21.6,0,0,0-29.439-1.1A43.487,43.487,0,0,0,65.159,10.266,41.854,41.854,0,0,0,34.446,22.993,41.845,41.845,0,0,0,21.719,53.706q0,1.1.17,3.648A37.942,37.942,0,0,0,0,91.716a36.6,36.6,0,0,0,11.157,26.852A36.6,36.6,0,0,0,38.01,129.726h92.311A32.589,32.589,0,0,0,162.9,97.145,31.535,31.535,0,0,0,155.813,76.909ZM107.792,74.62a2.614,2.614,0,0,1-1.908.8h-19V105.29A2.751,2.751,0,0,1,84.166,108H67.873a2.752,2.752,0,0,1-2.715-2.713V75.424H46.153a2.61,2.61,0,0,1-2.713-2.713,3.19,3.19,0,0,1,.848-2.037l29.78-29.779a2.875,2.875,0,0,1,3.9,0l29.865,29.864a2.64,2.64,0,0,1,.761,1.953,2.61,2.61,0,0,1-.805,1.908Z" transform="translate(0 -10.266)"/>
      </g>
    </g>
  </g>
</svg>
