<?xml version="1.0" encoding="UTF-8" standalone="no"?>
<svg
   xmlns:dc="http://purl.org/dc/elements/1.1/"
   xmlns:cc="http://creativecommons.org/ns#"
   xmlns:rdf="http://www.w3.org/1999/02/22-rdf-syntax-ns#"
   xmlns:svg="http://www.w3.org/2000/svg"
   xmlns="http://www.w3.org/2000/svg"
   xmlns:sodipodi="http://sodipodi.sourceforge.net/DTD/sodipodi-0.dtd"
   xmlns:inkscape="http://www.inkscape.org/namespaces/inkscape"
   viewBox="0 0 34.142 34.142"
   version="1.1"
   id="svg12"
   sodipodi:docname="user.svg"
   inkscape:version="0.92.3 (2405546, 2018-03-11)">
  <metadata
     id="metadata16">
    <rdf:RDF>
      <cc:Work
         rdf:about="">
        <dc:format>image/svg+xml</dc:format>
        <dc:type
           rdf:resource="http://purl.org/dc/dcmitype/StillImage" />
      </cc:Work>
    </rdf:RDF>
  </metadata>
  <sodipodi:namedview
     pagecolor="#ffffff"
     bordercolor="#666666"
     borderopacity="1"
     objecttolerance="10"
     gridtolerance="10"
     guidetolerance="10"
     inkscape:pageopacity="0"
     inkscape:pageshadow="2"
     inkscape:window-width="1920"
     inkscape:window-height="1017"
     id="namedview14"
     showgrid="false"
     inkscape:zoom="13.824616"
     inkscape:cx="11.491135"
     inkscape:cy="14.553465"
     inkscape:window-x="-8"
     inkscape:window-y="-8"
     inkscape:window-maximized="1"
     inkscape:current-layer="user" />
  <defs
     id="defs4">
    <style
       id="style2">
      .cls-1 {
        fill: #98b243;
      }

      .cls-2 {
        fill: #fff;
      }

      .cls-3 {
        fill: none;
      }
    </style>
  </defs>
  <g
     id="Group_221"
     data-name="Group 221"
     transform="translate(-1227 -20)">
    <g
       id="user"
       transform="translate(1229 22)"
       style="fill:#707070;fill-opacity:1">
      <path
         id="Path_282"
         data-name="Path 282"
         class="cls-2"
         d="m 9.6797878,23.036738 -5.7680841,3.149875 a 5.1887678,5.1887678 0 0 0 -0.9266552,0.659568 19.339383,19.339383 0 0 0 24.8479035,0.06395 5.1223094,5.1223094 0 0 0 -1.018193,-0.682139 l -6.189405,-3.092194 a 2.3573909,2.3573909 0 0 1 -1.304088,-2.109112 v -2.428865 a 9.3380265,9.3380265 0 0 0 0.584332,-0.752359 14.227105,14.227105 0 0 0 1.922276,-3.873394 1.9423396,1.9423396 0 0 0 1.379325,-1.84704 V 9.5394208 A 1.9335621,1.9335621 0 0 0 22.56017,8.1049235 V 4.3606846 c 0,0 0.76866,-5.8257649 -7.121076,-5.8257649 -7.8897355,0 -7.114806,5.8257649 -7.114806,5.8257649 v 3.742985 A 1.9310542,1.9310542 0 0 0 7.6772595,9.5381668 v 2.5893682 a 1.9410857,1.9410857 0 0 0 0.8953069,1.630111 12.850288,12.850288 0 0 0 2.3360736,4.840175 v 2.36993 a 2.3598987,2.3598987 0 0 1 -1.2288522,2.068987 z"
         style="fill:#707070;fill-opacity:1;stroke-width:1.25393128"
         inkscape:connector-curvature="0" />
    </g>
  </g>
</svg>
