<svg xmlns="http://www.w3.org/2000/svg" viewBox="0 0 50.434 50.866">
  <defs>
    <style>
      .cls-1 {
        fill: #c2c2c2;
      }
    </style>
  </defs>
  <g id="g5896_1_" transform="translate(0 0)">
    <path id="path822_1_" class="cls-1" d="M-106.481,66.853a25.346,25.346,0,0,0-13.39,3.846c-.241.153-.482.306-.717.467q-.2.14-.4.284a25.706,25.706,0,0,0-10.753,20.961,25.788,25.788,0,0,0,2.039,10.078q.112.257.229.512.249.554.523,1.095a25.377,25.377,0,0,0,22.465,13.623,25.367,25.367,0,0,0,20.546-10.543A25.719,25.719,0,0,0-81.3,92.412,25.667,25.667,0,0,0-95.188,69.543q-.5-.256-1.012-.49c-.166-.076-.329-.155-.5-.228A25.328,25.328,0,0,0-106.481,66.853Zm-.038,2.584A22.763,22.763,0,0,1-83.934,92.411a23.107,23.107,0,0,1-5.924,15.52,17.735,17.735,0,0,0-16.681-11.763A17.735,17.735,0,0,0-123.2,107.905a23.11,23.11,0,0,1-5.9-15.494A22.763,22.763,0,0,1-106.519,69.437Z" transform="translate(131.737 -66.853)"/>
    <circle id="circle14_1_" class="cls-1" cx="9.949" cy="9.949" r="9.949" transform="translate(15.25 9.418)"/>
  </g>
</svg>
