<svg xmlns="http://www.w3.org/2000/svg" viewBox="0 0 70.274 78.328">
  <defs>
    <style>
      .cls-1 {
        fill: #4e2977;
      }
    </style>
  </defs>
  <g id="vc" transform="translate(-41.271 -131.411)">
    <path id="path826" class="cls-1" d="M61.57,208.694A23.617,23.617,0,0,1,63,204.325a24.5,24.5,0,0,0,1.466-8.466,22.676,22.676,0,0,1,4.665-14.1c3.533-4.718,6.165-2.611,3.1,2.481-1.22,2.026-1.881,4.559-2.2,8.431a28.335,28.335,0,0,0-.144,5.889c.173.195,1.7-.8,3.4-2.2,2.7-2.239,3.215-2.408,4.14-1.365.871.982.891,1.415.116,2.468-2.417,3.283-15.972,12.815-15.972,11.231ZM89.9,206.667a35.173,35.173,0,0,0-4.817-8.246c-4.7-6.2-6.111-9.721-6.111-15.2,0-3.487.208-4.113,1.369-4.113,1.006,0,1.5.806,1.875,3.036.7,4.22,1.966,6.666,5.357,10.367l2.92,3.187.487-4.139c.37-3.141.827-4.239,1.9-4.554a1.379,1.379,0,0,1,1.785.688c.545,1.6-1.083,12.836-2.579,17.8L90.8,209.739ZM52.213,189.661c-5.335-1.181-10.942-3.2-10.942-3.949,0-.387,1.078-.931,2.395-1.21,1.346-.285,4.256-2.281,6.644-4.556,5.475-5.218,7.918-6.475,13.123-6.747,3.561-.186,4.29.01,4.509,1.21a1.524,1.524,0,0,1-.7,1.746c-.528.172-2.318.728-3.979,1.235a21.74,21.74,0,0,0-6.672,4.384c-3.378,3.2-3.532,3.5-2.056,3.993a17.258,17.258,0,0,0,3.953.613c2.011.07,2.356.381,2.356,2.125,0,1.832-.281,2.034-2.719,1.954a39.353,39.353,0,0,1-5.913-.8Zm56.118-4.93a17.442,17.442,0,0,0-7.3-1.518,19.392,19.392,0,0,1-14.053-5.493c-2.594-2.5-2.89-3.1-2.029-4.068s1.477-.849,4.222.836a18.929,18.929,0,0,0,8.526,2.435l5.313.462-2.691-3.7c-2.474-3.4-2.6-3.808-1.523-5.018s1.408-1.023,4.151,2.314c2.881,3.5,9.133,14.44,8.565,14.982-.153.146-1.583-.408-3.178-1.231ZM48.275,167.2c-3.03-4.352-7.253-12.605-6.744-13.179a7.309,7.309,0,0,1,2.893.975,36.472,36.472,0,0,0,8.639,1.933c6.262.716,9,1.886,12.77,5.465,4.3,4.079,2.448,6.419-2.495,3.154-2.476-1.636-4.657-2.305-8.528-2.617-5.731-.462-5.669-.625-1.7,4.487,1.512,1.948,1.2,4.332-.568,4.332-.6,0-2.525-2.047-4.266-4.548Zm36.494-1.467c0-1.624.364-2.157,1.473-2.157,2.544,0,6.6-2.35,9.8-5.674,3.394-3.527,3.114-4.133-1.911-4.133-2.547,0-2.841-.211-2.841-2.043s.288-2.043,2.93-2.043c3.186,0,12.708,2.041,15.8,3.387,1.919.835,1.911.846-1.5,2.317a27.374,27.374,0,0,0-6.887,4.947c-4.165,4.175-8.374,6.422-13.248,7.072-3.542.473-3.624.435-3.624-1.673Zm-4.935-4.778c-1.193-1.345-1.114-1.8.892-5.128,1.615-2.683,3.393-12.871,2.434-13.951-.184-.208-1.731.763-3.438,2.157-2.709,2.212-3.236,2.384-4.153,1.351s-.629-1.6,2.262-4.47c2.836-2.815,12.394-9.21,13.764-9.21.249,0-.174,1.384-.939,3.075a42,42,0,0,0-2.112,9.79c-.753,7.019-2.682,11.927-6.1,15.529-1.349,1.42-1.937,1.613-2.606.858ZM70.261,157c-.642-3.015-1.819-5.275-4.363-8.377l-3.484-4.248-.515,4.291c-.466,3.877-.69,4.291-2.328,4.291-1.79,0-1.806-.063-1.313-4.975.5-5.013,2.991-15.319,3.984-16.5.294-.352.924.824,1.4,2.612a27.966,27.966,0,0,0,4.168,7.586c4.5,5.9,5.49,8.3,5.918,14.309.339,4.766.258,5.145-1.111,5.145-1.175,0-1.656-.844-2.356-4.129Z" transform="translate(0)"/>
  </g>
</svg>
