<svg xmlns="http://www.w3.org/2000/svg" viewBox="0 0 22.997 19.164">
  <defs>
    <style>
      .cls-1 {
        fill: #945900;
      }
    </style>
  </defs>
  <g id="Group_234" data-name="Group 234" transform="translate(0 0)">
    <g id="Group_233" data-name="Group 233" transform="translate(0 0)">
      <path id="Path_308" data-name="Path 308" class="cls-1" d="M21.081,45.541H16.29v-.958a1.918,1.918,0,0,0-1.916-1.916H8.624a1.918,1.918,0,0,0-1.916,1.916v.958H1.916A1.918,1.918,0,0,0,0,47.457v2.875a1.918,1.918,0,0,0,1.916,1.916H9.582v-.479a.479.479,0,0,1,.479-.479h2.875a.479.479,0,0,1,.479.479v.479h7.666A1.918,1.918,0,0,0,23,50.332V47.457A1.918,1.918,0,0,0,21.081,45.541Zm-6.707,0H8.624v-.958h5.749Z" transform="translate(0 -42.666)"/>
      <path id="Path_309" data-name="Path 309" class="cls-1" d="M22.731,266.434a.48.48,0,0,0-.5.047,1.892,1.892,0,0,1-1.148.394H13.415v1.437a.479.479,0,0,1-.479.479H10.061a.479.479,0,0,1-.479-.479v-1.437H1.916a1.892,1.892,0,0,1-1.148-.394.479.479,0,0,0-.768.382v6.72A1.918,1.918,0,0,0,1.916,275.5H21.081A1.918,1.918,0,0,0,23,273.583v-6.72A.479.479,0,0,0,22.731,266.434Z" transform="translate(0 -256.335)"/>
    </g>
  </g>
</svg>
